<?xml version="1.0" encoding="UTF-8"?>
<!DOCTYPE svg PUBLIC "-//W3C//DTD SVG 1.1//EN" "http://www.w3.org/Graphics/SVG/1.1/DTD/svg11.dtd">
<!-- Creator: CorelDRAW -->
<svg xmlns="http://www.w3.org/2000/svg" xml:space="preserve" width="9.4612mm" height="7.7992mm" version="1.1" style="shape-rendering:geometricPrecision; text-rendering:geometricPrecision; image-rendering:optimizeQuality; fill-rule:evenodd; clip-rule:evenodd"
viewBox="0 0 35.09 28.93"
 xmlns:xlink="http://www.w3.org/1999/xlink"
 xmlns:xodm="http://www.corel.com/coreldraw/odm/2003">
 <defs>
  <style type="text/css">
   <![CDATA[
    .fil0 {fill:white}
   ]]>
  </style>
 </defs>
 <g id="Camada_x0020_1">
  <metadata id="CorelCorpID_0Corel-Layer"/>
  <path class="fil0" d="M2.87 27.59c0.3,-1.32 0.89,-3.93 1.18,-5.24 0.29,-1.31 0.29,-1.31 0.29,-1.31 0,0 0,0 -0.65,-0.68 -0.65,-0.68 -1.95,-2.03 -2.73,-3.37 -0.79,-1.34 -1.06,-2.68 -0.93,-4.27 0.13,-1.59 0.66,-3.44 1.52,-5.04 0.86,-1.6 2.06,-2.95 4.03,-4.22 1.97,-1.27 4.7,-2.44 7.62,-3.04 2.92,-0.6 6.02,-0.61 9.39,0.25 3.38,0.87 7.03,2.61 9.25,4.61 2.22,2 3,4.25 3.2,6.43 0.2,2.17 -0.18,4.27 -1.13,6.09 -0.96,1.82 -2.49,3.36 -4.38,4.51 -1.88,1.15 -4.12,1.91 -6.57,2.38 -2.45,0.47 -5.12,0.64 -7.38,0.45 -2.26,-0.19 -4.11,-0.74 -5.04,-1.02 -0.93,-0.28 -0.93,-0.28 -0.93,-0.28 0,0 0,0 -1.18,0.85 -1.18,0.85 -3.53,2.54 -4.7,3.39 -1.18,0.85 -1.18,0.85 -1.17,0.84 0,-0.01 0.01,-0.02 0.31,-1.34z"/>
 </g>
</svg>
