<?xml version="1.0" encoding="UTF-8"?>
<!DOCTYPE svg PUBLIC "-//W3C//DTD SVG 1.1//EN" "http://www.w3.org/Graphics/SVG/1.1/DTD/svg11.dtd">
<!-- Creator: CorelDRAW -->
<svg xmlns="http://www.w3.org/2000/svg" xml:space="preserve" width="12.5348mm" height="8.2867mm" version="1.1" style="shape-rendering:geometricPrecision; text-rendering:geometricPrecision; image-rendering:optimizeQuality; fill-rule:evenodd; clip-rule:evenodd"
viewBox="0 0 77.32 51.12"
 xmlns:xlink="http://www.w3.org/1999/xlink"
 xmlns:xodm="http://www.corel.com/coreldraw/odm/2003">
 <defs>
  <style type="text/css">
   <![CDATA[
    .fil0 {fill:white}
   ]]>
  </style>
 </defs>
 <g id="Camada_x0020_1">
  <metadata id="CorelCorpID_0Corel-Layer"/>
  <path class="fil0" d="M5.15 0.32c-6.04,1.47 -5.1,6.67 -5.1,10.94l-0 31.94c-0.01,5.91 2.59,7.77 8.35,7.77l47.91 0c3.34,0 13.43,0.42 16,-0.16 2.16,-0.49 3.6,-1.89 4.4,-3.6 0.87,-1.86 0.56,-5.13 0.56,-7.36l0 -31.94c0.01,-5.84 -2.6,-7.77 -8.35,-7.77l-47.91 0c-3.25,0 -13.45,-0.4 -15.86,0.18zm48.63 32.94l-5.46 0c-2.44,0 -2.34,2.38 -1.41,3.16 0.85,0.71 4.03,0.41 5.4,0.41 1.65,0 4.24,0.47 4.82,-1.05 0.94,-2.49 -1.5,-2.53 -3.35,-2.53zm6.78 0.25c-0.45,0.22 -0.67,0.16 -0.9,0.92 -0.67,2.23 1.39,2.42 2.94,2.41 1.36,-0.01 6.17,0.27 7.05,-0.24 0.82,-0.47 2.2,-3.37 -2,-3.35 -1.58,0.01 -5.98,-0.28 -7.09,0.25zm-26.53 -0.04c-0.78,0.45 -1.25,1.33 -0.82,2.34 0.43,0.99 1.16,1.04 2.49,1.03 3.69,-0.02 9.47,0.99 8.15,-2.59 -0.38,-1.03 -1.33,-1 -2.67,-0.99 -1.32,0.01 -6.38,-0.23 -7.15,0.22zm-18.12 8.22c-1.4,-1.45 -3.11,-3.09 -3.17,-6.47 -0.07,-3.72 1.74,-5.01 3.11,-6.73 -1.96,-1.65 -9.39,-0.16 -9.64,6.3 -0.19,4.9 4.61,8.76 9.69,6.9zm4.29 -13.71c-9.47,1.29 -7.57,15.61 2.01,14.11 9.09,-1.42 7.07,-15.35 -2.01,-14.11zm-16.51 -17.9l69.91 0.01c0.19,-1.01 0.21,-3.78 -0.13,-4.65 -0.55,-1.38 -1.69,-1.75 -3.5,-1.75l-62.41 -0c-1.91,-0 -3,0.24 -3.65,1.61 -0.45,0.95 -0.41,3.65 -0.21,4.78zm70 10.64l-70.09 -0.05 0 23.17c0.01,2.96 1.25,3.58 4.15,3.57l61.78 -0c5.3,0.02 4.15,-2.58 4.15,-11.14 0,-5.17 -0.05,-10.38 0.01,-15.55z"/>
 </g>
</svg>
