<?xml version="1.0" encoding="UTF-8"?>
<!DOCTYPE svg PUBLIC "-//W3C//DTD SVG 1.1//EN" "http://www.w3.org/Graphics/SVG/1.1/DTD/svg11.dtd">
<!-- Creator: CorelDRAW -->
<svg xmlns="http://www.w3.org/2000/svg" xml:space="preserve" width="11.6382mm" height="9.447mm" version="1.1" style="shape-rendering:geometricPrecision; text-rendering:geometricPrecision; image-rendering:optimizeQuality; fill-rule:evenodd; clip-rule:evenodd"
viewBox="0 0 90.49 73.46"
 xmlns:xlink="http://www.w3.org/1999/xlink"
 xmlns:xodm="http://www.corel.com/coreldraw/odm/2003">
 <defs>
  <style type="text/css">
   <![CDATA[
    .str0 {stroke:#999999;stroke-width:1.23;stroke-linecap:round;stroke-linejoin:round;stroke-miterlimit:22.9256}
    .fil1 {fill:none}
    .fil0 {fill:white}
   ]]>
  </style>
 </defs>
 <g id="Camada_x0020_1">
  <metadata id="CorelCorpID_0Corel-Layer"/>
  <g id="_1956978510496">
   <path class="fil0" d="M25.17 3.92c-5.06,4.03 -15.11,12.05 -20.14,16.06 -5.03,4.01 -5.03,4.01 -5.03,4.01 0,0 0,0 2.01,1.96 2.01,1.96 6.04,5.88 8.06,7.84 2.01,1.96 2.01,1.96 2.01,1.96 0,0 0,0 1.91,-1.29 1.91,-1.29 5.72,-3.87 7.62,-5.15 1.91,-1.29 1.91,-1.29 1.91,-1.29 0,0 0,0 0.02,6.46 0.02,6.46 0.05,19.38 0.13,25.96 0.07,6.57 0.18,6.79 0.38,7.11 0.2,0.33 0.49,0.76 0.85,1.13 0.36,0.36 0.8,0.65 6.28,0.87 5.48,0.22 16.01,0.36 21.36,0.34 5.35,-0.02 5.54,-0.2 5.92,-0.51 0.38,-0.31 0.96,-0.74 1.38,-1.11 0.42,-0.36 0.67,-0.65 0.78,-7.37 0.11,-6.71 0.07,-19.86 0.05,-26.43 -0.02,-6.57 -0.02,-6.57 -0.02,-6.57 0,0 0,0 2.01,1.42 2.02,1.42 6.04,4.25 8.06,5.66 2.01,1.42 2.01,1.42 2.01,1.42 0,0 0,0 1.96,-2.05 1.96,-2.05 5.88,-6.15 7.84,-8.2 1.96,-2.05 1.96,-2.05 1.96,-2.05 0,0 0,0 -4.96,-3.99 -4.95,-3.99 -14.86,-11.98 -19.82,-15.97 -4.95,-3.99 -4.95,-3.99 -4.95,-3.99 0,0 0,0 -0.13,0.93 -0.13,0.93 -0.38,2.78 -1.81,4.64 -1.43,1.86 -4.05,3.73 -6.55,4.61 -2.5,0.88 -4.9,0.77 -7.13,-0.01 -2.23,-0.78 -4.3,-2.23 -5.75,-3.87 -1.45,-1.63 -2.29,-3.45 -2.69,-4.58 -0.4,-1.13 -0.38,-1.58 -0.39,-1.79 -0.02,-0.21 -0.08,-0.18 -5.14,3.85z"/>
   <path class="fil0" d="M6.34 43.04c-0.2,3.85 -0.53,11.41 -0.7,15.19 -0.17,3.78 -0.17,3.78 -0.17,3.78 0,0 0,0 0.56,0.21 0.56,0.21 1.69,0.63 2.42,1.29 0.73,0.66 1.05,1.57 1.14,2.54 0.08,0.97 -0.07,1.99 -0.37,2.99 -0.29,1 -0.73,1.97 -1.38,2.62 -0.66,0.65 -1.54,0.97 -2.64,0.85 -1.1,-0.13 -2.41,-0.71 -3.14,-1.58 -0.73,-0.87 -0.88,-2.03 -0.85,-3.18 0.03,-1.14 0.23,-2.27 0.62,-3.23 0.4,-0.96 1,-1.75 1.33,-2.21 0.33,-0.46 0.39,-0.59 0.49,-3.78 0.09,-3.19 0.21,-9.46 0.35,-12.91 0.15,-3.46 0.32,-4.1 0.76,-4.74 0.44,-0.64 1.14,-1.26 1.5,-1.59 0.36,-0.32 0.39,-0.34 0.36,-0.29 -0.02,0.06 -0.08,0.19 -0.28,4.04zm-2.25 21.99c-0.5,0.39 -0.78,0.95 -0.89,1.64 -0.11,0.69 -0.06,1.53 0.09,2.17 0.15,0.64 0.38,1.1 0.81,1.38 0.43,0.29 1.06,0.4 1.67,0.32 0.61,-0.08 1.21,-0.36 1.61,-0.91 0.4,-0.55 0.61,-1.36 0.63,-2.13 0.02,-0.77 -0.15,-1.5 -0.51,-2.05 -0.36,-0.55 -0.92,-0.92 -1.55,-0.99 -0.64,-0.07 -1.35,0.17 -1.85,0.56z"/>
   <path class="fil0" d="M71.87 67.92c-0.41,-5.42 -1.15,-16.14 -1.37,-21.83 -0.22,-5.69 0.09,-6.34 0.43,-6.77 0.34,-0.43 0.7,-0.63 1.03,-0.73 0.34,-0.1 0.64,-0.1 0.92,0.09 0.27,0.19 0.51,0.57 0.64,1.08 0.13,0.51 0.15,1.14 -0.05,6.75 -0.2,5.6 -0.61,16.18 -0.82,21.51 -0.21,5.34 -0.21,5.44 -0.25,5.43 -0.04,-0 -0.12,-0.11 -0.53,-5.53z"/>
   <g>
    <path class="fil1 str0" d="M68.18 40.9c1.61,0.54 3.21,1.07 4.53,1.92 1.32,0.84 2.36,2 3.35,4 1,2.01 1.96,4.86 2.96,6.57 1,1.71 2.03,2.27 3.01,2.64 0.98,0.37 1.91,0.54 3.2,0.37 1.3,-0.17 2.97,-0.69 4.64,-1.21"/>
   </g>
  </g>
 </g>
</svg>
