<?xml version="1.0" encoding="UTF-8"?>
<!DOCTYPE svg PUBLIC "-//W3C//DTD SVG 1.1//EN" "http://www.w3.org/Graphics/SVG/1.1/DTD/svg11.dtd">
<!-- Creator: CorelDRAW -->
<svg xmlns="http://www.w3.org/2000/svg" xml:space="preserve" width="12.7776mm" height="9.447mm" version="1.1" style="shape-rendering:geometricPrecision; text-rendering:geometricPrecision; image-rendering:optimizeQuality; fill-rule:evenodd; clip-rule:evenodd"
viewBox="0 0 3534.53 2613.22"
 xmlns:xlink="http://www.w3.org/1999/xlink"
 xmlns:xodm="http://www.corel.com/coreldraw/odm/2003">
 <defs>
  <style type="text/css">
   <![CDATA[
    .str0 {stroke:#999999;stroke-width:43.93;stroke-linecap:round;stroke-linejoin:round;stroke-miterlimit:22.9256}
    .fil2 {fill:none}
    .fil0 {fill:#999999}
    .fil1 {fill:white}
   ]]>
  </style>
 </defs>
 <g id="Camada_x0020_1">
  <metadata id="CorelCorpID_0Corel-Layer"/>
  <g id="_2283565343664">
   <path class="fil0" d="M964.46 1749.23c-85.01,62.46 -247.41,167.38 -357.64,231 -110.26,63.59 -168.38,85.86 -220.99,125.09 -52.64,39.22 -99.78,95.41 -135.76,131.42 -36.02,35.99 -60.88,51.81 -87.77,58.53 -26.89,6.72 -55.79,4.37 -82.76,-7.25 -26.97,-11.62 -51.95,-32.5 -65.89,-64.26 -13.97,-31.76 -16.87,-74.36 -10.18,-108.32 6.69,-33.94 22.96,-59.22 44.51,-80.61 21.52,-21.36 48.33,-38.78 86.58,-49.27 38.26,-10.51 87.96,-14.05 119.89,0.69 31.89,14.74 45.95,47.77 53.47,64.29 7.52,16.51 8.49,16.51 10.26,16.21 1.8,-0.33 4.37,-0.97 52.97,-29.07 48.57,-28.08 143.18,-83.62 251.42,-145.36 108.24,-61.74 230.09,-129.71 306.05,-171.67 75.96,-41.99 105.97,-57.95 120.99,-65.95 15.02,-7.99 15.02,-7.99 11.23,2.02 -3.79,10.01 -11.4,30.01 -96.37,92.5zm-840.7 306.58c-22.93,11.92 -40.36,27.91 -51.98,44.95 -11.62,17.04 -17.43,35.13 -16.46,54.33 0.97,19.23 8.71,39.56 21.77,51.64 13.08,12.12 31.51,15.99 55.21,15.19 23.73,-0.8 52.78,-6.31 77.32,-19.36 24.56,-13.08 44.56,-33.75 55.38,-54.58 10.82,-20.8 12.45,-41.8 10.01,-58.59 -2.41,-16.79 -8.88,-29.38 -21.47,-38.92 -12.59,-9.52 -31.31,-15.96 -54.88,-15.24 -23.57,0.72 -52,8.63 -74.91,20.58z"/>
   <path class="fil1" d="M1210.62 139.36c-180,143.26 -537.72,428.68 -716.58,571.36 -178.86,142.71 -178.86,142.71 -178.86,142.71 0,0 0,0 71.67,69.74 71.67,69.74 215.02,209.21 286.69,278.94 71.67,69.74 71.67,69.74 71.67,69.74 0,0 0,0 67.8,-45.84 67.8,-45.84 203.4,-137.54 271.2,-183.37 67.8,-45.86 67.8,-45.86 67.8,-45.86 0,0 0,0 0.66,229.87 0.64,229.87 1.91,689.61 4.51,923.38 2.57,233.74 6.45,241.49 13.55,253.11 7.11,11.62 17.43,27.11 30.35,40.03 12.92,12.92 28.41,23.24 223.43,31.01 194.99,7.75 569.5,12.89 759.98,12.25 190.48,-0.64 196.95,-7.11 210.51,-18.09 13.55,-10.95 34.22,-26.44 49.07,-39.36 14.85,-12.92 23.9,-23.26 27.77,-262.18 3.87,-238.89 2.57,-706.4 1.94,-940.15 -0.66,-233.74 -0.66,-233.74 -0.66,-233.74 0,0 0,0 71.67,50.37 71.7,50.37 215.04,151.09 286.72,201.46 71.67,50.37 71.67,50.37 71.67,50.37 0,0 0,0 69.74,-72.97 69.74,-72.97 209.21,-218.89 278.94,-291.86 69.74,-72.97 69.74,-72.97 69.74,-72.97 0,0 0,0 -176.29,-142.04 -176.26,-142.04 -528.81,-426.16 -705.1,-568.23 -176.26,-142.04 -176.26,-142.04 -176.26,-142.04 0,0 0,0 -4.54,32.92 -4.51,32.95 -13.55,98.81 -64.56,165 -51.01,66.17 -144.01,132.67 -233.11,164.01 -89.1,31.31 -174.35,27.44 -253.77,-0.33 -79.42,-27.77 -153.03,-79.42 -204.67,-137.54 -51.67,-58.12 -81.38,-122.68 -95.74,-162.96 -14.36,-40.28 -13.39,-56.26 -14.05,-63.68 -0.64,-7.44 -2.9,-6.31 -182.87,136.95z"/>
   <path class="fil1" d="M540.68 1531.34c-7.11,136.84 -19.03,405.77 -25.01,540.24 -5.97,134.46 -5.97,134.46 -5.97,134.46 0,0 0,0 20.08,7.47 20.08,7.47 60.25,22.35 86.14,45.97 25.89,23.6 37.51,55.88 40.5,90.23 3.02,34.36 -2.6,70.76 -13.11,106.28 -10.48,35.52 -25.84,70.12 -49.27,93.22 -23.4,23.07 -54.85,34.63 -93.91,30.12 -39.06,-4.51 -85.75,-25.12 -111.73,-56.13 -26,-30.98 -31.29,-72.36 -30.4,-113.08 0.91,-40.72 8.02,-80.75 22.21,-114.8 14.22,-34.08 35.52,-62.16 47.3,-78.45 11.78,-16.32 14.05,-20.83 17.29,-134.49 3.21,-113.64 7.41,-336.4 12.56,-459.33 5.17,-122.93 11.31,-146.03 26.89,-168.71 15.57,-22.68 40.61,-44.95 53.53,-56.46 12.89,-11.51 13.72,-12.23 12.97,-10.21 -0.72,2.02 -2.96,6.8 -10.07,143.65zm-79.97 782.25c-17.76,14.05 -27.77,33.75 -31.78,58.45 -4.04,24.7 -2.1,54.41 3.07,77.34 5.17,22.9 13.55,39.06 28.88,49.21 15.32,10.18 37.59,14.36 59.39,11.45 21.8,-2.9 43.12,-12.89 57.45,-32.36 14.33,-19.45 21.71,-48.38 22.35,-75.82 0.64,-27.44 -5.42,-53.42 -18.31,-73 -12.86,-19.61 -32.59,-32.83 -55.19,-35.27 -22.6,-2.43 -48.1,5.95 -65.86,20z"/>
   <path class="fil1" d="M2872.11 2416.41c-14.61,-192.75 -41.08,-574.34 -48.82,-776.77 -7.75,-202.43 3.24,-225.67 15.19,-240.85 11.95,-15.19 24.84,-22.27 36.79,-25.84 11.95,-3.54 22.93,-3.54 32.61,3.24 9.68,6.78 18.09,20.33 22.6,38.42 4.54,18.06 5.17,40.66 -1.85,240.02 -7.03,199.36 -21.71,575.51 -29.05,765.32 -7.36,189.84 -7.36,193.41 -8.74,193.25 -1.36,-0.17 -4.09,-4.04 -18.73,-196.79z"/>
   <g>
    <path class="fil2 str0" d="M2740.61 1455.1c57.15,19.06 114.3,38.09 161.27,68.13 46.97,30.01 83.79,71.01 119.28,142.38 35.52,71.34 69.76,173.05 105.25,233.91 35.52,60.86 72.34,80.86 107.19,93.94 34.88,13.08 67.8,19.23 113.97,13.08 46.2,-6.14 105.59,-24.54 165,-42.93"/>
   </g>
  </g>
 </g>
</svg>
