<?xml version="1.0" encoding="UTF-8"?>
<!DOCTYPE svg PUBLIC "-//W3C//DTD SVG 1.1//EN" "http://www.w3.org/Graphics/SVG/1.1/DTD/svg11.dtd">
<!-- Creator: CorelDRAW -->
<svg xmlns="http://www.w3.org/2000/svg" xml:space="preserve" width="7.0536mm" height="7.0536mm" version="1.1" style="shape-rendering:geometricPrecision; text-rendering:geometricPrecision; image-rendering:optimizeQuality; fill-rule:evenodd; clip-rule:evenodd"
viewBox="0 0 45.12 45.12"
 xmlns:xlink="http://www.w3.org/1999/xlink"
 xmlns:xodm="http://www.corel.com/coreldraw/odm/2003">
 <defs>
  <style type="text/css">
   <![CDATA[
    .fil0 {fill:#333333}
   ]]>
  </style>
 </defs>
 <g id="Camada_x0020_1">
  <metadata id="CorelCorpID_0Corel-Layer"/>
  <path class="fil0" d="M22.56 0c12.46,0 22.56,10.1 22.56,22.56 0,12.46 -10.1,22.56 -22.56,22.56 -12.46,0 -22.56,-10.1 -22.56,-22.56 0,-12.46 10.1,-22.56 22.56,-22.56zm-14.03 31l0 5.59 5.47 0c0.94,-0.54 0.88,-0.81 0.87,-2.12l15.36 0c-0.02,1.54 -0.1,1.41 0.82,2.12l5.54 0 0 -5.54c-0.55,-0.7 -0.51,-0.83 -1.74,-0.83 -5.54,0.03 -4.27,-0.27 -4.66,2.58l-15.27 0c-0.34,-2.21 0.49,-2.59 -2.27,-2.58 -2.47,0.01 -3.34,-0.35 -4.11,0.78zm22.96 4.3l3.8 0 0.03 -3.81 -3.84 -0.02 0.01 3.82zm-21.69 -0l0.48 0.01 0.12 -0 2.74 0 0.45 -0.01 0.04 -0.58 -0.01 -2.74 0 -0.49 -3.84 -0.01 0.01 3.82zm20.46 -26.76l-15.41 0c-0.74,0.59 -0.78,0.52 -0.78,1.74 0.01,4.65 -0.52,4.22 3.75,4.17 0.14,1.23 -1.19,4.18 -1.67,5.08 -0.38,0.7 -1.12,1.4 -1.06,2.35 0.05,0.73 0.86,1.46 1.41,2.12l4.46 5.89c0.35,0.51 1.04,1.57 1.49,1.94 0.65,-0.17 0.92,-0.94 1.55,-1.83l4.46 -6.01c2.02,-2.5 1.88,-1.9 0.52,-4.38 -0.5,-0.9 -1.87,-3.92 -1.71,-5.16 2.72,0.03 3.7,0.37 3.73,-1.42 0.01,-0.87 -0.01,-1.75 -0,-2.63 0.01,-1.27 0.03,-1.23 -0.76,-1.87zm-8.2 10.22c-0.96,0.41 -1.27,1.15 -0.92,1.98 0.26,0.61 1.06,1.21 1.95,0.87 1.95,-0.76 0.79,-3.62 -1.03,-2.84zm-6.75 -5.55l14.41 0.03 0.05 -3.43 -14.44 0 -0.01 3.4zm6.37 14.59l0.04 -4.93c-3.59,-1.89 -1.71,-5.46 0.78,-5.5 3.39,-0.06 3.8,4.67 0.87,5.45l0.01 5 2.3 -2.89c3.23,-3.94 3.34,-2.28 1.28,-6.39 -0.5,-1 -1.16,-2.76 -1.32,-4.04l-6.13 0c-0.19,0.45 -0.73,2.45 -1.33,3.93 -0.25,0.63 -0.52,1.2 -0.86,1.76 -0.31,0.51 -0.89,1.24 -0.43,1.94l3.65 4.21c0.32,0.42 0.94,1.11 1.15,1.45z"/>
 </g>
</svg>
