<?xml version="1.0" encoding="UTF-8"?>
<!DOCTYPE svg PUBLIC "-//W3C//DTD SVG 1.1//EN" "http://www.w3.org/Graphics/SVG/1.1/DTD/svg11.dtd">
<!-- Creator: CorelDRAW -->
<svg xmlns="http://www.w3.org/2000/svg" xml:space="preserve" width="7.0421mm" height="7.0536mm" version="1.1" style="shape-rendering:geometricPrecision; text-rendering:geometricPrecision; image-rendering:optimizeQuality; fill-rule:evenodd; clip-rule:evenodd"
viewBox="0 0 28.13 28.17"
 xmlns:xlink="http://www.w3.org/1999/xlink"
 xmlns:xodm="http://www.corel.com/coreldraw/odm/2003">
 <defs>
  <style type="text/css">
   <![CDATA[
    .fil0 {fill:#333333}
   ]]>
  </style>
 </defs>
 <g id="Camada_x0020_1">
  <metadata id="CorelCorpID_0Corel-Layer"/>
  <path class="fil0" d="M15.15 21.2c3.47,0.21 4.92,-3.63 2.51,-5.03 -0.5,-0.29 -1.82,-0.8 -2.52,-0.82l0.01 5.84zm-3.1 -21c-12.93,2.25 -15.83,17.54 -6.87,24.83 2.64,2.15 6.57,3.66 10.96,3 7.07,-1.06 12.9,-7.47 11.87,-15.86 -0.85,-6.91 -7.83,-13.37 -15.96,-11.96zm0.93 4.9c-6.46,0.98 -6.3,6.32 -3.66,8.22 1.22,0.87 2.2,0.96 3.66,1.49l0.01 6.3c-2.12,-0.1 -3.5,-1.66 -3.73,-3.68l-2.24 0.01c0.06,1.84 0.76,3.15 1.78,4.12 1.37,1.32 2.12,1.23 4.19,1.82l0.03 1.32 2.05 0 0.1 -1.27c2.99,-0.54 5.9,-1.6 5.94,-5.25 0.06,-4.54 -4.91,-4.72 -5.94,-5.32l-0.03 -5.55c0.91,0.01 1.75,0.46 2.24,0.9 0.76,0.69 0.73,0.93 1.05,2.16l2.21 0.04c0.21,-1.55 -0.81,-3.01 -1.62,-3.7 -1.31,-1.11 -1.96,-1.08 -3.85,-1.6l-0.03 -1.55 -2.14 -0 -0.02 1.56zm-0 7.18l0.01 -4.98c-1.53,-0.03 -3.02,1.02 -3.08,2.47 -0.06,1.58 1.53,2.52 3.07,2.52z"/>
 </g>
</svg>
