<?xml version="1.0" encoding="UTF-8"?>
<!DOCTYPE svg PUBLIC "-//W3C//DTD SVG 1.1//EN" "http://www.w3.org/Graphics/SVG/1.1/DTD/svg11.dtd">
<!-- Creator: CorelDRAW -->
<svg xmlns="http://www.w3.org/2000/svg" xml:space="preserve" width="13.3851mm" height="9.2789mm" version="1.1" style="shape-rendering:geometricPrecision; text-rendering:geometricPrecision; image-rendering:optimizeQuality; fill-rule:evenodd; clip-rule:evenodd"
viewBox="0 0 57.32 39.73"
 xmlns:xlink="http://www.w3.org/1999/xlink"
 xmlns:xodm="http://www.corel.com/coreldraw/odm/2003">
 <defs>
  <style type="text/css">
   <![CDATA[
    .fil0 {fill:white}
   ]]>
  </style>
 </defs>
 <g id="Camada_x0020_1">
  <metadata id="CorelCorpID_0Corel-Layer"/>
  <g id="_1956972101008">
   <path class="fil0" d="M11.74 1.83c-2.36,1.88 -7.05,5.62 -9.4,7.49 -2.35,1.87 -2.35,1.87 -2.35,1.87 0,0 0,0 0.94,0.91 0.94,0.91 2.82,2.74 3.76,3.66 0.94,0.91 0.94,0.91 0.94,0.91 0,0 0,0 0.89,-0.6 0.89,-0.6 2.67,-1.8 3.56,-2.4 0.89,-0.6 0.89,-0.6 0.89,-0.6 0,0 0,0 0.01,3.01 0.01,3.01 0.03,9.04 0.06,12.11 0.03,3.07 0.08,3.17 0.18,3.32 0.09,0.15 0.23,0.36 0.4,0.53 0.17,0.17 0.37,0.3 2.93,0.41 2.56,0.1 7.47,0.17 9.97,0.16 2.5,-0.01 2.58,-0.09 2.76,-0.24 0.18,-0.14 0.45,-0.35 0.64,-0.52 0.19,-0.17 0.31,-0.3 0.36,-3.44 0.05,-3.13 0.03,-9.26 0.03,-12.33 -0.01,-3.07 -0.01,-3.07 -0.01,-3.07 0,0 0,0 0.94,0.66 0.94,0.66 2.82,1.98 3.76,2.64 0.94,0.66 0.94,0.66 0.94,0.66 0,0 0,0 0.91,-0.96 0.91,-0.96 2.74,-2.87 3.66,-3.83 0.91,-0.96 0.91,-0.96 0.91,-0.96 0,0 0,0 -2.31,-1.86 -2.31,-1.86 -6.94,-5.59 -9.25,-7.45 -2.31,-1.86 -2.31,-1.86 -2.31,-1.86 0,0 0,0 -0.06,0.43 -0.06,0.43 -0.18,1.3 -0.85,2.16 -0.67,0.87 -1.89,1.74 -3.06,2.15 -1.17,0.41 -2.29,0.36 -3.33,-0 -1.04,-0.36 -2.01,-1.04 -2.68,-1.8 -0.68,-0.76 -1.07,-1.61 -1.26,-2.14 -0.19,-0.53 -0.18,-0.74 -0.18,-0.84 -0.01,-0.1 -0.04,-0.08 -2.4,1.8z"/>
   <path class="fil0" d="M29.63 1.83c-2.36,1.88 -7.05,5.62 -9.4,7.49 -2.35,1.87 -2.35,1.87 -2.35,1.87 0,0 0,0 0.94,0.91 0.94,0.91 2.82,2.74 3.76,3.66 0.94,0.91 0.94,0.91 0.94,0.91 0,0 0,0 0.89,-0.6 0.89,-0.6 2.67,-1.8 3.56,-2.4 0.89,-0.6 0.89,-0.6 0.89,-0.6 0,0 0,0 0.01,3.01 0.01,3.01 0.03,9.04 0.06,12.11 0.03,3.07 0.08,3.17 0.18,3.32 0.09,0.15 0.23,0.36 0.4,0.53 0.17,0.17 0.37,0.3 2.93,0.41 2.56,0.1 7.47,0.17 9.97,0.16 2.5,-0.01 2.58,-0.09 2.76,-0.24 0.18,-0.14 0.45,-0.35 0.64,-0.52 0.19,-0.17 0.31,-0.3 0.36,-3.44 0.05,-3.13 0.03,-9.26 0.03,-12.33 -0.01,-3.07 -0.01,-3.07 -0.01,-3.07 0,0 0,0 0.94,0.66 0.94,0.66 2.82,1.98 3.76,2.64 0.94,0.66 0.94,0.66 0.94,0.66 0,0 0,0 0.91,-0.96 0.91,-0.96 2.74,-2.87 3.66,-3.83 0.91,-0.96 0.91,-0.96 0.91,-0.96 0,0 0,0 -2.31,-1.86 -2.31,-1.86 -6.94,-5.59 -9.25,-7.45 -2.31,-1.86 -2.31,-1.86 -2.31,-1.86 0,0 0,0 -0.06,0.43 -0.06,0.43 -0.18,1.3 -0.85,2.16 -0.67,0.87 -1.89,1.74 -3.06,2.15 -1.17,0.41 -2.29,0.36 -3.33,-0 -1.04,-0.36 -2.01,-1.04 -2.68,-1.8 -0.68,-0.76 -1.07,-1.61 -1.26,-2.14 -0.19,-0.53 -0.18,-0.74 -0.18,-0.84 -0.01,-0.1 -0.04,-0.08 -2.4,1.8z"/>
   <path class="fil0" d="M18.06 3.4c-2.79,2.22 -8.32,6.64 -11.09,8.85 -2.77,2.21 -2.77,2.21 -2.77,2.21 0,0 0,0 1.11,1.08 1.11,1.08 3.33,3.24 4.44,4.32 1.11,1.08 1.11,1.08 1.11,1.08 0,0 0,0 1.05,-0.71 1.05,-0.71 3.15,-2.13 4.2,-2.84 1.05,-0.71 1.05,-0.71 1.05,-0.71 0,0 0,0 0.01,3.56 0.01,3.56 0.03,10.68 0.07,14.29 0.04,3.62 0.1,3.74 0.21,3.92 0.11,0.18 0.27,0.42 0.47,0.62 0.2,0.2 0.44,0.36 3.46,0.48 3.02,0.12 8.82,0.2 11.76,0.19 2.95,-0.01 3.05,-0.11 3.26,-0.28 0.21,-0.17 0.53,-0.41 0.76,-0.61 0.23,-0.2 0.37,-0.36 0.43,-4.06 0.06,-3.7 0.04,-10.94 0.03,-14.55 -0.01,-3.62 -0.01,-3.62 -0.01,-3.62 0,0 0,0 1.11,0.78 1.11,0.78 3.33,2.34 4.44,3.12 1.11,0.78 1.11,0.78 1.11,0.78 0,0 0,0 1.08,-1.13 1.08,-1.13 3.24,-3.39 4.32,-4.52 1.08,-1.13 1.08,-1.13 1.08,-1.13 0,0 0,0 -2.73,-2.2 -2.73,-2.2 -8.19,-6.6 -10.92,-8.8 -2.73,-2.2 -2.73,-2.2 -2.73,-2.2 0,0 0,0 -0.07,0.51 -0.07,0.51 -0.21,1.53 -1,2.55 -0.79,1.02 -2.23,2.05 -3.61,2.54 -1.38,0.48 -2.7,0.42 -3.93,-0.01 -1.23,-0.43 -2.37,-1.23 -3.17,-2.13 -0.8,-0.9 -1.26,-1.9 -1.48,-2.52 -0.22,-0.62 -0.21,-0.87 -0.22,-0.99 -0.01,-0.12 -0.04,-0.1 -2.83,2.12z"/>
  </g>
 </g>
</svg>
