<?xml version="1.0" encoding="UTF-8"?>
<!DOCTYPE svg PUBLIC "-//W3C//DTD SVG 1.1//EN" "http://www.w3.org/Graphics/SVG/1.1/DTD/svg11.dtd">
<!-- Creator: CorelDRAW -->
<svg xmlns="http://www.w3.org/2000/svg" xml:space="preserve" width="10.4078mm" height="6.146mm" version="1.1" style="shape-rendering:geometricPrecision; text-rendering:geometricPrecision; image-rendering:optimizeQuality; fill-rule:evenodd; clip-rule:evenodd"
viewBox="0 0 44.49 26.27"
 xmlns:xlink="http://www.w3.org/1999/xlink"
 xmlns:xodm="http://www.corel.com/coreldraw/odm/2003">
 <defs>
  <style type="text/css">
   <![CDATA[
    .fil0 {fill:#333333}
   ]]>
  </style>
 </defs>
 <g id="Camada_x0020_1">
  <metadata id="CorelCorpID_0Corel-Layer"/>
  <path class="fil0" d="M16.72 4.45c-1.61,0.23 -7.3,-0.38 -8.15,0.31l-3.09 3.34c-0.37,0.41 -0.74,0.64 -1.13,1.06 -0.7,0.77 -1.24,1.56 -2.01,2.22 -1.3,1.12 -1.03,1.06 -1.07,3.21 -0.05,2.78 -0.2,5.66 -0.17,8.44l-1.11 0.11 0.2 3.15 5.87 -0.01c0.39,-7.27 9.78,-7.34 10.25,-0.06l12.47 0.06c0.07,-1.92 0.33,-2.98 1.35,-4.02 3.04,-3.1 8.69,-1.96 8.88,3.98l3.58 0.05 0.05 -7.77c1.81,-1.63 1.78,-1.37 1.78,-4.7 -0,-2.19 0,-4.39 0,-6.58 0,-1.88 0.37,-4.59 -0.65,-5.95 -1.16,-1.55 -3,-1.22 -5.33,-1.22 -1.78,0 -18.52,-0.15 -19.45,0.1 -2.08,0.55 -2.06,2.02 -2.27,4.3zm-4.95 10.72l2.91 -0.03 0.02 -1.09 -2.86 -0.04 -0.07 1.16zm4.97 4.48l25.1 0.05 0.05 -1.02 -25.14 -0 -0.01 0.97zm-12.38 -7.66l11.26 0.45 -0.01 -5.69c-0.83,-0.01 -5.59,-0.32 -6.11,-0.12 -0.42,0.16 -5.05,5.1 -5.14,5.36z"/>
 </g>
</svg>
