<?xml version="1.0" encoding="UTF-8"?>
<!DOCTYPE svg PUBLIC "-//W3C//DTD SVG 1.1//EN" "http://www.w3.org/Graphics/SVG/1.1/DTD/svg11.dtd">
<!-- Creator: CorelDRAW -->
<svg xmlns="http://www.w3.org/2000/svg" xml:space="preserve" width="10.4078mm" height="7.0536mm" version="1.1" style="shape-rendering:geometricPrecision; text-rendering:geometricPrecision; image-rendering:optimizeQuality; fill-rule:evenodd; clip-rule:evenodd"
viewBox="0 0 565.67 383.37"
 xmlns:xlink="http://www.w3.org/1999/xlink"
 xmlns:xodm="http://www.corel.com/coreldraw/odm/2003">
 <defs>
  <style type="text/css">
   <![CDATA[
    .fil0 {fill:#333333}
   ]]>
  </style>
 </defs>
 <g id="Camada_x0020_1">
  <metadata id="CorelCorpID_0Corel-Layer"/>
  <g id="_2283565344144">
   <path class="fil0" d="M212.66 56.55c-20.47,2.95 -92.83,-4.89 -103.6,3.9l-39.33 42.44c-4.77,5.19 -9.46,8.19 -14.31,13.5 -8.91,9.79 -15.81,19.81 -25.59,28.21 -16.54,14.2 -13.07,13.51 -13.57,40.76 -0.65,35.3 -2.49,71.98 -2.11,107.27l-14.15 1.36 2.57 40.06 74.65 -0.15c4.92,-92.43 124.4,-93.35 130.35,-0.76l158.51 0.83c0.88,-24.36 4.18,-37.93 17.13,-51.13 38.69,-39.47 110.43,-24.86 112.9,50.56l45.51 0.6 0.65 -98.86c22.95,-20.67 22.6,-17.46 22.58,-59.76 -0.02,-27.89 0,-55.78 0,-83.67 0,-23.93 4.65,-58.35 -8.26,-75.66 -14.71,-19.72 -38.12,-15.48 -67.75,-15.48 -22.62,0 -235.48,-1.86 -247.32,1.27 -26.48,6.99 -26.18,25.66 -28.87,54.73zm-62.9 136.33l37.06 -0.34 0.21 -13.9 -36.38 -0.53 -0.89 14.77zm63.25 56.93l319.16 0.68 0.58 -13 -319.6 -0.03 -0.14 12.34zm-157.37 -97.45l143.13 5.73 -0.07 -72.32c-10.59,-0.16 -71.04,-4.13 -77.69,-1.58 -5.4,2.08 -64.18,64.87 -65.37,68.16z"/>
   <path class="fil0" d="M128.91 278.49c-70.71,20.41 -38.16,121.36 27.83,102.55 68.05,-19.4 38.4,-121.66 -27.83,-102.55zm3.4 29.7c-31.7,12.38 -11.21,55.86 20.57,43.08 29.15,-11.72 12.35,-55.93 -20.57,-43.08z"/>
   <path class="fil0" d="M421.94 274.57c-26.78,5.41 -49.94,29 -43.16,62.69 13.7,68.05 118.27,49.12 104.67,-21.04 -4.88,-25.14 -30.11,-47.99 -61.51,-41.65zm1.52 29.92c-33.39,12.61 -12.04,55.18 18.91,43.63 29.97,-11.18 12.67,-55.55 -18.91,-43.63z"/>
  </g>
 </g>
</svg>
