<?xml version="1.0" encoding="UTF-8"?>
<!DOCTYPE svg PUBLIC "-//W3C//DTD SVG 1.1//EN" "http://www.w3.org/Graphics/SVG/1.1/DTD/svg11.dtd">
<!-- Creator: CorelDRAW -->
<svg xmlns="http://www.w3.org/2000/svg" xml:space="preserve" width="63.0205mm" height="60.4353mm" version="1.1" style="shape-rendering:geometricPrecision; text-rendering:geometricPrecision; image-rendering:optimizeQuality; fill-rule:evenodd; clip-rule:evenodd"
viewBox="0 0 3558.77 3412.79"
 xmlns:xlink="http://www.w3.org/1999/xlink"
 xmlns:xodm="http://www.corel.com/coreldraw/odm/2003">
 <defs>
  <style type="text/css">
   <![CDATA[
    .str0 {stroke:#666666;stroke-width:23.84;stroke-linecap:round;stroke-linejoin:round;stroke-miterlimit:22.9256}
    .fil0 {fill:none}
   ]]>
  </style>
 </defs>
 <g id="Camada_x0020_1">
  <metadata id="CorelCorpID_0Corel-Layer"/>
  <g>
   <path class="fil0 str0" d="M3479.05 3376.66c0,-1121.55 0,-2243.1 0,-3364.66m-85.15 48.33c28.38,-16.82 56.76,-33.64 70.95,-42.05 14.19,-8.41 14.19,-8.41 25.49,-0.53 11.3,7.88 33.9,23.65 56.5,39.42m-1038.58 3164.51c-77.19,28.51 -229.6,85.27 -411.45,118.38 -181.84,33.11 -393.12,42.57 -582.33,42.04 -189.2,-0.53 -356.33,-11.03 -519.26,-41.52 -162.93,-30.48 -321.64,-80.94 -401.01,-106.16 -79.36,-25.23 -79.36,-25.23 -79.36,-25.23 0,0 0,0 3.16,-89.87 3.15,-89.87 9.46,-269.62 31.53,-428.86 22.07,-159.25 59.91,-297.99 76.21,-452.51 16.29,-154.51 11.04,-324.8 7.36,-505.07 -3.68,-180.27 -5.78,-370.52 -15.24,-531.34 -9.46,-160.82 -26.28,-292.22 -59.39,-429.39 -33.11,-137.17 -82.51,-280.13 -118.25,-368.42 -35.74,-88.3 -57.81,-121.94 -71.48,-140.85 -13.67,-18.92 -18.92,-23.12 -19.97,-25.23 -1.06,-2.1 2.1,-2.1 104.06,-38.89 101.96,-36.79 302.72,-110.37 403.11,-147.16 100.38,-36.79 100.38,-36.79 100.38,-36.79 0,0 0,0 44.67,32.58 44.67,32.59 134.02,97.76 252.79,134.55 118.78,36.79 266.98,45.2 420.45,14.19 153.46,-31.01 312.18,-101.43 391.54,-136.65 79.36,-35.21 79.36,-35.21 79.36,-35.21 0,0 0,0 96.18,38.9 96.17,38.89 288.53,116.67 384.71,155.56 96.17,38.89 96.17,38.89 96.17,38.89 0,0 0,0 -28.9,55.71 -28.91,55.71 -86.72,167.13 -130.34,291.17 -43.62,124.04 -73.05,260.68 -90.13,441.93 -17.08,181.25 -21.8,407.12 -18.91,612.02 2.89,204.91 13.4,388.85 37.51,640.47 24.11,251.61 61.81,570.9 80.41,731.12 18.59,160.23 18.06,161.41 16.82,162.14 -1.25,0.72 -3.22,0.99 -80.42,29.5zm-2159.47 -2984.03c-55.53,93.77 -111.07,187.54 -159.86,315.89 -48.79,128.35 -90.83,291.28 -119.21,402.69 -28.38,111.42 -43.1,171.34 -50.46,201.29 -7.36,29.96 -7.36,29.96 -7.36,29.96 0,0 0,0 84.62,33.11 84.61,33.11 253.84,99.33 338.46,132.44 84.61,33.11 84.61,33.11 84.61,33.11 0,0 0,0 11.57,-37.32 11.57,-37.32 34.68,-111.95 50.07,-156.94 15.38,-45 23.02,-60.36 30.67,-75.71m2110.33 -858.56c20.5,22.99 41,45.99 88.04,139.48 47.04,93.49 120.61,257.46 170.55,401.2 49.93,143.74 76.21,267.25 89.35,329.01 13.14,61.75 13.14,61.75 13.14,61.75 0,0.01 0,0.01 -85.34,33.11 -85.34,33.11 -256.01,99.33 -341.35,132.44 -85.34,33.11 -85.34,33.11 -85.34,33.11 0,0 0,0 -16.4,-56.88 -16.4,-56.88 -49.21,-170.65 -82.02,-284.41m-1516.52 -1031.62c19.06,54.53 38.12,109.06 87.85,168.38 49.74,59.32 130.15,123.44 205.83,166.54 75.68,43.1 146.64,65.17 225.21,74.37 78.57,9.19 164.76,5.52 245.96,-22.07 81.2,-27.59 157.41,-79.1 219.16,-131.39 61.76,-52.29 109.06,-105.37 140.79,-146.57 31.72,-41.19 47.88,-70.49 64.03,-99.79m1248.73 3328.17c28.38,16.82 56.76,33.64 70.95,42.05 14.19,8.41 14.19,8.41 25.49,0.53 11.3,-7.88 33.9,-23.65 56.5,-39.42m-1175.71 -3327.12l923.95 0m-923.95 3347.32l923.95 0"/>
  </g>
 </g>
</svg>
