<?xml version="1.0" encoding="UTF-8"?>
<!DOCTYPE svg PUBLIC "-//W3C//DTD SVG 1.1//EN" "http://www.w3.org/Graphics/SVG/1.1/DTD/svg11.dtd">
<!-- Creator: CorelDRAW -->
<svg xmlns="http://www.w3.org/2000/svg" xml:space="preserve" width="61.3989mm" height="60.052mm" version="1.1" style="shape-rendering:geometricPrecision; text-rendering:geometricPrecision; image-rendering:optimizeQuality; fill-rule:evenodd; clip-rule:evenodd"
viewBox="0 0 6398.49 6258.13"
 xmlns:xlink="http://www.w3.org/1999/xlink"
 xmlns:xodm="http://www.corel.com/coreldraw/odm/2003">
 <defs>
  <style type="text/css">
   <![CDATA[
    .str0 {stroke:#666666;stroke-width:43.99;stroke-linecap:round;stroke-linejoin:round;stroke-miterlimit:22.9256}
    .fil0 {fill:none}
   ]]>
  </style>
 </defs>
 <g id="Camada_x0020_1">
  <metadata id="CorelCorpID_0Corel-Layer"/>
  <g>
   <path class="fil0 str0" d="M643.69 433.23c-102.48,173.05 -204.96,346.1 -294.99,582.95 -90.04,236.86 -167.64,537.54 -220,743.14 -52.38,205.62 -79.53,316.19 -93.11,371.47 -13.58,55.28 -13.58,55.28 -13.58,55.28 0,0 0,0 156.15,61.1 156.15,61.1 468.46,183.31 624.61,244.42 156.15,61.1 156.15,61.1 156.15,61.1 0,0 0,0 21.34,-68.86 21.33,-68.86 64.01,-206.59 92.39,-289.62 28.39,-83.03 42.5,-111.37 56.6,-139.71m4652.1 122.53l373.28 -131.35m-1069.99 -1614.8l373.28 -131.35m617.82 1564.69c56.35,14.36 112.71,28.72 140.88,35.9 28.18,7.18 28.18,7.18 28.18,7.18 0,0 0,0 21.95,-24.22 21.96,-24.22 65.86,-72.67 109.77,-121.1m-674.83 -1462.46c181.04,535.93 362.07,1071.85 543.12,1607.78m-681.19 -1440.6c46.02,-55.72 92.05,-111.45 115.06,-139.32 23.01,-27.86 23.01,-27.86 23.01,-27.86 0,0 0,0 32.07,10.9 32.06,10.91 96.19,32.73 160.31,54.54m-4129.15 -342.98c35.17,100.63 70.34,201.25 162.12,310.74 91.78,109.47 240.18,227.81 379.84,307.33 139.66,79.53 270.61,120.27 415.6,137.25 145,16.97 304.07,10.18 453.92,-40.74 149.85,-50.92 290.48,-145.97 404.45,-242.48 113.97,-96.5 201.25,-194.46 259.8,-270.48 58.56,-76.01 88.36,-130.09 118.18,-184.16m1064.94 430.63c37.83,42.44 75.66,84.87 162.47,257.39 86.81,172.52 222.6,475.12 314.74,740.39 92.13,265.26 140.63,493.19 164.88,607.16 24.25,113.96 24.24,113.96 24.24,113.96 0,0.01 0,0.01 -157.48,61.11 -157.48,61.1 -472.44,183.31 -629.93,244.41 -157.48,61.11 -157.48,61.11 -157.48,61.11 0,0 0,0 -30.27,-104.97 -30.27,-104.97 -90.82,-314.92 -151.37,-524.86m65.34 4014.27c-142.46,52.62 -423.73,157.36 -759.31,218.47 -335.58,61.1 -725.48,78.55 -1074.64,77.59 -349.16,-0.97 -657.59,-20.36 -958.25,-76.62 -300.67,-56.25 -593.58,-149.37 -740.03,-195.92 -146.46,-46.55 -146.46,-46.55 -146.46,-46.55 0,0 0,0 5.83,-165.85 5.82,-165.85 17.46,-497.56 58.19,-791.44 40.74,-293.88 110.57,-549.93 140.63,-835.08 30.07,-285.14 20.36,-599.4 13.58,-932.07 -6.79,-332.68 -10.67,-683.78 -28.13,-980.56 -3.19,-54.18 -6.83,-106.55 -11.03,-157.51l-0.01 -0.04c-18.78,-228.14 -48.61,-427.95 -98.56,-634.86 -61.1,-253.14 -152.27,-516.95 -218.23,-679.89 -65.95,-162.95 -106.68,-225.02 -131.9,-259.94 -8.65,-11.98 -15.48,-20.75 -20.79,-27.28 -10.17,-12.49 -14.8,-16.73 -16.07,-19.28 -1.94,-3.88 3.88,-3.88 192.04,-71.77 188.15,-67.89 558.66,-203.67 743.91,-271.57 185.26,-67.89 185.26,-67.89 185.26,-67.89 0,0 0,0 82.44,60.13 82.43,60.14 247.32,180.4 466.51,248.3 219.2,67.89 492.7,83.41 775.91,26.19 283.22,-57.22 576.12,-187.19 722.57,-252.17 146.46,-64.99 146.46,-64.99 146.46,-64.99 0,0 0,0 177.48,71.78 177.49,71.77 532.48,215.31 709.96,287.08 177.49,71.77 177.49,71.77 177.49,71.77 0,0 0,0 -53.35,102.8 -53.35,102.82 -160.03,308.44 -240.53,537.33 -80.5,228.9 -134.82,481.06 -166.33,815.56 -31.52,334.49 -40.25,751.3 -34.91,1129.44 5.34,378.14 24.74,717.6 69.23,1181.94 44.5,464.34 114.08,1053.55 148.39,1349.24 34.31,295.7 33.34,297.88 31.03,299.21 -2.3,1.33 -5.94,1.82 -148.4,54.44z"/>
  </g>
 </g>
</svg>
