<?xml version="1.0" encoding="UTF-8"?>
<!DOCTYPE svg PUBLIC "-//W3C//DTD SVG 1.1//EN" "http://www.w3.org/Graphics/SVG/1.1/DTD/svg11.dtd">
<!-- Creator: CorelDRAW -->
<svg xmlns="http://www.w3.org/2000/svg" xml:space="preserve" width="78.6006mm" height="71.1736mm" version="1.1" style="shape-rendering:geometricPrecision; text-rendering:geometricPrecision; image-rendering:optimizeQuality; fill-rule:evenodd; clip-rule:evenodd"
viewBox="0 0 5085.88 4605.31"
 xmlns:xlink="http://www.w3.org/1999/xlink"
 xmlns:xodm="http://www.corel.com/coreldraw/odm/2003">
 <defs>
  <style type="text/css">
   <![CDATA[
    .str0 {stroke:#666666;stroke-width:27.31;stroke-linecap:round;stroke-linejoin:round;stroke-miterlimit:22.9256}
    .fil0 {fill:none}
   ]]>
  </style>
 </defs>
 <g id="Camada_x0020_1">
  <metadata id="CorelCorpID_0Corel-Layer"/>
  <g>
   <path class="fil0 str0" d="M13.66 4591.66c1686.19,0 3372.38,0 5058.56,0m-3475.95 -1480.54c150.56,-15.66 301.11,-31.32 451.66,-41.25 150.55,-9.94 301.1,-14.15 460.1,-14.93 159,-0.78 326.45,1.88 495.31,13.45 168.86,11.56 339.13,32.04 509.41,52.51m-1143.25 378.64c16.86,-28.61 33.72,-57.21 42.16,-71.51 8.43,-14.3 8.43,-14.3 8.43,-14.3 0,0 0,0 -0.76,-0.04 -0.76,-0.04 -2.28,-0.12 -11.91,-15.32 -9.63,-15.21 -27.39,-45.54 -45.14,-75.88m338.75 172.54c-18.37,-28 -36.73,-56.01 -45.91,-69.56 -9.19,-13.55 -9.19,-12.64 -1.21,-25.29 7.98,-12.64 23.94,-38.84 39.9,-65.04m863.67 -202.5c19.12,5.42 38.24,10.84 56.16,20.55 17.92,9.71 34.62,23.71 33.93,42.56 -0.69,18.84 -18.79,42.53 -101.61,71.84 -82.82,29.31 -230.36,64.24 -389.64,88.63 -159.29,24.39 -330.31,38.24 -501.34,52.09m-1161.67 -272.8c-19.87,13.25 -39.75,26.5 -46.67,44.26 -6.92,17.76 -0.9,40.05 34.63,67.14 35.53,27.1 100.57,59.02 202.04,84.61 101.47,25.6 239.38,44.87 368.25,57.52 128.87,12.64 248.71,18.67 368.55,24.69m621.48 -3400.07c8.43,46.97 16.86,93.95 -6.63,158.98 -23.49,65.04 -78.89,148.14 -109.9,200.24 -31.01,52.09 -37.64,73.17 -40.65,105.39 -3.02,32.22 -2.41,75.58 16.56,127.37 18.97,51.79 56.31,112.01 162,165.01 105.68,52.99 279.72,98.76 411.61,133.09 131.88,34.33 221.61,57.21 302.61,97.26 81,40.05 153.26,97.26 209.27,274.61 56,177.35 95.75,474.84 124.96,686.22 29.2,211.37 47.88,336.63 64.74,479.36 16.86,142.72 31.91,302.91 40.34,406.19 8.43,103.28 10.24,149.65 16.86,189.7 6.63,40.05 18.07,73.77 31.92,143.33 13.85,69.55 30.11,174.94 44.56,360.42 14.46,185.48 27.1,451.05 29.51,639.55 2.41,188.49 -5.42,299.9 -9.34,355.61 -3.91,55.7 -3.91,55.7 -5.72,55.7 -1.81,0 -5.42,0 -65.94,0 -60.53,0 -177.95,0 -235.46,0 -57.52,0 -55.11,0 -55.71,0 -0.6,0 -4.21,0 3.91,-17.77 8.13,-17.77 28,-53.3 41.26,-87.92 13.25,-34.63 19.87,-68.35 8.73,-136.1 -11.14,-67.75 -40.05,-169.52 -75.88,-296.59 -35.83,-127.07 -78.58,-279.42 -103.28,-457.08 -24.69,-177.65 -31.32,-380.6 -34.93,-490.2 -3.61,-109.6 -4.21,-125.86 -12.35,-149.95 -8.13,-24.08 -23.79,-56 -62.93,-189.69 -39.14,-133.69 -101.77,-369.16 -134.29,-493.82 -32.52,-124.65 -34.93,-138.51 -36.13,-136.7 -1.21,1.81 -1.21,19.27 -6.33,317.36 -5.12,298.1 -15.35,876.82 -15.65,1222.19 -0.3,345.36 9.33,457.38 29.21,571.2 19.87,113.82 49.98,229.44 80.09,345.07m-2225.77 0c38.54,-109.6 77.08,-219.21 103.58,-493.21 26.5,-274.01 40.95,-712.41 39.74,-1065.31 -1.2,-352.9 -18.07,-620.28 -26.49,-753.97 -8.44,-133.69 -8.44,-133.69 -8.44,-133.69 0,0 0,0 -16.86,101.78 -16.86,101.78 -50.59,305.32 -88.53,448.65 -37.94,143.32 -80.09,226.43 -101.17,267.98 -21.08,41.55 -21.08,41.55 -21.08,41.55 0,0 0,0 2.41,76.48 2.41,76.48 7.22,229.45 -18.07,428.17 -25.29,198.73 -80.69,443.23 -120.44,601.6 -39.75,158.39 -63.84,230.65 -68.65,280.63 -4.82,49.98 9.63,77.69 24.08,107.19 14.46,29.51 28.91,60.82 36.14,76.48 7.22,15.66 7.22,15.66 7.22,15.66 0,0 0,0 -63.23,0 -63.23,0 -189.7,0 -252.93,0 -63.23,0 -63.23,0 -63.23,0 0,0 0,0 2.41,-12.05 2.41,-12.04 7.23,-36.13 16.26,-62.03 9.03,-25.9 22.28,-53.6 10.84,-171.63 -11.44,-118.03 -47.57,-326.39 -49.38,-545 -1.81,-218.6 30.72,-447.44 57.21,-583.54 26.5,-136.1 46.97,-179.46 57.21,-224.62 10.24,-45.16 10.24,-92.13 10.84,-211.97 0.6,-119.84 1.81,-312.55 25.9,-489 24.09,-176.45 71.06,-336.63 98.16,-458.88 27.1,-122.25 34.33,-206.56 49.38,-313.75 15.06,-107.19 37.94,-237.27 66.85,-325.8 28.9,-88.52 63.83,-135.49 87.32,-161.39 23.48,-25.9 35.53,-30.72 74.67,-46.37 39.15,-15.65 105.39,-42.15 193.31,-65.64 87.93,-23.49 197.53,-43.96 306.53,-69.25 109,-25.29 217.4,-55.4 285.45,-87.92 68.05,-32.52 95.75,-67.45 114.42,-125.86 18.67,-58.41 28.3,-140.31 25.29,-190.3 -3.01,-49.98 -18.67,-68.05 -38.54,-87.32 -19.87,-19.27 -43.96,-39.74 -65.04,-75.28 -21.07,-35.53 -39.14,-86.12 -48.17,-130.68 -9.03,-44.56 -9.03,-83.11 -9.03,-121.65"/>
  </g>
 </g>
</svg>
