<?xml version="1.0" encoding="UTF-8"?>
<!DOCTYPE svg PUBLIC "-//W3C//DTD SVG 1.1//EN" "http://www.w3.org/Graphics/SVG/1.1/DTD/svg11.dtd">
<!-- Creator: CorelDRAW -->
<svg xmlns="http://www.w3.org/2000/svg" xml:space="preserve" width="120.414mm" height="79.7153mm" version="1.1" style="shape-rendering:geometricPrecision; text-rendering:geometricPrecision; image-rendering:optimizeQuality; fill-rule:evenodd; clip-rule:evenodd"
viewBox="0 0 47619.54 31524.67"
 xmlns:xlink="http://www.w3.org/1999/xlink"
 xmlns:xodm="http://www.corel.com/coreldraw/odm/2003">
 <defs>
  <style type="text/css">
   <![CDATA[
    .str0 {stroke:#666666;stroke-width:79.09;stroke-miterlimit:22.9256}
    .fil0 {fill:none}
   ]]>
  </style>
 </defs>
 <g id="Camada_x0020_1">
  <metadata id="CorelCorpID_0Corel-Layer"/>
  <path class="fil0 str0" d="M39.55 39.55l47540.45 0 0 31445.58 -47540.45 0 0 -31445.58zm0 0l47540.45 0 0 6544.05 -47540.45 0 0 -6544.05zm0 11524.35l47540.45 0 0 -4980.3 -47540.45 0 0 4980.3zm0 0l47540.45 0 0 4980.3 -47540.45 0 0 -4980.3zm0 9960.6l47540.45 0 0 -4980.3 -47540.45 0 0 4980.3zm0 0l47540.45 0 0 4980.34 -47540.45 0 0 -4980.34zm0 9960.64l47540.45 0 0 -4980.3 -47540.45 0 0 4980.3zm0 -31445.58l9376.85 0 0 6544.05 -9376.85 0 0 -6544.05zm0 11524.35l9376.85 0 0 -4980.3 -9376.85 0 0 4980.3zm0 0l9376.85 0 0 4980.3 -9376.85 0 0 -4980.3zm0 9960.6l9376.85 0 0 -4980.3 -9376.85 0 0 4980.3zm0 0l9376.85 0 0 4980.34 -9376.85 0 0 -4980.34zm0 9960.64l9376.85 0 0 -4980.3 -9376.85 0 0 4980.3zm22465.07 -31445.58l-13088.22 0 0 6544.05 13088.22 0 0 -6544.05zm0 11524.35l-13088.22 0 0 -4980.3 13088.22 0 0 4980.3zm0 0l-13088.22 0 0 4980.3 13088.22 0 0 -4980.3zm0 9960.6l-13088.22 0 0 -4980.3 13088.22 0 0 4980.3zm0 0l-13088.22 0 0 4980.34 13088.22 0 0 -4980.34zm0 9960.64l-13088.22 0 0 -4980.3 13088.22 0 0 4980.3zm0 -31445.58l11837 0 0 6544.05 -11837 0 0 -6544.05zm0 11524.35l11837 0 0 -4980.3 -11837 0 0 4980.3zm0 0l11837 0 0 4980.3 -11837 0 0 -4980.3zm0 9960.6l11837 0 0 -4980.3 -11837 0 0 4980.3zm0 0l11837 0 0 4980.34 -11837 0 0 -4980.34zm0 9960.64l11837 0 0 -4980.3 -11837 0 0 4980.3zm25075.38 -31445.58l-13238.38 0 0 6544.05 13238.38 0 0 -6544.05zm0 11524.35l-13238.38 0 0 -4980.3 13238.38 0 0 4980.3zm0 0l-13238.38 0 0 4980.3 13238.38 0 0 -4980.3zm0 9960.6l-13238.38 0 0 -4980.3 13238.38 0 0 4980.3zm0 0l-13238.38 0 0 4980.34 13238.38 0 0 -4980.34zm0 9960.64l-13238.38 0 0 -4980.3 13238.38 0 0 4980.3zm-8204.37 -28915.67l146.32 36.26c-30.53,117.61 -85.5,206.99 -164.83,268.68 -79.33,61.69 -176.42,92.66 -291.18,92.66 -118.64,0 -215.25,-23.65 -289.68,-71.26 -74.51,-47.34 -130.98,-116.07 -169.73,-205.96 -38.8,-90.17 -58.33,-186.62 -58.33,-289.88 0,-112.55 21.87,-210.74 65.73,-294.62 43.94,-83.84 106.34,-147.55 187.21,-191.13 80.91,-43.54 170.01,-65.21 267.1,-65.21 110.41,0 203.15,27.45 278.09,82.61 75.26,55.13 127.66,132.44 157.16,232.18l-143.28 33.22c-25.43,-78.58 -62.68,-135.96 -111.17,-171.75 -48.56,-35.99 -109.66,-53.86 -183.38,-53.86 -84.51,0 -155.34,19.89 -212.13,59.68 -56.75,39.78 -96.81,93.41 -119.67,160.4 -23.1,67.23 -34.68,136.48 -34.68,207.74 0,91.95 13.64,172.26 40.85,240.76 27.21,68.73 69.6,119.87 127.1,153.88 57.54,33.97 119.67,50.86 186.7,50.86 81.66,0 150.51,-23.17 206.99,-69.25 56.47,-46.35 94.75,-114.84 114.8,-206zm309.97 -551.24l0 -151.07 135.57 0 0 151.07 -135.57 0zm0 930.73l0 -784.17 135.57 0 0 784.17 -135.57 0zm342.28 0l0 -784.17 121.72 0 0 111.32c58.57,-85.38 143.28,-127.93 253.97,-127.93 48.29,0 92.46,8.54 132.8,25.43 40.26,16.89 70.59,39.27 90.6,66.72 20.05,27.45 34.17,60.19 42.16,97.96 4.86,24.68 7.4,67.74 7.4,129.2l0 481.48 -135.57 0 0 -476.46c0,-54.14 -5.14,-94.67 -15.66,-121.37 -10.52,-26.69 -29.26,-48.09 -55.96,-64.22 -26.73,-15.86 -58.33,-23.93 -94.24,-23.93 -57.58,0 -107.13,17.91 -148.97,53.9 -41.84,35.75 -62.64,104.01 -62.64,204.22l0 427.85 -135.61 0zm1151.24 -118.6l18.47 117.33c-38,7.83 -72.13,11.82 -101.95,11.82 -49.04,0 -87.04,-7.55 -114.25,-22.9 -26.97,-15.34 -45.99,-35.24 -57.03,-60.19 -11.03,-24.91 -16.41,-77.31 -16.41,-157.12l0 -451.78 -100.17 0 0 -102.74 100.17 0 0 -193.9 135.57 -79.84 0 273.74 135.61 0 0 102.74 -135.61 0 0 459.33c0,38 2.33,62.44 7.2,73.28 4.63,10.84 12.34,19.38 23.1,25.94 10.84,6.29 26.22,9.57 46.23,9.57 14.91,0 34.68,-1.78 59.08,-5.3zm656.12 118.6l0 -116.58c-62.17,88.9 -146.36,133.19 -252.94,133.19 -47.02,0 -90.92,-8.82 -131.73,-26.42 -40.85,-17.88 -71.14,-40.06 -90.92,-66.75 -19.77,-26.93 -33.65,-59.68 -41.6,-98.47 -5.42,-26.18 -8.23,-67.47 -8.23,-123.86l0 -485.28 135.57 0 0 433.91c0,69.25 2.85,116.07 8.23,139.99 8.5,35 26.46,62.21 54.22,82.1 27.45,19.89 61.38,29.98 101.95,29.98 40.57,0 78.58,-10.08 114.01,-30.49 35.43,-20.41 60.62,-48.33 75.49,-83.36 14.63,-35 22.11,-86.09 22.11,-152.85l0 -419.27 135.57 0 0 784.17 -121.72 0zm333.06 0l0 -784.17 121.76 0 0 120.1c31.04,-55.64 59.79,-92.38 86.25,-110.02 26.46,-17.88 55.48,-26.69 87.08,-26.69 45.68,0 92.18,14.08 139.4,42.04l-48.29 122.63c-32.86,-18.11 -65.73,-27.17 -98.59,-27.17 -29.54,0 -56,8.78 -79.33,26.18 -23.37,17.36 -40.1,41.52 -50.11,72.53 -15.15,47.06 -22.58,98.71 -22.58,154.86l0 409.7 -135.61 0zm1036.95 -98.19c-50.3,42.04 -98.83,71.5 -145.33,88.86 -46.47,17.4 -96.3,25.94 -149.68,25.94 -87.83,0 -155.38,-20.88 -202.64,-62.96 -47.26,-41.8 -70.87,-95.43 -70.87,-160.64 0,-38.28 8.98,-73.28 26.73,-105.04 17.91,-31.72 41.33,-56.91 70.08,-76.05 29.03,-19.14 61.38,-33.73 97.6,-43.54 26.69,-6.8 67.03,-13.37 120.7,-19.89 109.39,-12.62 190.26,-27.96 241.91,-45.6 0.51,-18.11 0.75,-29.7 0.75,-34.48 0,-53.9 -12.81,-91.91 -38.52,-114.09 -34.68,-29.94 -86.29,-44.81 -154.59,-44.81 -63.95,0 -111.2,11.07 -141.5,32.98 -30.57,21.91 -52.91,60.7 -67.55,116.58l-132.48 -18.11c12.06,-55.64 31.8,-100.73 59.56,-134.97 27.76,-34.25 67.78,-60.47 120.18,-79.09 52.16,-18.39 112.98,-27.68 181.8,-27.68 68.34,0 124.06,7.79 166.93,23.65 42.63,15.9 74.19,35.51 94.24,59.44 20.05,23.93 34.17,54.14 42.39,90.68 4.35,22.66 6.64,63.43 6.64,122.12l0 176.26c0,123.15 2.85,200.98 8.46,233.96 5.42,32.98 16.73,64.46 33.18,94.67l-141.77 0c-13.64,-27.96 -22.34,-60.7 -26.22,-98.19zm-10.76 -294.66c-49.31,19.65 -123.23,36.26 -221.9,49.87 -55.96,7.83 -95.5,16.65 -118.64,26.46 -23.1,9.81 -40.81,24.16 -53.39,42.79 -12.58,18.9 -18.98,39.78 -18.98,62.96 0,35 13.56,64.46 41.09,87.91 27.45,23.41 67.51,35.24 120.18,35.24 52.08,0 98.59,-11.07 139.4,-33.5 40.57,-22.15 70.63,-52.64 89.65,-91.15 14.63,-29.98 21.83,-74.03 21.83,-132.2l0.75 -48.37zm-4035.21 1964.91l110.45 15.11c-12.22,74.55 -43.03,132.68 -92.93,174.87 -49.83,42.2 -111.28,63.16 -183.85,63.16 -90.96,0 -164.16,-29.15 -219.4,-87.52 -55.44,-58.37 -83.05,-141.89 -83.05,-250.65 0,-70.51 11.98,-132.01 35.71,-184.92 23.77,-52.68 59.95,-92.34 108.79,-118.6 48.6,-26.46 101.48,-39.67 158.82,-39.67 72.13,0 131.41,17.84 177.25,53.74 45.99,35.91 75.57,86.88 88.39,152.81l-109.19 16.37c-10.48,-43.86 -28.87,-76.84 -55.64,-99.06 -26.54,-22.07 -58.65,-33.18 -96.3,-33.18 -56.95,0 -103.22,19.93 -138.93,59.83 -35.55,40.1 -53.31,103.06 -53.31,189.55 0,87.71 17.12,151.34 51.37,191.01 34.48,39.67 79.21,59.6 134.22,59.6 44.49,0 81.55,-13.21 111.09,-39.86 29.78,-26.46 48.6,-67.39 56.51,-122.59zm206.79 239.3l0 -653.67 101.48 0 0 92.38c20.76,-31.91 48.6,-57.74 83.29,-77.04 34.64,-19.54 74.03,-29.19 118.36,-29.19 49.24,0 89.69,10.08 121.13,30.02 31.48,20.17 53.74,48.09 66.6,84.19 53.07,-76.21 121.8,-114.21 206.55,-114.21 66.36,0 117.53,17.84 153.05,53.74 35.75,35.91 53.7,91.08 53.7,165.62l0 448.14 -112.98 0 0 -411.4c0,-44.09 -3.88,-76.01 -11.11,-95.5 -7.32,-19.54 -20.56,-35.08 -40.06,-47.02 -19.26,-11.98 -41.96,-17.88 -67.86,-17.88 -47.06,0 -86.01,15.34 -117.1,45.79 -31.04,30.65 -46.43,79.53 -46.43,146.72l0 379.29 -113.02 0 0 -424.22c0,-49.12 -9.17,-86.05 -27.6,-110.61 -18.39,-24.56 -48.6,-36.98 -90.36,-36.98 -31.64,0 -61.02,8.19 -87.95,24.56 -26.97,16.37 -46.47,40.34 -58.69,72.01 -11.94,31.48 -17.95,77.04 -17.95,136.44l0 338.8 -113.02 0zm-13208.4 -1820.41l0 -1081.8 218.85 0 260.85 765.78c24.16,71.26 41.64,124.65 52.68,160.12 12.58,-39.27 32.35,-97.21 59.04,-173.49l265.52 -752.41 195.44 0 0 1081.8 -140.23 0 0 -905.02 -321.99 905.02 -131.49 0 -318.43 -921.67 0 921.67 -140.23 0zm1791.97 -98.19c-50.34,42.04 -98.87,71.5 -145.33,88.86 -46.47,17.4 -96.34,25.94 -149.72,25.94 -87.83,0 -155.34,-20.88 -202.6,-62.96 -47.26,-41.8 -70.91,-95.43 -70.91,-160.64 0,-38.28 8.98,-73.28 26.73,-105.04 17.95,-31.72 41.33,-56.91 70.12,-76.05 29.03,-19.14 61.38,-33.73 97.56,-43.54 26.69,-6.8 67.03,-13.37 120.74,-19.89 109.35,-12.62 190.26,-27.96 241.87,-45.6 0.51,-18.11 0.79,-29.7 0.79,-34.48 0,-53.9 -12.85,-91.91 -38.52,-114.09 -34.68,-29.94 -86.33,-44.81 -154.59,-44.81 -63.99,0 -111.24,11.07 -141.54,32.98 -30.57,21.91 -52.87,60.7 -67.55,116.58l-132.48 -18.11c12.06,-55.64 31.83,-100.73 59.6,-134.97 27.72,-34.25 67.78,-60.47 120.18,-79.09 52.12,-18.39 112.98,-27.68 181.8,-27.68 68.3,0 124.02,7.79 166.89,23.65 42.63,15.9 74.23,35.51 94.28,59.44 20.05,23.93 34.13,54.14 42.35,90.68 4.39,22.66 6.68,63.43 6.68,122.12l0 176.26c0,123.15 2.81,200.98 8.46,233.96 5.42,32.98 16.69,64.46 33.14,94.67l-141.73 0c-13.64,-27.96 -22.34,-60.7 -26.22,-98.19zm-10.76 -294.66c-49.35,19.65 -123.27,36.26 -221.9,49.87 -56,7.83 -95.5,16.65 -118.64,26.46 -23.13,9.81 -40.81,24.16 -53.43,42.79 -12.58,18.9 -18.98,39.78 -18.98,62.96 0,35 13.6,64.46 41.09,87.91 27.48,23.41 67.51,35.24 120.18,35.24 52.12,0 98.59,-11.07 139.4,-33.5 40.57,-22.15 70.63,-52.64 89.65,-91.15 14.67,-29.98 21.83,-74.03 21.83,-132.2l0.79 -48.37zm345.4 392.86l0 -784.17 121.72 0 0 111.32c58.53,-85.38 143.28,-127.93 253.93,-127.93 48.33,0 92.46,8.54 132.8,25.43 40.3,16.89 70.63,39.27 90.64,66.72 20.01,27.45 34.13,60.19 42.12,97.96 4.9,24.68 7.43,67.74 7.43,129.2l0 481.48 -135.61 0 0 -476.46c0,-54.14 -5.1,-94.67 -15.62,-121.37 -10.52,-26.69 -29.3,-48.09 -56,-64.22 -26.73,-15.86 -58.29,-23.93 -94.24,-23.93 -57.54,0 -107.09,17.91 -148.97,53.9 -41.8,35.75 -62.64,104.01 -62.64,204.22l0 427.85 -135.57 0zm832.02 64.98l130.94 18.11c5.42,39.78 20.8,68.77 45.99,87.16 33.61,24.4 79.61,36.74 137.9,36.74 62.64,0 111.2,-12.34 145.33,-36.74 34.17,-24.44 57.26,-58.92 69.33,-103.02 6.96,-26.93 10.28,-83.6 9.77,-169.97 -59.32,68.49 -133,102.74 -221.34,102.74 -109.9,0 -195.16,-38.8 -255.23,-116.58 -60.39,-77.55 -90.44,-170.76 -90.44,-279.28 0,-74.78 13.88,-143.79 41.33,-206.99 27.52,-63.2 67.59,-111.8 119.94,-146.32 52.4,-34.48 114.01,-51.61 184.92,-51.61 94.24,0 172.03,37.77 233.17,113.3l0 -96.69 124.77 0 0 677.16c0,122.12 -12.58,208.49 -37.96,259.35 -25.19,50.9 -65.49,91.19 -120.18,120.66 -54.97,29.46 -122.48,44.29 -202.6,44.29 -95.31,0 -172.11,-20.88 -230.64,-62.96 -58.81,-41.8 -87.04,-105 -84.99,-189.35zm110.93 -470.41c0,102.5 20.8,177.29 62.4,224.39 41.84,47.06 94,70.75 156.64,70.75 62.4,0 114.53,-23.41 156.92,-70.27 42.08,-46.82 63.12,-120.34 63.12,-220.59 0,-95.66 -21.79,-167.95 -65.21,-216.56 -43.38,-48.6 -95.74,-72.77 -156.88,-72.77 -60.35,0 -111.44,23.93 -153.84,71.78 -42.08,47.81 -63.16,118.84 -63.16,213.27zm1293.21 307.24c-50.3,42.04 -98.83,71.5 -145.33,88.86 -46.47,17.4 -96.3,25.94 -149.68,25.94 -87.83,0 -155.38,-20.88 -202.64,-62.96 -47.26,-41.8 -70.91,-95.43 -70.91,-160.64 0,-38.28 9.02,-73.28 26.77,-105.04 17.91,-31.72 41.33,-56.91 70.08,-76.05 29.03,-19.14 61.38,-33.73 97.6,-43.54 26.69,-6.8 67.03,-13.37 120.7,-19.89 109.39,-12.62 190.26,-27.96 241.91,-45.6 0.51,-18.11 0.75,-29.7 0.75,-34.48 0,-53.9 -12.81,-91.91 -38.52,-114.09 -34.68,-29.94 -86.29,-44.81 -154.59,-44.81 -63.95,0 -111.2,11.07 -141.5,32.98 -30.57,21.91 -52.91,60.7 -67.55,116.58l-132.48 -18.11c12.06,-55.64 31.8,-100.73 59.56,-134.97 27.76,-34.25 67.78,-60.47 120.18,-79.09 52.16,-18.39 112.98,-27.68 181.8,-27.68 68.34,0 124.06,7.79 166.93,23.65 42.63,15.9 74.19,35.51 94.24,59.44 20.05,23.93 34.17,54.14 42.39,90.68 4.35,22.66 6.64,63.43 6.64,122.12l0 176.26c0,123.15 2.85,200.98 8.46,233.96 5.42,32.98 16.73,64.46 33.18,94.67l-141.77 0c-13.64,-27.96 -22.34,-60.7 -26.22,-98.19zm-10.76 -294.66c-49.31,19.65 -123.23,36.26 -221.9,49.87 -55.96,7.83 -95.5,16.65 -118.64,26.46 -23.1,9.81 -40.81,24.16 -53.39,42.79 -12.58,18.9 -18.98,39.78 -18.98,62.96 0,35 13.56,64.46 41.09,87.91 27.45,23.41 67.51,35.24 120.18,35.24 52.08,0 98.59,-11.07 139.4,-33.5 40.57,-22.15 70.63,-52.64 89.65,-91.15 14.63,-29.98 21.83,-74.03 21.83,-132.2l0.75 -48.37zm-3783.5 1964.91l110.45 15.11c-12.22,74.55 -43.03,132.68 -92.89,174.87 -49.87,42.2 -111.32,63.16 -183.85,63.16 -91,0 -164.2,-29.15 -219.44,-87.52 -55.4,-58.37 -83.05,-141.89 -83.05,-250.65 0,-70.51 11.98,-132.01 35.75,-184.92 23.73,-52.68 59.91,-92.34 108.75,-118.6 48.6,-26.46 101.48,-39.67 158.82,-39.67 72.13,0 131.41,17.84 177.25,53.74 45.99,35.91 75.57,86.88 88.39,152.81l-109.15 16.37c-10.48,-43.86 -28.91,-76.84 -55.68,-99.06 -26.54,-22.07 -58.61,-33.18 -96.3,-33.18 -56.95,0 -103.18,19.93 -138.93,59.83 -35.51,40.1 -53.31,103.06 -53.31,189.55 0,87.71 17.12,151.34 51.37,191.01 34.48,39.67 79.21,59.6 134.22,59.6 44.53,0 81.55,-13.21 111.09,-39.86 29.78,-26.46 48.6,-67.39 56.51,-122.59zm206.79 239.3l0 -653.67 101.48 0 0 92.38c20.76,-31.91 48.6,-57.74 83.29,-77.04 34.64,-19.54 74.03,-29.19 118.36,-29.19 49.24,0 89.69,10.08 121.13,30.02 31.48,20.17 53.74,48.09 66.6,84.19 53.07,-76.21 121.8,-114.21 206.55,-114.21 66.36,0 117.53,17.84 153.05,53.74 35.75,35.91 53.74,91.08 53.74,165.62l0 448.14 -113.02 0 0 -411.4c0,-44.09 -3.88,-76.01 -11.11,-95.5 -7.32,-19.54 -20.56,-35.08 -40.06,-47.02 -19.26,-11.98 -41.92,-17.88 -67.86,-17.88 -47.06,0 -86.01,15.34 -117.06,45.79 -31.08,30.65 -46.47,79.53 -46.47,146.72l0 379.29 -113.02 0 0 -424.22c0,-49.12 -9.17,-86.05 -27.6,-110.61 -18.39,-24.56 -48.6,-36.98 -90.32,-36.98 -31.68,0 -61.02,8.19 -87.99,24.56 -26.97,16.37 -46.43,40.34 -58.65,72.01 -11.98,31.48 -17.99,77.04 -17.99,136.44l0 338.8 -113.02 0zm-12953.76 -1811.35l423.19 -1081.8 160.48 0 449.13 1081.8 -166.1 0 -127.66 -327.88 -464.55 0 -119.67 327.88 -154.82 0zm317.36 -444.23l375.97 0 -115.04 -299.88c-34.68,-91.19 -60.82,-166.45 -79.09,-225.89 -15.15,70.51 -35.43,139.76 -60.86,208.25l-120.97 317.52zm811.22 444.23l0 -1081.8 135.61 0 0 1081.8 -135.61 0zm639.71 -118.6l18.47 117.33c-38,7.83 -72.13,11.82 -101.95,11.82 -49.04,0 -87.04,-7.55 -114.25,-22.9 -26.97,-15.34 -45.99,-35.24 -57.03,-60.19 -11.07,-24.91 -16.41,-77.31 -16.41,-157.12l0 -451.78 -100.17 0 0 -102.74 100.17 0 0 -193.9 135.57 -79.84 0 273.74 135.61 0 0 102.74 -135.61 0 0 459.33c0,38 2.29,62.44 7.2,73.28 4.63,10.84 12.34,19.38 23.1,25.94 10.8,6.29 26.22,9.57 46.23,9.57 14.91,0 34.68,-1.78 59.08,-5.3zm656.08 118.6l0 -116.58c-62.13,88.9 -146.32,133.19 -252.94,133.19 -46.98,0 -90.88,-8.82 -131.69,-26.42 -40.85,-17.88 -71.14,-40.06 -90.92,-66.75 -19.77,-26.93 -33.65,-59.68 -41.6,-98.47 -5.42,-26.18 -8.23,-67.47 -8.23,-123.86l0 -485.28 135.57 0 0 433.91c0,69.25 2.85,116.07 8.23,139.99 8.5,35 26.46,62.21 54.22,82.1 27.45,19.89 61.38,29.98 101.95,29.98 40.57,0 78.54,-10.08 114.01,-30.49 35.43,-20.41 60.62,-48.33 75.49,-83.36 14.63,-35 22.11,-86.09 22.11,-152.85l0 -419.27 135.57 0 0 784.17 -121.76 0zm333.1 0l0 -784.17 121.72 0 0 120.1c31.08,-55.64 59.83,-92.38 86.29,-110.02 26.46,-17.88 55.48,-26.69 87.04,-26.69 45.72,0 92.22,14.08 139.44,42.04l-48.29 122.63c-32.86,-18.11 -65.73,-27.17 -98.59,-27.17 -29.54,0 -56,8.78 -79.33,26.18 -23.41,17.36 -40.1,41.52 -50.11,72.53 -15.15,47.06 -22.58,98.71 -22.58,154.86l0 409.7 -135.61 0zm1036.95 -98.19c-50.3,42.04 -98.83,71.5 -145.33,88.86 -46.47,17.4 -96.3,25.94 -149.68,25.94 -87.87,0 -155.38,-20.88 -202.64,-62.96 -47.26,-41.8 -70.91,-95.43 -70.91,-160.64 0,-38.28 9.02,-73.28 26.77,-105.04 17.91,-31.72 41.33,-56.91 70.08,-76.05 29.03,-19.14 61.38,-33.73 97.6,-43.54 26.69,-6.8 67.03,-13.37 120.7,-19.89 109.39,-12.62 190.26,-27.96 241.91,-45.6 0.51,-18.11 0.75,-29.7 0.75,-34.48 0,-53.9 -12.81,-91.91 -38.52,-114.09 -34.68,-29.94 -86.29,-44.81 -154.59,-44.81 -63.95,0 -111.2,11.07 -141.5,32.98 -30.57,21.91 -52.91,60.7 -67.55,116.58l-132.48 -18.11c12.06,-55.64 31.8,-100.73 59.56,-134.97 27.76,-34.25 67.78,-60.47 120.18,-79.09 52.12,-18.39 112.98,-27.68 181.8,-27.68 68.34,0 124.06,7.79 166.93,23.65 42.63,15.9 74.19,35.51 94.24,59.44 20.05,23.93 34.17,54.14 42.39,90.68 4.35,22.66 6.64,63.43 6.64,122.12l0 176.26c0,123.15 2.85,200.98 8.46,233.96 5.42,32.98 16.69,64.46 33.18,94.67l-141.77 0c-13.64,-27.96 -22.34,-60.7 -26.22,-98.19zm-10.76 -294.66c-49.31,19.65 -123.23,36.26 -221.9,49.87 -55.96,7.83 -95.5,16.65 -118.64,26.46 -23.1,9.81 -40.81,24.16 -53.39,42.79 -12.58,18.9 -19.02,39.78 -19.02,62.96 0,35 13.6,64.46 41.13,87.91 27.45,23.41 67.51,35.24 120.18,35.24 52.08,0 98.59,-11.07 139.4,-33.5 40.57,-22.15 70.63,-52.64 89.65,-91.15 14.63,-29.98 21.83,-74.03 21.83,-132.2l0.75 -48.37zm-3145.42 1964.91l110.45 15.11c-12.22,74.55 -43.03,132.68 -92.93,174.87 -49.83,42.2 -111.28,63.16 -183.85,63.16 -90.96,0 -164.16,-29.15 -219.4,-87.52 -55.44,-58.37 -83.05,-141.89 -83.05,-250.65 0,-70.51 11.98,-132.01 35.71,-184.92 23.77,-52.68 59.95,-92.34 108.79,-118.6 48.56,-26.46 101.44,-39.67 158.82,-39.67 72.13,0 131.41,17.84 177.21,53.74 46.03,35.91 75.57,86.88 88.43,152.81l-109.19 16.37c-10.48,-43.86 -28.87,-76.84 -55.64,-99.06 -26.54,-22.07 -58.65,-33.18 -96.3,-33.18 -56.95,0 -103.22,19.93 -138.93,59.83 -35.55,40.1 -53.35,103.06 -53.35,189.55 0,87.71 17.16,151.34 51.41,191.01 34.48,39.67 79.21,59.6 134.18,59.6 44.53,0 81.55,-13.21 111.13,-39.86 29.78,-26.46 48.6,-67.39 56.51,-122.59zm206.79 239.3l0 -653.67 101.48 0 0 92.38c20.76,-31.91 48.6,-57.74 83.29,-77.04 34.64,-19.54 74.03,-29.19 118.36,-29.19 49.24,0 89.69,10.08 121.13,30.02 31.44,20.17 53.7,48.09 66.6,84.19 53.07,-76.21 121.76,-114.21 206.55,-114.21 66.32,0 117.53,17.84 153.05,53.74 35.75,35.91 53.7,91.08 53.7,165.62l0 448.14 -112.98 0 0 -411.4c0,-44.09 -3.88,-76.01 -11.15,-95.5 -7.28,-19.54 -20.56,-35.08 -40.02,-47.02 -19.3,-11.98 -41.96,-17.88 -67.86,-17.88 -47.06,0 -86.05,15.34 -117.1,45.79 -31.04,30.65 -46.47,79.53 -46.47,146.72l0 379.29 -112.98 0 0 -424.22c0,-49.12 -9.21,-86.05 -27.64,-110.61 -18.39,-24.56 -48.56,-36.98 -90.32,-36.98 -31.64,0 -61.02,8.19 -87.95,24.56 -26.97,16.37 -46.47,40.34 -58.69,72.01 -11.98,31.48 -17.99,77.04 -17.99,136.44l0 338.8 -112.98 0zm1067.44 4086.35l-111.76 8.82c-10.08,-43.46 -24.4,-75.18 -43.03,-94.87 -30.61,-31.72 -68.49,-47.46 -113.46,-47.46 -36.19,0 -68.26,9.85 -95.9,29.58 -35.51,25.43 -63.35,62.36 -84.12,111.05 -20.56,48.92 -31.28,118.4 -32.11,208.45 27.17,-40.5 60.59,-70.75 99.97,-90.25 39.35,-19.73 80.44,-29.62 123.74,-29.62 75.34,0 139.52,27.29 192.63,81.66 52.87,54.38 79.41,124.45 79.41,210.74 0,56.67 -12.42,109.15 -37.25,157.83 -25.03,48.72 -59.08,85.86 -102.78,111.68 -43.42,25.82 -92.86,38.83 -148.1,38.83 -93.96,0 -170.8,-34.01 -230.32,-101.79 -59.28,-67.82 -89.06,-179.7 -89.06,-335.43 0,-174.24 32.98,-300.99 98.71,-380.16 57.38,-68.85 134.66,-103.26 232.02,-103.26 72.37,0 131.85,19.93 178.12,59.6 46.19,39.7 74.03,94.48 83.29,164.59zm-462.38 389.14c0,38.24 8.34,74.74 24.8,109.58 16.49,34.84 39.59,61.3 68.97,79.57 29.5,18.27 60.78,27.48 93.96,27.48 48.13,0 89.26,-18.9 123.27,-56.67 34.05,-37.77 51.17,-88.98 51.17,-153.88 0,-62.33 -16.93,-111.44 -50.5,-147.35 -33.61,-35.87 -76.44,-53.94 -128.45,-53.94 -50.94,0 -94.44,18.07 -129.95,53.94 -35.51,35.91 -53.27,82.93 -53.27,141.26zm1176.67 -389.14l-111.76 8.82c-10.08,-43.46 -24.4,-75.18 -43.03,-94.87 -30.61,-31.72 -68.49,-47.46 -113.46,-47.46 -36.15,0 -68.26,9.85 -95.9,29.58 -35.51,25.43 -63.35,62.36 -84.12,111.05 -20.56,48.92 -31.24,118.4 -32.11,208.45 27.21,-40.5 60.59,-70.75 99.97,-90.25 39.39,-19.73 80.48,-29.62 123.74,-29.62 75.34,0 139.52,27.29 192.63,81.66 52.87,54.38 79.41,124.45 79.41,210.74 0,56.67 -12.42,109.15 -37.25,157.83 -25.03,48.72 -59.08,85.86 -102.74,111.68 -43.46,25.82 -92.89,38.83 -148.14,38.83 -93.96,0 -170.8,-34.01 -230.32,-101.79 -59.28,-67.82 -89.06,-179.7 -89.06,-335.43 0,-174.24 33.02,-300.99 98.71,-380.16 57.38,-68.85 134.66,-103.26 232.06,-103.26 72.33,0 131.81,19.93 178.08,59.6 46.23,39.7 74.03,94.48 83.29,164.59zm-462.38 389.14c0,38.24 8.34,74.74 24.8,109.58 16.49,34.84 39.63,61.3 68.97,79.57 29.54,18.27 60.78,27.48 93.96,27.48 48.17,0 89.26,-18.9 123.31,-56.67 34.01,-37.77 51.17,-88.98 51.17,-153.88 0,-62.33 -16.97,-111.44 -50.54,-147.35 -33.61,-35.87 -76.44,-53.94 -128.45,-53.94 -50.94,0 -94.4,18.07 -129.95,53.94 -35.51,35.91 -53.27,82.93 -53.27,141.26zm-252.58 4591.2l-111.76 8.82c-10.08,-43.46 -24.4,-75.18 -43.03,-94.87 -30.61,-31.72 -68.46,-47.46 -113.46,-47.46 -36.15,0 -68.26,9.85 -95.9,29.58 -35.51,25.43 -63.35,62.36 -84.12,111.05 -20.56,48.92 -31.24,118.4 -32.11,208.45 27.21,-40.5 60.59,-70.75 99.97,-90.25 39.39,-19.73 80.48,-29.62 123.74,-29.62 75.34,0 139.56,27.29 192.67,81.66 52.87,54.38 79.41,124.45 79.41,210.74 0,56.67 -12.46,109.15 -37.29,157.83 -25.03,48.72 -59.08,85.86 -102.74,111.68 -43.42,25.82 -92.89,38.83 -148.14,38.83 -93.96,0 -170.76,-34.01 -230.32,-101.79 -59.28,-67.82 -89.02,-179.7 -89.02,-335.43 0,-174.24 32.98,-300.99 98.67,-380.16 57.38,-68.85 134.66,-103.26 232.06,-103.26 72.33,0 131.81,19.93 178.08,59.6 46.23,39.7 74.03,94.48 83.29,164.59zm-462.38 389.14c0,38.24 8.34,74.74 24.8,109.58 16.53,34.84 39.63,61.3 68.97,79.57 29.54,18.27 60.78,27.48 93.96,27.48 48.17,0 89.26,-18.9 123.31,-56.67 34.01,-37.77 51.17,-88.98 51.17,-153.88 0,-62.33 -16.93,-111.44 -50.54,-147.35 -33.58,-35.87 -76.4,-53.94 -128.45,-53.94 -50.94,0 -94.4,18.07 -129.95,53.94 -35.51,35.91 -53.27,82.93 -53.27,141.26zm606.45 83.13l107.88 -8.82c9.17,49.99 26.73,86.09 52.6,108.56 25.94,22.46 59.08,33.77 99.78,33.77 34.68,0 65.05,-7.75 91.39,-23.49 26.34,-15.54 47.73,-36.34 64.26,-62.56 16.45,-26.02 30.33,-61.3 41.72,-105.59 11.35,-44.29 16.89,-89.41 16.89,-135.37 0,-4.86 -0.2,-12.42 -0.63,-22.26 -22.46,35.28 -53.31,64.03 -92.26,85.86 -38.95,22.03 -81.35,32.94 -126.71,32.94 -76.01,0 -140.19,-27.09 -192.87,-81.23 -52.48,-53.94 -78.78,-125.32 -78.78,-213.91 0,-91.51 27.41,-164.99 82.42,-220.79 54.81,-55.64 123.5,-83.56 206.35,-83.56 59.48,0 114.09,15.74 163.72,47.46 49.47,31.48 86.92,76.4 112.59,134.97 25.71,58.33 38.56,142.92 38.56,253.53 0,115.24 -12.62,206.99 -38.08,275.2 -25.51,68.42 -63.59,120.26 -113.89,155.97 -50.3,35.67 -109.19,53.51 -176.81,53.51 -71.94,0 -130.58,-19.5 -176.18,-58.77 -45.36,-39.27 -72.77,-94.48 -81.94,-165.42zm461.07 -397.76c0,-63.39 -17.16,-113.78 -51.41,-150.91 -34.01,-37.17 -75.57,-55.84 -124.37,-55.84 -50.5,0 -94.2,19.93 -130.98,60.03 -37.06,40.1 -55.44,92.14 -55.44,155.97 0,57.3 17.56,103.89 52.44,139.56 35.12,35.91 78.78,53.74 130.78,53.74 52.24,0 95.07,-17.84 128.65,-53.74 33.61,-35.67 50.34,-85.42 50.34,-148.81zm-1101.53 4810.05l0 -105.79 594.62 0 0 85.66c-58.41,61.06 -116.66,142.29 -174,243.69 -57.58,101.4 -101.91,205.72 -133.35,312.97 -22.46,75.38 -37.06,158.27 -43.26,248.12l-115.56 0c1.23,-70.95 15.38,-156.8 42.59,-257.33 27.17,-100.76 65.92,-197.73 116.66,-291.14 50.7,-93.41 104.64,-172.15 161.79,-236.17l-449.49 0zm1131.7 784.64l-113.02 0 0 -705.71c-27.21,25.63 -62.96,51.02 -107.01,76.4 -44.13,25.39 -83.92,44.49 -119.07,57.11l0 -107.05c63.16,-28.99 118.4,-64.22 165.74,-105.79 47.3,-41.37 80.87,-81.47 100.57,-120.5l72.81 0 0 905.54zm-1224.2 4180.59l0 -105.79 594.62 0 0 85.66c-58.41,61.06 -116.66,142.29 -174,243.69 -57.58,101.4 -101.91,205.72 -133.35,312.97 -22.46,75.38 -37.02,158.27 -43.26,248.12l-115.56 0c1.23,-70.95 15.38,-156.8 42.59,-257.33 27.17,-100.76 65.92,-197.73 116.66,-291.14 50.7,-93.41 104.64,-172.15 161.79,-236.17l-449.49 0zm707.88 547.88l118.13 -8.82c8.78,56.47 29.11,98.87 60.82,127.42 31.64,28.32 70.39,42.59 115.99,42.59 55.01,0 101.04,-20.13 138.49,-60.23 37.25,-40.3 55.88,-93.61 55.88,-159.97 0,-63.16 -17.76,-112.91 -53.51,-149.45 -35.75,-36.5 -83.05,-54.77 -141.93,-54.77 -36.58,0 -69.36,8.19 -98.43,24.56 -28.91,16.37 -51.65,37.57 -68.34,63.59l-106.58 -15.11 88.62 -463.49 455.93 0 0 105.79 -365.81 0 -49 243.29c55.01,-38 112.79,-56.87 173.13,-56.87 80.08,0 147.71,27.29 202.72,81.86 55.01,54.57 82.61,124.69 82.61,210.31 0,81.66 -24.2,152.18 -72.53,211.57 -58.88,73.08 -139.4,109.58 -241.27,109.58 -83.44,0 -151.54,-23.1 -204.42,-69.05 -52.87,-45.99 -83.05,-106.85 -90.52,-182.82zm-528.07 4735.7c-46.9,-16.81 -81.55,-40.93 -104.24,-72.01 -22.46,-31.24 -33.85,-68.61 -33.85,-112.08 0,-65.69 24,-120.7 71.97,-165.38 48.13,-44.73 111.92,-67.19 191.8,-67.19 80.04,0 144.7,22.9 193.5,68.65 48.76,45.76 73.16,101.36 73.16,167.08 0,41.76 -11.11,78.3 -33.38,109.15 -22.26,31.04 -56.08,54.97 -101.67,71.78 56.31,18.07 98.91,47.02 128.21,87.32 29.3,40.1 44.13,87.95 44.13,143.79 0,77.04 -27.84,141.7 -83.29,194.17 -55.64,52.48 -128.65,78.7 -219.21,78.7 -90.56,0 -163.53,-26.22 -219.21,-78.93 -55.4,-52.68 -83.25,-118.36 -83.25,-197.1 0,-58.57 15.23,-107.69 45.56,-147.11 30.41,-39.7 73.68,-66.56 129.75,-80.83zm-22.46 -188.08c0,42.83 13.92,77.67 41.48,104.76 27.84,27.09 64.26,40.73 109.43,40.73 43.9,0 79.41,-13.45 106.97,-40.34 27.64,-26.85 41.37,-59.79 41.37,-98.87 0,-40.69 -14.12,-74.9 -42.59,-102.62 -28.28,-27.72 -64.03,-41.56 -107.05,-41.56 -43.46,0 -79.17,13.64 -107.45,40.73 -28.04,27.05 -42.16,59.4 -42.16,97.17zm-37.25 416.9c0,31.68 7.47,62.13 22.46,91.71 14.99,29.38 37.65,52.28 68.06,68.42 30.21,16.17 62.72,24.36 97.21,24.36 54.34,0 98.87,-17.01 133.75,-51.02 34.88,-33.97 52.24,-77.23 52.24,-129.71 0,-53.31 -17.95,-97.4 -53.7,-132.24 -35.99,-34.84 -81.35,-52.24 -135.92,-52.24 -53.51,0 -97.4,17.2 -132.09,51.61 -34.68,34.45 -52,77.47 -52,129.12zm1192.05 154.27l0 105.79 -608.74 0c-0.91,-26.65 3.64,-52.28 13.25,-77.04 15.62,-40.5 40.65,-80.6 75.14,-119.87 34.45,-39.23 83.68,-84.59 147.67,-136 99.54,-80.4 167.2,-143.99 202.52,-191.01 35.51,-47.02 53.31,-91.55 53.31,-133.51 0,-43.86 -16.06,-80.83 -48.17,-111.05 -32.07,-30.02 -74.07,-45.12 -125.64,-45.12 -54.57,0 -98.23,15.94 -131.02,47.85 -32.74,31.72 -49.24,75.77 -49.67,132.24l-115.59 -11.35c7.91,-84.79 37.89,-149.45 89.69,-193.94 52.04,-44.49 121.61,-66.75 209.16,-66.75 88.19,0 158.15,23.93 209.56,72.01 51.57,48.05 77.27,107.69 77.27,178.63 0,36.11 -7.51,71.58 -22.7,106.42 -14.99,35.04 -40.02,71.78 -74.9,110.41 -35.16,38.4 -93.13,91.51 -174.04,158.66 -67.86,55.84 -111.52,93.65 -130.82,113.58 -19.22,19.93 -35.08,39.86 -47.69,60.03l451.42 0zm11531.9 -19815.45l-112.98 0 0 -705.71c-27.21,25.63 -62.96,51.02 -107.05,76.4 -44.09,25.39 -83.92,44.49 -119.04,57.11l0 -107.05c63.16,-28.99 118.4,-64.22 165.7,-105.79 47.3,-41.37 80.91,-81.47 100.61,-120.5l72.77 0 0 905.54zm877.42 -681.35l-111.72 8.82c-10.08,-43.46 -24.4,-75.18 -43.03,-94.87 -30.61,-31.72 -68.49,-47.46 -113.46,-47.46 -36.19,0 -68.26,9.85 -95.9,29.58 -35.51,25.43 -63.35,62.36 -84.12,111.05 -20.56,48.92 -31.28,118.4 -32.11,208.45 27.17,-40.5 60.59,-70.75 99.97,-90.25 39.35,-19.73 80.44,-29.62 123.74,-29.62 75.34,0 139.52,27.29 192.63,81.66 52.87,54.38 79.41,124.45 79.41,210.74 0,56.67 -12.42,109.15 -37.25,157.83 -25.03,48.72 -59.08,85.86 -102.78,111.68 -43.42,25.82 -92.86,38.83 -148.1,38.83 -93.96,0 -170.8,-34.01 -230.32,-101.79 -59.28,-67.82 -89.06,-179.7 -89.06,-335.43 0,-174.24 32.98,-300.99 98.71,-380.16 57.38,-68.85 134.66,-103.26 232.02,-103.26 72.37,0 131.85,19.93 178.12,59.6 46.19,39.7 74.03,94.48 83.25,164.59zm-462.34 389.14c0,38.24 8.34,74.74 24.8,109.58 16.49,34.84 39.59,61.3 68.97,79.57 29.5,18.27 60.78,27.48 93.96,27.48 48.13,0 89.26,-18.9 123.27,-56.67 34.05,-37.77 51.17,-88.98 51.17,-153.88 0,-62.33 -16.93,-111.44 -50.5,-147.35 -33.61,-35.87 -76.44,-53.94 -128.45,-53.94 -50.94,0 -94.44,18.07 -129.95,53.94 -35.51,35.91 -53.27,82.93 -53.27,141.26zm-415.71 5272.55l-113.02 0 0 -705.71c-27.21,25.63 -62.96,51.02 -107.01,76.4 -44.13,25.39 -83.92,44.49 -119.04,57.11l0 -107.05c63.12,-28.99 118.4,-64.22 165.7,-105.79 47.3,-41.37 80.87,-81.47 100.57,-120.5l72.81 0 0 905.54zm464.47 -488.87c-46.9,-16.81 -81.51,-40.93 -104.24,-72.01 -22.46,-31.24 -33.81,-68.61 -33.81,-112.08 0,-65.69 24,-120.7 71.94,-165.38 48.17,-44.73 111.96,-67.19 191.8,-67.19 80.04,0 144.7,22.9 193.5,68.65 48.8,45.76 73.2,101.36 73.2,167.08 0,41.76 -11.15,78.3 -33.42,109.15 -22.23,31.04 -56.08,54.97 -101.63,71.78 56.27,18.07 98.87,47.02 128.17,87.32 29.34,40.1 44.13,87.95 44.13,143.79 0,77.04 -27.84,141.7 -83.29,194.17 -55.64,52.48 -128.65,78.7 -219.17,78.7 -90.6,0 -163.53,-26.22 -219.25,-78.93 -55.4,-52.68 -83.21,-118.36 -83.21,-197.1 0,-58.57 15.19,-107.69 45.56,-147.11 30.41,-39.7 73.64,-66.56 129.71,-80.83zm-22.46 -188.08c0,42.83 13.92,77.67 41.52,104.76 27.8,27.09 64.22,40.73 109.39,40.73 43.9,0 79.41,-13.45 107.01,-40.34 27.6,-26.85 41.33,-59.79 41.33,-98.87 0,-40.69 -14.12,-74.9 -42.59,-102.62 -28.28,-27.72 -63.99,-41.56 -107.01,-41.56 -43.46,0 -79.21,13.64 -107.49,40.73 -28.04,27.05 -42.16,59.4 -42.16,97.17zm-37.25 416.9c0,31.68 7.51,62.13 22.46,91.71 15.03,29.38 37.69,52.28 68.1,68.42 30.17,16.17 62.68,24.36 97.17,24.36 54.38,0 98.91,-17.01 133.79,-51.02 34.88,-33.97 52.2,-77.23 52.2,-129.71 0,-53.31 -17.91,-97.4 -53.7,-132.24 -35.99,-34.84 -81.35,-52.24 -135.92,-52.24 -53.51,0 -97.36,17.2 -132.05,51.61 -34.68,34.45 -52.04,77.47 -52.04,129.12zm-404.76 5240.36l-113.02 0 0 -705.71c-27.21,25.63 -62.96,51.02 -107.01,76.4 -44.13,25.39 -83.92,44.49 -119.04,57.11l0 -107.05c63.12,-28.99 118.4,-64.22 165.7,-105.79 47.3,-41.37 80.87,-81.47 100.57,-120.5l72.81 0 0 905.54zm307.16 -209.08l107.88 -8.82c9.21,49.99 26.73,86.09 52.64,108.56 25.94,22.46 59.08,33.77 99.78,33.77 34.68,0 65.05,-7.75 91.39,-23.49 26.34,-15.54 47.73,-36.34 64.22,-62.56 16.45,-26.02 30.37,-61.3 41.76,-105.59 11.31,-44.29 16.89,-89.41 16.89,-135.37 0,-4.86 -0.2,-12.42 -0.63,-22.26 -22.46,35.28 -53.31,64.03 -92.3,85.86 -38.95,22.03 -81.31,32.94 -126.71,32.94 -75.97,0 -140.15,-27.09 -192.83,-81.23 -52.48,-53.94 -78.78,-125.32 -78.78,-213.91 0,-91.51 27.41,-164.99 82.42,-220.79 54.77,-55.64 123.5,-83.56 206.35,-83.56 59.48,0 114.09,15.74 163.72,47.46 49.43,31.48 86.92,76.4 112.59,134.97 25.71,58.33 38.56,142.92 38.56,253.53 0,115.24 -12.62,206.99 -38.12,275.2 -25.47,68.42 -63.59,120.26 -113.85,155.97 -50.3,35.67 -109.19,53.51 -176.81,53.51 -71.94,0 -130.58,-19.5 -176.18,-58.77 -45.4,-39.27 -72.77,-94.48 -81.98,-165.42zm461.07 -397.76c0,-63.39 -17.12,-113.78 -51.37,-150.91 -34.01,-37.17 -75.57,-55.84 -124.37,-55.84 -50.54,0 -94.2,19.93 -130.98,60.03 -37.06,40.1 -55.44,92.14 -55.44,155.97 0,57.3 17.52,103.89 52.44,139.56 35.12,35.91 78.78,53.74 130.78,53.74 52.2,0 95.03,-17.84 128.65,-53.74 33.61,-35.67 50.3,-85.42 50.3,-148.81zm-546.26 5481.35l0 105.79 -608.78 0c-0.87,-26.65 3.64,-52.28 13.29,-77.04 15.58,-40.5 40.65,-80.6 75.14,-119.87 34.41,-39.23 83.68,-84.59 147.67,-136 99.54,-80.4 167.2,-143.99 202.48,-191.01 35.55,-47.02 53.31,-91.55 53.31,-133.51 0,-43.86 -16.02,-80.83 -48.13,-111.05 -32.11,-30.02 -74.11,-45.12 -125.68,-45.12 -54.57,0 -98.23,15.94 -130.98,47.85 -32.74,31.72 -49.24,75.77 -49.67,132.24l-115.59 -11.35c7.91,-84.79 37.85,-149.45 89.69,-193.94 52,-44.49 121.61,-66.75 209.12,-66.75 88.23,0 158.19,23.93 209.56,72.01 51.57,48.05 77.27,107.69 77.27,178.63 0,36.11 -7.51,71.58 -22.66,106.42 -14.99,35.04 -40.06,71.78 -74.94,110.41 -35.12,38.4 -93.09,91.51 -174,158.66 -67.86,55.84 -111.56,93.65 -130.82,113.58 -19.26,19.93 -35.08,39.86 -47.73,60.03l451.46 0zm122.24 -339.23c0,-106.42 11.11,-192.47 33.38,-257.53 22.46,-65.29 55.64,-115.48 99.74,-150.51 43.86,-35.04 99.34,-52.48 166.1,-52.48 49.24,0 92.5,9.65 129.95,29.19 37.21,19.5 68.06,47.65 92.02,84.39 24,36.5 42.83,81.23 56.51,133.9 13.92,52.68 20.76,123.86 20.76,213.04 0,105.83 -11.11,191.44 -33.14,256.54 -22.07,65.25 -55.25,115.44 -99.34,150.71 -43.86,35.24 -99.54,52.87 -166.77,52.87 -88.39,0 -157.95,-30.85 -208.49,-92.78 -60.59,-75.57 -90.72,-197.93 -90.72,-367.35zm115.56 0.44c0,148.42 17.56,247.05 52.87,295.77 35.35,48.88 78.97,73.24 130.78,73.24 51.81,0 95.47,-24.56 130.78,-73.48 35.35,-49.12 52.87,-147.55 52.87,-295.53 0,-148.42 -17.52,-247.05 -52.87,-295.77 -35.08,-48.88 -79.17,-73.24 -132.05,-73.24 -51.81,0 -93.33,21.63 -124.37,64.66 -38.72,54.77 -58.01,156.37 -58.01,304.35zm-234.55 5326.69l0 105.79 -608.78 0c-0.87,-26.65 3.64,-52.28 13.29,-77.04 15.58,-40.5 40.65,-80.6 75.1,-119.87 34.45,-39.23 83.68,-84.59 147.71,-136 99.54,-80.4 167.2,-143.99 202.48,-191.01 35.55,-47.02 53.31,-91.55 53.31,-133.51 0,-43.86 -16.06,-80.83 -48.13,-111.05 -32.11,-30.02 -74.11,-45.12 -125.68,-45.12 -54.57,0 -98.23,15.94 -130.98,47.85 -32.74,31.72 -49.24,75.77 -49.71,132.24l-115.56 -11.35c7.91,-84.79 37.85,-149.45 89.69,-193.94 52,-44.49 121.57,-66.75 209.12,-66.75 88.23,0 158.19,23.93 209.56,72.01 51.57,48.05 77.27,107.69 77.27,178.63 0,36.11 -7.51,71.58 -22.66,106.42 -15.03,35.04 -40.06,71.78 -74.94,110.41 -35.12,38.4 -93.13,91.51 -174,158.66 -67.9,55.84 -111.56,93.65 -130.82,113.58 -19.26,19.93 -35.12,39.86 -47.73,60.03l451.46 0zm714.29 0l0 105.79 -608.78 0c-0.87,-26.65 3.64,-52.28 13.29,-77.04 15.58,-40.5 40.65,-80.6 75.14,-119.87 34.45,-39.23 83.68,-84.59 147.67,-136 99.54,-80.4 167.2,-143.99 202.48,-191.01 35.55,-47.02 53.31,-91.55 53.31,-133.51 0,-43.86 -16.02,-80.83 -48.13,-111.05 -32.11,-30.02 -74.07,-45.12 -125.68,-45.12 -54.57,0 -98.23,15.94 -130.98,47.85 -32.74,31.72 -49.24,75.77 -49.67,132.24l-115.59 -11.35c7.91,-84.79 37.89,-149.45 89.69,-193.94 52,-44.49 121.61,-66.75 209.16,-66.75 88.19,0 158.15,23.93 209.52,72.01 51.61,48.05 77.27,107.69 77.27,178.63 0,36.11 -7.51,71.58 -22.66,106.42 -14.99,35.04 -40.06,71.78 -74.94,110.41 -35.12,38.4 -93.09,91.51 -174,158.66 -67.86,55.84 -111.56,93.65 -130.82,113.58 -19.26,19.93 -35.08,39.86 -47.73,60.03l451.46 0zm11598.18 -19817.34l0 -215.37 -399.46 0 0 -101.99 419.98 -584.38 92.46 0 0 584.38 124.57 0 0 101.99 -124.57 0 0 215.37 -112.98 0zm0 -317.36l0 -405.75 -288.33 405.75 288.33 0zm359.79 -467.28l0 -105.79 594.66 0 0 85.66c-58.45,61.06 -116.66,142.29 -174,243.69 -57.62,101.4 -101.91,205.72 -133.39,312.97 -22.46,75.38 -37.02,158.27 -43.22,248.12l-115.59 0c1.27,-70.95 15.42,-156.8 42.59,-257.33 27.21,-100.76 65.96,-197.73 116.66,-291.14 50.7,-93.41 104.68,-172.15 161.82,-236.17l-449.53 0zm-740.55 5522.52l118.13 -8.82c8.78,56.47 29.11,98.87 60.82,127.42 31.64,28.32 70.39,42.59 115.99,42.59 55.01,0 101.04,-20.13 138.49,-60.23 37.25,-40.3 55.88,-93.61 55.88,-159.97 0,-63.16 -17.76,-112.91 -53.55,-149.45 -35.71,-36.5 -83.01,-54.77 -141.89,-54.77 -36.58,0 -69.36,8.19 -98.43,24.56 -28.95,16.37 -51.65,37.57 -68.34,63.59l-106.58 -15.11 88.62 -463.49 455.93 0 0 105.79 -365.81 0 -49.04 243.29c55.01,-38 112.83,-56.87 173.17,-56.87 80.08,0 147.71,27.29 202.72,81.86 55.01,54.57 82.61,124.69 82.61,210.31 0,81.66 -24.2,152.18 -72.53,211.57 -58.88,73.08 -139.4,109.58 -241.27,109.58 -83.44,0 -151.54,-23.1 -204.42,-69.05 -52.87,-45.99 -83.09,-106.85 -90.52,-182.82zm714.29 -2.53l112.98 -15.11c13.09,62.96 34.92,108.32 65.96,136 31.04,27.72 69.13,41.56 114.29,41.56 53.51,0 98.67,-18.03 135.09,-54.14 36.38,-36.11 54.57,-80.83 54.57,-134.14 0,-50.78 -16.89,-92.78 -50.94,-125.92 -33.85,-32.98 -76.88,-49.55 -129.32,-49.55 -21.39,0 -47.93,4.19 -79.84,12.38l12.62 -96.97c7.51,0.83 13.72,1.27 18.19,1.27 48.41,0 91.63,-12.42 130.39,-36.98 38.52,-24.56 57.82,-62.33 57.82,-113.34 0,-40.5 -14.12,-74.07 -42.2,-100.76 -28.04,-26.65 -64.22,-39.86 -108.52,-39.86 -44.09,0 -80.71,13.64 -110.02,40.93 -29.34,27.29 -48.17,68.22 -56.51,122.79l-113.02 -20.13c13.92,-74.31 45.16,-132.05 94.2,-172.98 48.8,-40.93 109.82,-61.3 182.55,-61.3 50.11,0 96.38,10.48 138.49,31.68 42.39,21 74.74,49.75 97.01,86.09 22.46,36.5 33.58,75.14 33.58,116.07 0,38.83 -10.68,74.11 -31.87,105.98 -21.39,31.91 -53.07,57.3 -94.83,76.21 54.38,12.18 96.57,37.81 126.71,76.6 29.98,38.64 44.96,87.36 44.96,145.49 0,78.7 -29.3,145.65 -87.75,200.46 -58.65,54.77 -132.72,82.06 -222.21,82.06 -80.68,0 -147.67,-23.73 -200.98,-70.95 -53.51,-47.22 -83.92,-108.32 -91.39,-183.46zm-714.29 4982.83l118.13 -8.82c8.78,56.47 29.11,98.87 60.82,127.42 31.64,28.32 70.39,42.59 115.99,42.59 55.01,0 101.04,-20.13 138.49,-60.23 37.25,-40.3 55.88,-93.61 55.88,-159.97 0,-63.16 -17.76,-112.91 -53.55,-149.45 -35.71,-36.5 -83.01,-54.77 -141.89,-54.77 -36.58,0 -69.36,8.19 -98.43,24.56 -28.95,16.37 -51.65,37.57 -68.34,63.59l-106.58 -15.11 88.62 -463.49 455.93 0 0 105.79 -365.81 0 -49.04 243.29c55.01,-38 112.83,-56.87 173.17,-56.87 80.08,0 147.71,27.29 202.72,81.86 55.01,54.57 82.61,124.69 82.61,210.31 0,81.66 -24.2,152.18 -72.53,211.57 -58.88,73.08 -139.4,109.58 -241.27,109.58 -83.44,0 -151.54,-23.1 -204.42,-69.05 -52.87,-45.99 -83.09,-106.85 -90.52,-182.82zm714.29 -2.53l112.98 -15.11c13.09,62.96 34.92,108.32 65.96,136 31.04,27.72 69.13,41.56 114.29,41.56 53.51,0 98.67,-18.03 135.09,-54.14 36.38,-36.11 54.57,-80.83 54.57,-134.14 0,-50.78 -16.89,-92.78 -50.94,-125.92 -33.85,-32.98 -76.88,-49.55 -129.32,-49.55 -21.39,0 -47.93,4.19 -79.84,12.38l12.62 -96.97c7.51,0.83 13.72,1.27 18.19,1.27 48.41,0 91.63,-12.42 130.39,-36.98 38.52,-24.56 57.82,-62.33 57.82,-113.34 0,-40.5 -14.12,-74.07 -42.2,-100.76 -28.04,-26.65 -64.22,-39.86 -108.52,-39.86 -44.09,0 -80.71,13.64 -110.02,40.93 -29.34,27.29 -48.17,68.22 -56.51,122.79l-113.02 -20.13c13.92,-74.31 45.16,-132.05 94.2,-172.98 48.8,-40.93 109.82,-61.3 182.55,-61.3 50.11,0 96.38,10.48 138.49,31.68 42.39,21 74.74,49.75 97.01,86.09 22.46,36.5 33.58,75.14 33.58,116.07 0,38.83 -10.68,74.11 -31.87,105.98 -21.39,31.91 -53.07,57.3 -94.83,76.21 54.38,12.18 96.57,37.81 126.71,76.6 29.98,38.64 44.96,87.36 44.96,145.49 0,78.7 -29.3,145.65 -87.75,200.46 -58.65,54.77 -132.72,82.06 -222.21,82.06 -80.68,0 -147.67,-23.73 -200.98,-70.95 -53.51,-47.22 -83.92,-108.32 -91.39,-183.46zm-714.96 4982.83l118.13 -8.82c8.78,56.47 29.11,98.87 60.82,127.42 31.68,28.32 70.43,42.59 116.03,42.59 55.01,0 101,-20.13 138.49,-60.23 37.21,-40.3 55.84,-93.61 55.84,-159.97 0,-63.16 -17.76,-112.91 -53.51,-149.45 -35.75,-36.5 -83.05,-54.77 -141.93,-54.77 -36.58,0 -69.36,8.19 -98.43,24.56 -28.91,16.37 -51.61,37.57 -68.3,63.59l-106.62 -15.11 88.66 -463.49 455.89 0 0 105.79 -365.81 0 -49 243.29c55.01,-38 112.79,-56.87 173.17,-56.87 80.04,0 147.67,27.29 202.68,81.86 55.01,54.57 82.65,124.69 82.65,210.31 0,81.66 -24.2,152.18 -72.57,211.57 -58.88,73.08 -139.36,109.58 -241.23,109.58 -83.48,0 -151.54,-23.1 -204.42,-69.05 -52.87,-45.99 -83.09,-106.85 -90.56,-182.82zm888.33 -252.11c-46.9,-16.81 -81.55,-40.93 -104.24,-72.01 -22.46,-31.24 -33.85,-68.61 -33.85,-112.08 0,-65.69 24,-120.7 71.94,-165.38 48.17,-44.73 111.96,-67.19 191.8,-67.19 80.08,0 144.7,22.9 193.5,68.65 48.8,45.76 73.2,101.36 73.2,167.08 0,41.76 -11.11,78.3 -33.38,109.15 -22.26,31.04 -56.12,54.97 -101.67,71.78 56.31,18.07 98.87,47.02 128.21,87.32 29.3,40.1 44.09,87.95 44.09,143.79 0,77.04 -27.8,141.7 -83.25,194.17 -55.68,52.48 -128.65,78.7 -219.21,78.7 -90.56,0 -163.53,-26.22 -219.21,-78.93 -55.44,-52.68 -83.25,-118.36 -83.25,-197.1 0,-58.57 15.19,-107.69 45.56,-147.11 30.41,-39.7 73.64,-66.56 129.75,-80.83zm-22.46 -188.08c0,42.83 13.92,77.67 41.48,104.76 27.84,27.09 64.26,40.73 109.43,40.73 43.86,0 79.41,-13.45 106.97,-40.34 27.64,-26.85 41.33,-59.79 41.33,-98.87 0,-40.69 -14.08,-74.9 -42.55,-102.62 -28.28,-27.72 -64.03,-41.56 -107.05,-41.56 -43.46,0 -79.21,13.64 -107.49,40.73 -28,27.05 -42.12,59.4 -42.12,97.17zm-37.25 416.9c0,31.68 7.47,62.13 22.46,91.71 14.99,29.38 37.65,52.28 68.06,68.42 30.21,16.17 62.72,24.36 97.21,24.36 54.34,0 98.87,-17.01 133.75,-51.02 34.88,-33.97 52.24,-77.23 52.24,-129.71 0,-53.31 -17.95,-97.4 -53.74,-132.24 -35.95,-34.84 -81.31,-52.24 -135.88,-52.24 -53.51,0 -97.4,17.2 -132.09,51.61 -34.68,34.45 -52,77.47 -52,129.12zm-236.57 4559.01l-111.76 8.82c-10.08,-43.46 -24.4,-75.18 -43.03,-94.87 -30.61,-31.72 -68.49,-47.46 -113.46,-47.46 -36.15,0 -68.26,9.85 -95.9,29.58 -35.51,25.43 -63.35,62.36 -84.12,111.05 -20.56,48.92 -31.24,118.4 -32.11,208.45 27.21,-40.5 60.59,-70.75 99.97,-90.25 39.39,-19.73 80.48,-29.62 123.74,-29.62 75.34,0 139.52,27.29 192.63,81.66 52.87,54.38 79.41,124.45 79.41,210.74 0,56.67 -12.42,109.15 -37.25,157.83 -25.03,48.72 -59.08,85.86 -102.74,111.68 -43.46,25.82 -92.89,38.83 -148.14,38.83 -93.96,0 -170.8,-34.01 -230.32,-101.79 -59.28,-67.82 -89.06,-179.7 -89.06,-335.43 0,-174.24 33.02,-300.99 98.71,-380.16 57.38,-68.85 134.66,-103.26 232.06,-103.26 72.33,0 131.81,19.93 178.08,59.6 46.23,39.7 74.03,94.48 83.29,164.59zm-462.38 389.14c0,38.24 8.34,74.74 24.8,109.58 16.49,34.84 39.63,61.3 68.97,79.57 29.54,18.27 60.78,27.48 93.96,27.48 48.17,0 89.26,-18.9 123.31,-56.67 34.01,-37.77 51.17,-88.98 51.17,-153.88 0,-62.33 -16.97,-111.44 -50.54,-147.35 -33.61,-35.87 -76.44,-53.94 -128.45,-53.94 -50.94,0 -94.4,18.07 -129.95,53.94 -35.51,35.91 -53.27,82.93 -53.27,141.26zm589.72 -152.81c0,-106.42 11.15,-192.47 33.42,-257.53 22.46,-65.29 55.64,-115.48 99.74,-150.51 43.86,-35.04 99.3,-52.48 166.1,-52.48 49.24,0 92.46,9.65 129.95,29.19 37.21,19.5 68.06,47.65 92.02,84.39 24,36.5 42.83,81.23 56.47,133.9 13.92,52.68 20.8,123.86 20.8,213.04 0,105.83 -11.15,191.44 -33.18,256.54 -22.03,65.25 -55.25,115.44 -99.3,150.71 -43.9,35.24 -99.54,52.87 -166.77,52.87 -88.39,0 -157.95,-30.85 -208.49,-92.78 -60.59,-75.57 -90.76,-197.93 -90.76,-367.35zm115.59 0.44c0,148.42 17.56,247.05 52.87,295.77 35.32,48.88 78.97,73.24 130.78,73.24 51.77,0 95.47,-24.56 130.78,-73.48 35.32,-49.12 52.87,-147.55 52.87,-295.53 0,-148.42 -17.56,-247.05 -52.87,-295.77 -35.08,-48.88 -79.21,-73.24 -132.09,-73.24 -51.77,0 -93.29,21.63 -124.37,64.66 -38.72,54.77 -57.98,156.37 -57.98,304.35zm-39168.24 -25151.43l0 -954.89 -363.59 0 0 -126.9 873.62 0 0 126.9 -363.63 0 0 954.89 -146.4 0zm995.35 -98.19c-50.3,42.04 -98.83,71.5 -145.33,88.86 -46.47,17.4 -96.3,25.94 -149.68,25.94 -87.83,0 -155.34,-20.88 -202.64,-62.96 -47.26,-41.8 -70.87,-95.43 -70.87,-160.64 0,-38.28 8.98,-73.28 26.73,-105.04 17.95,-31.72 41.33,-56.91 70.08,-76.05 29.03,-19.14 61.38,-33.73 97.6,-43.54 26.69,-6.8 67.03,-13.37 120.7,-19.89 109.39,-12.62 190.26,-27.96 241.91,-45.6 0.51,-18.11 0.75,-29.7 0.75,-34.48 0,-53.9 -12.81,-91.91 -38.52,-114.09 -34.68,-29.94 -86.29,-44.81 -154.59,-44.81 -63.95,0 -111.2,11.07 -141.5,32.98 -30.57,21.91 -52.91,60.7 -67.55,116.58l-132.48 -18.11c12.06,-55.64 31.83,-100.73 59.56,-134.97 27.76,-34.25 67.78,-60.47 120.18,-79.09 52.16,-18.39 112.98,-27.68 181.8,-27.68 68.34,0 124.06,7.79 166.93,23.65 42.63,15.9 74.19,35.51 94.24,59.44 20.05,23.93 34.17,54.14 42.39,90.68 4.35,22.66 6.64,63.43 6.64,122.12l0 176.26c0,123.15 2.85,200.98 8.46,233.96 5.42,32.98 16.73,64.46 33.18,94.67l-141.77 0c-13.6,-27.96 -22.34,-60.7 -26.22,-98.19zm-10.76 -294.66c-49.31,19.65 -123.23,36.26 -221.9,49.87 -55.96,7.83 -95.5,16.65 -118.64,26.46 -23.1,9.81 -40.81,24.16 -53.39,42.79 -12.58,18.9 -18.98,39.78 -18.98,62.96 0,35 13.56,64.46 41.09,87.91 27.45,23.41 67.51,35.24 120.18,35.24 52.08,0 98.59,-11.07 139.4,-33.5 40.57,-22.15 70.63,-52.64 89.65,-91.15 14.63,-29.98 21.83,-74.03 21.83,-132.2l0.75 -48.37zm345.4 392.86l0 -784.17 121.72 0 0 110.81c24.91,-38.28 58.29,-69.25 99.89,-92.42 41.56,-23.41 88.86,-35 142.01,-35 59.08,0 107.57,12.06 145.33,35.99 37.73,24.2 64.5,57.7 79.88,101 63.67,-91.43 146.12,-136.99 247.8,-136.99 79.61,0 140.98,21.39 183.61,64.46 42.91,43.07 64.46,109.31 64.46,198.68l0 537.64 -135.61 0 0 -493.58c0,-52.87 -4.59,-91.15 -13.37,-114.57 -8.7,-23.41 -24.64,-42.04 -47.97,-56.39 -23.13,-14.36 -50.34,-21.43 -81.43,-21.43 -56.51,0 -103.26,18.39 -140.47,54.93 -37.21,36.74 -55.72,95.43 -55.72,176.02l0 455.02 -135.61 0 0 -508.92c0,-58.92 -11.03,-103.26 -33.1,-132.72 -22.11,-29.46 -58.33,-44.33 -108.4,-44.33 -38,0 -73.16,9.85 -105.55,29.46 -32.35,19.65 -55.68,48.37 -70.35,86.41 -14.39,37.77 -21.55,92.42 -21.55,163.68l0 406.42 -135.61 0zm1805.82 -98.19c-50.34,42.04 -98.87,71.5 -145.33,88.86 -46.47,17.4 -96.34,25.94 -149.72,25.94 -87.83,0 -155.34,-20.88 -202.6,-62.96 -47.26,-41.8 -70.91,-95.43 -70.91,-160.64 0,-38.28 8.98,-73.28 26.73,-105.04 17.95,-31.72 41.33,-56.91 70.12,-76.05 29.03,-19.14 61.38,-33.73 97.56,-43.54 26.69,-6.8 67.03,-13.37 120.74,-19.89 109.35,-12.62 190.26,-27.96 241.87,-45.6 0.51,-18.11 0.79,-29.7 0.79,-34.48 0,-53.9 -12.85,-91.91 -38.52,-114.09 -34.68,-29.94 -86.33,-44.81 -154.59,-44.81 -63.99,0 -111.24,11.07 -141.54,32.98 -30.57,21.91 -52.87,60.7 -67.55,116.58l-132.48 -18.11c12.06,-55.64 31.83,-100.73 59.6,-134.97 27.72,-34.25 67.78,-60.47 120.18,-79.09 52.12,-18.39 112.98,-27.68 181.8,-27.68 68.3,0 124.02,7.79 166.89,23.65 42.63,15.9 74.23,35.51 94.28,59.44 20.05,23.93 34.13,54.14 42.35,90.68 4.39,22.66 6.68,63.43 6.68,122.12l0 176.26c0,123.15 2.81,200.98 8.46,233.96 5.42,32.98 16.69,64.46 33.14,94.67l-141.73 0c-13.64,-27.96 -22.34,-60.7 -26.22,-98.19zm-10.76 -294.66c-49.35,19.65 -123.27,36.26 -221.9,49.87 -56,7.83 -95.5,16.65 -118.64,26.46 -23.13,9.81 -40.81,24.16 -53.43,42.79 -12.58,18.9 -18.98,39.78 -18.98,62.96 0,35 13.6,64.46 41.09,87.91 27.48,23.41 67.51,35.24 120.18,35.24 52.12,0 98.59,-11.07 139.4,-33.5 40.57,-22.15 70.63,-52.64 89.65,-91.15 14.67,-29.98 21.83,-74.03 21.83,-132.2l0.79 -48.37zm345.4 392.86l0 -784.17 121.72 0 0 111.32c58.53,-85.38 143.28,-127.93 253.93,-127.93 48.33,0 92.46,8.54 132.8,25.43 40.3,16.89 70.63,39.27 90.64,66.72 20.01,27.45 34.13,60.19 42.12,97.96 4.9,24.68 7.43,67.74 7.43,129.2l0 481.48 -135.61 0 0 -476.46c0,-54.14 -5.1,-94.67 -15.62,-121.37 -10.52,-26.69 -29.3,-48.09 -56,-64.22 -26.73,-15.86 -58.29,-23.93 -94.24,-23.93 -57.54,0 -107.09,17.91 -148.97,53.9 -41.8,35.75 -62.64,104.01 -62.64,204.22l0 427.85 -135.57 0zm856.93 0l0 -1081.8 135.57 0 0 389.3c62.92,-72.29 142.25,-108.28 238.31,-108.28 58.81,0 109.9,11.31 153.6,34.25 43.38,22.9 74.43,54.38 93.17,94.67 18.78,40.3 28,98.99 28,175.51l0 496.35 -135.57 0 0 -495.84c0,-66.24 -14.67,-114.57 -43.66,-144.78 -29.26,-30.21 -70.35,-45.36 -123.82,-45.36 -39.78,0 -77.23,10.08 -112.47,30.49 -35.16,20.41 -60.07,48.09 -75.22,83.09 -14.91,34.76 -22.34,82.85 -22.34,144.31l0 428.09 -135.57 0zm806.08 -392.06c0,-144.82 41.09,-252.07 123.54,-321.83 68.53,-57.94 152.53,-86.88 251.4,-86.88 109.66,0 199.51,35.24 269.35,105.75 69.6,70.27 104.52,167.72 104.52,291.85 0,100.73 -15.38,179.82 -46.19,237.48 -30.81,57.66 -75.77,102.5 -134.81,134.46 -58.81,31.99 -123.31,47.85 -192.87,47.85 -112,0 -202.36,-35 -271.45,-105.23 -69.09,-70.27 -103.49,-171.51 -103.49,-303.44zm138.65 0.24c0,100.21 22.34,175.27 67.03,224.86 44.96,49.87 101.2,74.78 169.26,74.78 67.27,0 123.23,-24.91 168.19,-75.02 44.65,-50.11 66.99,-126.43 66.99,-228.9 0,-96.73 -22.58,-170.01 -67.51,-219.6 -44.96,-49.87 -100.92,-74.78 -167.68,-74.78 -68.06,0 -124.29,24.68 -169.26,74.27 -44.69,49.63 -67.03,124.41 -67.03,224.39zm-2864 6072.3l0 -901.74 347.22 0c60.98,0 107.65,2.93 139.99,8.58 45.16,7.36 83.05,21.43 113.66,42 30.61,20.76 55.25,49.75 73.87,86.88 18.59,37.17 27.84,78.1 27.84,122.79 0,76.4 -24.87,141.26 -74.74,194.17 -49.63,53.11 -139.8,79.57 -269.91,79.57l-235.9 0 0 367.74 -122.04 0zm122.04 -473.53l237.56 0c78.82,0 134.46,-14.28 167.64,-43.07 32.98,-28.75 49.47,-69.05 49.47,-121.33 0,-37.57 -9.65,-69.88 -29.11,-96.73 -19.5,-26.89 -45.2,-44.73 -76.88,-53.35 -20.52,-5.22 -58.45,-7.95 -113.46,-7.95l-235.22 0 0 322.42zm-209.36 5453.83l0 -901.74 182.35 0 217.51 638.32c20.09,59.4 34.64,103.89 43.9,133.47 10.48,-32.74 26.93,-80.99 49.2,-144.62l221.34 -627.17 162.89 0 0 901.74 -116.86 0 0 -754.39 -268.44 754.39 -109.62 0 -265.4 -768.27 0 768.27 -116.86 0zm474.56 4626.4l0 -105.79 389.18 0 0 334.17c-59.72,46.59 -121.41,81.86 -184.96,105.35 -63.59,23.53 -128.88,35.28 -195.68,35.28 -90.32,0 -172.3,-18.9 -246.14,-56.87 -73.68,-37.81 -129.52,-92.78 -166.97,-164.36 -37.69,-71.82 -56.51,-151.98 -56.51,-240.36 0,-87.71 18.63,-169.58 56.12,-245.78 37.41,-76.01 91.15,-132.44 161.39,-169.18 70.2,-36.98 151.11,-55.44 242.74,-55.44 66.32,0 126.51,10.52 180.21,31.72 53.7,21.2 95.9,50.58 126.31,88.15 30.61,37.81 53.7,87.12 69.56,147.79l-109.82 29.38c-13.92,-45.76 -31.04,-81.86 -51.37,-108.32 -20.56,-26.22 -49.67,-47.22 -87.75,-62.96 -37.93,-15.74 -80.08,-23.73 -126.51,-23.73 -55.44,0 -103.41,8.38 -144.11,24.99 -40.46,16.57 -72.92,38.4 -98.04,65.69 -24.8,27.09 -44.05,56.87 -57.78,89.22 -23.33,56.04 -35.08,116.5 -35.08,181.76 0,80.64 14.12,147.98 42.16,202.36 28.24,54.18 69.33,94.48 123.11,120.7 53.9,26.26 111.05,39.47 171.63,39.47 52.68,0 104.05,-10.08 154.11,-30.02 50.11,-20.17 88.03,-41.37 113.89,-64.22l0 -168.98 -269.71 0zm-499.59 4980.34l0 -105.79 389.18 0 0 334.17c-59.72,46.59 -121.37,81.86 -184.92,105.35 -63.63,23.53 -128.92,35.28 -195.68,35.28 -90.36,0 -172.34,-18.9 -246.18,-56.87 -73.64,-37.81 -129.52,-92.78 -166.97,-164.36 -37.65,-71.82 -56.51,-151.98 -56.51,-240.36 0,-87.71 18.67,-169.58 56.12,-245.78 37.41,-76.01 91.19,-132.44 161.39,-169.18 70.2,-36.98 151.11,-55.44 242.74,-55.44 66.36,0 126.51,10.52 180.21,31.72 53.74,21.2 95.9,50.58 126.31,88.15 30.61,37.81 53.74,87.12 69.56,147.79l-109.78 29.38c-13.92,-45.76 -31.08,-81.86 -51.41,-108.32 -20.56,-26.22 -49.67,-47.22 -87.75,-62.96 -37.89,-15.74 -80.08,-23.73 -126.51,-23.73 -55.44,0 -103.37,8.38 -144.07,24.99 -40.46,16.57 -72.96,38.4 -98.04,65.69 -24.84,27.09 -44.09,56.87 -57.82,89.22 -23.29,56.04 -35.08,116.5 -35.08,181.76 0,80.64 14.12,147.98 42.2,202.36 28.24,54.18 69.33,94.48 123.07,120.7 53.94,26.26 111.09,39.47 171.63,39.47 52.68,0 104.05,-10.08 154.15,-30.02 50.07,-20.17 87.99,-41.37 113.89,-64.22l0 -168.98 -269.75 0zm999.03 0l0 -105.79 389.18 0 0 334.17c-59.72,46.59 -121.37,81.86 -184.96,105.35 -63.59,23.53 -128.88,35.28 -195.68,35.28 -90.32,0 -172.3,-18.9 -246.14,-56.87 -73.64,-37.81 -129.52,-92.78 -166.97,-164.36 -37.69,-71.82 -56.51,-151.98 -56.51,-240.36 0,-87.71 18.63,-169.58 56.12,-245.78 37.41,-76.01 91.15,-132.44 161.39,-169.18 70.2,-36.98 151.11,-55.44 242.74,-55.44 66.32,0 126.51,10.52 180.21,31.72 53.74,21.2 95.9,50.58 126.31,88.15 30.61,37.81 53.7,87.12 69.56,147.79l-109.82 29.38c-13.88,-45.76 -31.04,-81.86 -51.37,-108.32 -20.56,-26.22 -49.67,-47.22 -87.75,-62.96 -37.89,-15.74 -80.08,-23.73 -126.51,-23.73 -55.44,0 -103.41,8.38 -144.07,24.99 -40.46,16.57 -72.96,38.4 -98.08,65.69 -24.8,27.09 -44.05,56.87 -57.78,89.22 -23.29,56.04 -35.08,116.5 -35.08,181.76 0,80.64 14.12,147.98 42.2,202.36 28.2,54.18 69.33,94.48 123.07,120.7 53.9,26.26 111.05,39.47 171.63,39.47 52.68,0 104.05,-10.08 154.15,-30.02 50.07,-20.17 87.99,-41.37 113.85,-64.22l0 -168.98 -269.71 0zm-1800.6 5334.2l0 -901.74 663.99 0 0 105.79 -541.99 0 0 277.06 507.3 0 0 105.79 -507.3 0 0 307.32 563.82 0 0 105.79 -685.82 0zm760.76 0l355.33 -467.88 -312.93 -433.87 144.9 0 167.6 230.68c34.92,47.85 59.08,84.39 73,109.78 20.76,-31.48 45.16,-65.09 73.24,-100.57l183.65 -239.89 133.35 0 -319.42 428.61 343.82 473.14 -149.41 0 -232.06 -321.59c-13.29,-18.23 -25.9,-36.5 -37.69,-54.57 -20.56,30.25 -35.12,51.45 -44.09,63.39l-233.09 312.77 -146.2 0zm1380.25 -353.9l0 -105.79 389.14 0 0 334.17c-59.72,46.59 -121.37,81.86 -184.92,105.35 -63.63,23.53 -128.92,35.28 -195.68,35.28 -90.36,0 -172.34,-18.9 -246.18,-56.87 -73.64,-37.81 -129.48,-92.78 -166.97,-164.36 -37.65,-71.82 -56.51,-151.98 -56.51,-240.36 0,-87.71 18.67,-169.58 56.12,-245.78 37.41,-76.01 91.19,-132.44 161.39,-169.18 70.23,-36.98 151.11,-55.44 242.74,-55.44 66.36,0 126.51,10.52 180.21,31.72 53.74,21.2 95.94,50.58 126.31,88.15 30.61,37.81 53.74,87.12 69.6,147.79l-109.82 29.38c-13.92,-45.76 -31.08,-81.86 -51.41,-108.32 -20.56,-26.22 -49.67,-47.22 -87.75,-62.96 -37.89,-15.74 -80.08,-23.73 -126.51,-23.73 -55.44,0 -103.37,8.38 -144.07,24.99 -40.46,16.57 -72.96,38.4 -98.04,65.69 -24.8,27.09 -44.09,56.87 -57.82,89.22 -23.29,56.04 -35.08,116.5 -35.08,181.76 0,80.64 14.12,147.98 42.2,202.36 28.24,54.18 69.33,94.48 123.07,120.7 53.94,26.26 111.09,39.47 171.63,39.47 52.68,0 104.05,-10.08 154.15,-30.02 50.11,-20.17 87.99,-41.37 113.89,-64.22l0 -168.98 -269.71 0z"/>
 </g>
</svg>
