<?xml version="1.0" encoding="UTF-8"?>
<!DOCTYPE svg PUBLIC "-//W3C//DTD SVG 1.1//EN" "http://www.w3.org/Graphics/SVG/1.1/DTD/svg11.dtd">
<!-- Creator: CorelDRAW -->
<svg xmlns="http://www.w3.org/2000/svg" xml:space="preserve" width="120.414mm" height="79.7153mm" version="1.1" style="shape-rendering:geometricPrecision; text-rendering:geometricPrecision; image-rendering:optimizeQuality; fill-rule:evenodd; clip-rule:evenodd"
viewBox="0 0 47317.13 31324.48"
 xmlns:xlink="http://www.w3.org/1999/xlink"
 xmlns:xodm="http://www.corel.com/coreldraw/odm/2003">
 <defs>
  <style type="text/css">
   <![CDATA[
    .str0 {stroke:#666666;stroke-width:78.59;stroke-miterlimit:22.9256}
    .fil0 {fill:none}
   ]]>
  </style>
 </defs>
 <g id="Camada_x0020_1">
  <metadata id="CorelCorpID_0Corel-Layer"/>
  <path class="fil0 str0" d="M39.3 39.3l47238.54 0 0 31245.89 -47238.54 0 0 -31245.89zm0 0l47238.54 0 0 6502.49 -47238.54 0 0 -6502.49zm0 11451.16l47238.54 0 0 -4948.67 -47238.54 0 0 4948.67zm0 0l47238.54 0 0 4948.67 -47238.54 0 0 -4948.67zm0 9897.34l47238.54 0 0 -4948.67 -47238.54 0 0 4948.67zm0 0l47238.54 0 0 4948.71 -47238.54 0 0 -4948.71zm0 9897.38l47238.54 0 0 -4948.67 -47238.54 0 0 4948.67zm0 -31245.89l9317.3 0 0 6502.49 -9317.3 0 0 -6502.49zm0 11451.16l9317.3 0 0 -4948.67 -9317.3 0 0 4948.67zm0 0l9317.3 0 0 4948.67 -9317.3 0 0 -4948.67zm0 9897.34l9317.3 0 0 -4948.67 -9317.3 0 0 4948.67zm0 0l9317.3 0 0 4948.71 -9317.3 0 0 -4948.71zm0 9897.38l9317.3 0 0 -4948.67 -9317.3 0 0 4948.67zm22322.4 -31245.89l-13005.1 0 0 6502.49 13005.1 0 0 -6502.49zm0 11451.16l-13005.1 0 0 -4948.67 13005.1 0 0 4948.67zm0 0l-13005.1 0 0 4948.67 13005.1 0 0 -4948.67zm0 9897.34l-13005.1 0 0 -4948.67 13005.1 0 0 4948.67zm0 0l-13005.1 0 0 4948.71 13005.1 0 0 -4948.71zm0 9897.38l-13005.1 0 0 -4948.67 13005.1 0 0 4948.67zm0 -31245.89l11761.83 0 0 6502.49 -11761.83 0 0 -6502.49zm0 11451.16l11761.83 0 0 -4948.67 -11761.83 0 0 4948.67zm0 0l11761.83 0 0 4948.67 -11761.83 0 0 -4948.67zm0 9897.34l11761.83 0 0 -4948.67 -11761.83 0 0 4948.67zm0 0l11761.83 0 0 4948.71 -11761.83 0 0 -4948.71zm0 9897.38l11761.83 0 0 -4948.67 -11761.83 0 0 4948.67zm24916.14 -31245.89l-13154.31 0 0 6502.49 13154.31 0 0 -6502.49zm0 11451.16l-13154.31 0 0 -4948.67 13154.31 0 0 4948.67zm0 0l-13154.31 0 0 4948.67 13154.31 0 0 -4948.67zm0 9897.34l-13154.31 0 0 -4948.67 13154.31 0 0 4948.67zm0 0l-13154.31 0 0 4948.71 13154.31 0 0 -4948.71zm0 9897.38l-13154.31 0 0 -4948.67 13154.31 0 0 4948.67zm-8152.27 -28732.04l145.39 36.03c-30.34,116.86 -84.92,205.67 -163.78,266.97 -78.83,61.3 -175.3,92.07 -289.33,92.07 -117.89,0 -213.89,-23.5 -287.84,-70.81 -74.03,-47.04 -130.15,-115.33 -168.66,-204.65 -38.55,-89.59 -57.96,-185.44 -57.96,-288.04 0,-111.83 21.73,-209.41 65.31,-292.75 43.66,-83.31 105.67,-146.61 186.02,-189.91 80.4,-43.26 168.93,-64.8 265.4,-64.8 109.71,0 201.86,27.27 276.33,82.09 74.78,54.78 126.85,131.6 156.16,230.7l-142.37 33.01c-25.27,-78.08 -62.28,-135.1 -110.46,-170.66 -48.25,-35.76 -108.97,-53.52 -182.21,-53.52 -83.97,0 -154.35,19.77 -210.78,59.3 -56.39,39.53 -96.2,92.82 -118.91,159.38 -22.95,66.8 -34.46,135.61 -34.46,206.42 0,91.36 13.56,171.17 40.59,239.23 27.04,68.3 69.16,119.1 126.3,152.9 57.17,33.75 118.91,50.53 185.51,50.53 81.15,0 149.56,-23.03 205.67,-68.81 56.11,-46.05 94.15,-114.11 114.07,-204.69zm308 -547.74l0 -150.11 134.7 0 0 150.11 -134.7 0zm0 924.82l0 -779.19 134.7 0 0 779.19 -134.7 0zm340.1 0l0 -779.19 120.95 0 0 110.62c58.2,-84.84 142.37,-127.12 252.36,-127.12 47.98,0 91.87,8.49 131.95,25.27 40.04,16.78 70.14,39.02 90.03,66.29 19.92,27.27 33.95,59.81 41.89,97.33 4.83,24.52 7.39,67.31 7.39,128.38l0 478.42 -134.74 0 0 -473.43c0,-53.8 -5.07,-94.07 -15.56,-120.6 -10.45,-26.52 -29.08,-47.78 -55.6,-63.82 -26.56,-15.76 -57.96,-23.77 -93.64,-23.77 -57.21,0 -106.45,17.8 -148.03,53.56 -41.57,35.52 -62.24,103.35 -62.24,202.92l0 425.14 -134.74 0zm1143.93 -117.85l18.35 116.59c-37.76,7.78 -71.67,11.75 -101.3,11.75 -48.73,0 -86.49,-7.51 -113.52,-22.75 -26.8,-15.25 -45.7,-35.01 -56.66,-59.81 -10.96,-24.76 -16.31,-76.82 -16.31,-156.12l0 -448.91 -99.54 0 0 -102.09 99.54 0 0 -192.67 134.7 -79.34 0 272 134.74 0 0 102.09 -134.74 0 0 456.42c0,37.76 2.32,62.05 7.15,72.81 4.6,10.77 12.26,19.25 22.95,25.78 10.77,6.25 26.05,9.51 45.94,9.51 14.81,0 34.46,-1.77 58.71,-5.27zm651.95 117.85l0 -115.84c-61.77,88.34 -145.43,132.35 -251.33,132.35 -46.68,0 -90.34,-8.76 -130.89,-26.25 -40.59,-17.76 -70.69,-39.81 -90.34,-66.33 -19.65,-26.76 -33.44,-59.3 -41.34,-97.85 -5.38,-26.01 -8.17,-67.04 -8.17,-123.07l0 -482.19 134.7 0 0 431.15c0,68.81 2.83,115.33 8.21,139.11 8.41,34.78 26.25,61.81 53.83,81.58 27.31,19.77 60.99,29.79 101.3,29.79 40.32,0 78.08,-10.02 113.29,-30.3 35.21,-20.28 60.24,-48.02 75.01,-82.83 14.54,-34.78 21.97,-85.55 21.97,-151.88l0 -416.61 134.7 0 0 779.19 -120.95 0zm330.95 0l0 -779.19 120.99 0 0 119.34c30.85,-55.29 59.41,-91.79 85.7,-109.32 26.29,-17.76 55.13,-26.52 86.53,-26.52 45.39,0 91.6,13.99 138.52,41.77l-47.98 121.86c-32.65,-18 -65.31,-27 -97.96,-27 -29.35,0 -55.64,8.72 -78.83,26.01 -23.22,17.25 -39.85,41.26 -49.79,72.07 -15.05,46.76 -22.44,98.08 -22.44,153.88l0 407.1 -134.74 0zm1030.37 -97.57c-49.98,41.77 -98.2,71.05 -144.41,88.3 -46.17,17.29 -95.68,25.78 -148.73,25.78 -87.28,0 -154.39,-20.75 -201.35,-62.56 -46.96,-41.54 -70.42,-94.82 -70.42,-159.62 0,-38.04 8.92,-72.81 26.56,-104.37 17.8,-31.51 41.06,-56.55 69.63,-75.57 28.84,-19.02 60.99,-33.52 96.98,-43.26 26.52,-6.76 66.61,-13.28 119.93,-19.77 108.69,-12.54 189.05,-27.78 240.37,-45.31 0.51,-18 0.75,-29.51 0.75,-34.27 0,-53.56 -12.73,-91.32 -38.27,-113.37 -34.46,-29.75 -85.74,-44.52 -153.61,-44.52 -63.54,0 -110.5,11 -140.6,32.77 -30.38,21.77 -52.58,60.32 -67.12,115.84l-131.64 -18c11.99,-55.29 31.63,-100.09 59.18,-134.12 27.59,-34.03 67.35,-60.08 119.42,-78.59 51.83,-18.27 112.27,-27.51 180.64,-27.51 67.9,0 123.27,7.74 165.87,23.5 42.36,15.8 73.72,35.29 93.64,59.06 19.92,23.77 33.95,53.8 42.12,90.1 4.32,22.52 6.6,63.03 6.6,121.34l0 175.14c0,122.37 2.83,199.7 8.41,232.47 5.38,32.77 16.62,64.05 32.97,94.07l-140.87 0c-13.56,-27.78 -22.2,-60.32 -26.05,-97.57zm-10.69 -292.79c-49,19.53 -122.44,36.03 -220.49,49.55 -55.6,7.78 -94.9,16.54 -117.89,26.29 -22.95,9.75 -40.55,24.01 -53.05,42.52 -12.5,18.78 -18.86,39.53 -18.86,62.56 0,34.78 13.48,64.05 40.83,87.35 27.27,23.26 67.08,35.01 119.42,35.01 51.75,0 97.96,-11 138.52,-33.28 40.32,-22.01 70.18,-52.3 89.08,-90.58 14.54,-29.79 21.69,-73.56 21.69,-131.36l0.75 -48.06zm-4009.59 1952.43l109.75 15.01c-12.14,74.07 -42.75,131.84 -92.34,173.76 -49.51,41.93 -110.58,62.75 -182.68,62.75 -90.38,0 -163.12,-28.96 -218.01,-86.96 -55.05,-58 -82.52,-140.99 -82.52,-249.05 0,-70.06 11.91,-131.17 35.52,-183.75 23.58,-52.34 59.53,-91.75 108.06,-117.85 48.29,-26.29 100.83,-39.41 157.81,-39.41 71.67,0 130.58,17.72 176.12,53.4 45.7,35.68 75.09,86.33 87.83,151.84l-108.49 16.27c-10.41,-43.58 -28.69,-76.35 -55.29,-98.44 -26.37,-21.93 -58.28,-32.97 -95.68,-32.97 -56.59,0 -102.56,19.8 -138.04,59.45 -35.33,39.85 -52.97,102.4 -52.97,188.34 0,87.16 17.01,150.38 51.04,189.8 34.27,39.41 78.71,59.22 133.37,59.22 44.21,0 81.03,-13.12 110.38,-39.61 29.59,-26.29 48.29,-66.96 56.15,-121.82zm205.48 237.78l0 -649.51 100.83 0 0 91.79c20.63,-31.71 48.29,-57.37 82.76,-76.55 34.42,-19.41 73.56,-29 117.61,-29 48.92,0 89.12,10.02 120.36,29.83 31.28,20.04 53.4,47.78 66.17,83.66 52.73,-75.72 121.03,-113.49 205.24,-113.49 65.94,0 116.79,17.72 152.07,53.4 35.52,35.68 53.4,90.5 53.4,164.57l0 445.3 -112.31 0 0 -408.79c0,-43.81 -3.85,-75.53 -11.04,-94.9 -7.27,-19.41 -20.43,-34.86 -39.81,-46.72 -19.14,-11.91 -41.69,-17.76 -67.43,-17.76 -46.76,0 -85.47,15.25 -116.35,45.5 -30.85,30.45 -46.13,79.02 -46.13,145.79l0 376.88 -112.31 0 0 -421.52c0,-48.8 -9.12,-85.51 -27.43,-109.91 -18.27,-24.4 -48.29,-36.74 -89.79,-36.74 -31.44,0 -60.63,8.13 -87.39,24.4 -26.8,16.27 -46.17,40.08 -58.31,71.56 -11.87,31.28 -17.84,76.55 -17.84,135.57l0 336.64 -112.31 0zm-13124.52 -1808.85l0 -1074.93 217.46 0 259.19 760.92c24.01,70.81 41.38,123.86 52.34,159.11 12.5,-39.02 32.14,-96.59 58.67,-172.39l263.83 -747.64 194.2 0 0 1074.93 -139.34 0 0 -899.28 -319.94 899.28 -130.66 0 -316.41 -915.82 0 915.82 -139.34 0zm1780.59 -97.57c-50.02,41.77 -98.24,71.05 -144.41,88.3 -46.17,17.29 -95.72,25.78 -148.77,25.78 -87.28,0 -154.35,-20.75 -201.31,-62.56 -46.96,-41.54 -70.46,-94.82 -70.46,-159.62 0,-38.04 8.96,-72.81 26.56,-104.37 17.84,-31.51 41.06,-56.55 69.67,-75.57 28.84,-19.02 60.99,-33.52 96.94,-43.26 26.56,-6.76 66.61,-13.28 119.97,-19.77 108.65,-12.54 189.05,-27.78 240.33,-45.31 0.51,-18 0.79,-29.51 0.79,-34.27 0,-53.56 -12.77,-91.32 -38.27,-113.37 -34.46,-29.75 -85.78,-44.52 -153.61,-44.52 -63.54,0 -110.54,11 -140.6,32.77 -30.38,21.77 -52.58,60.32 -67.16,115.84l-131.64 -18c11.99,-55.29 31.63,-100.09 59.22,-134.12 27.55,-34.03 67.35,-60.08 119.42,-78.59 51.79,-18.27 112.27,-27.51 180.64,-27.51 67.86,0 123.27,7.74 165.87,23.5 42.32,15.8 73.72,35.29 93.64,59.06 19.92,23.77 33.91,53.8 42.12,90.1 4.32,22.52 6.6,63.03 6.6,121.34l0 175.14c0,122.37 2.79,199.7 8.41,232.47 5.38,32.77 16.58,64.05 32.93,94.07l-140.83 0c-13.56,-27.78 -22.2,-60.32 -26.05,-97.57zm-10.69 -292.79c-49.04,19.53 -122.48,36.03 -220.49,49.55 -55.64,7.78 -94.9,16.54 -117.89,26.29 -22.99,9.75 -40.55,24.01 -53.09,42.52 -12.5,18.78 -18.86,39.53 -18.86,62.56 0,34.78 13.52,64.05 40.83,87.35 27.31,23.26 67.08,35.01 119.42,35.01 51.79,0 98,-11 138.56,-33.28 40.28,-22.01 70.14,-52.3 89.04,-90.58 14.58,-29.79 21.69,-73.56 21.69,-131.36l0.79 -48.06zm343.21 390.36l0 -779.19 120.95 0 0 110.62c58.16,-84.84 142.37,-127.12 252.32,-127.12 48.02,0 91.87,8.49 131.95,25.27 40.04,16.78 70.18,39.02 90.07,66.29 19.88,27.27 33.91,59.81 41.85,97.33 4.87,24.52 7.39,67.31 7.39,128.38l0 478.42 -134.74 0 0 -473.43c0,-53.8 -5.07,-94.07 -15.52,-120.6 -10.45,-26.52 -29.12,-47.78 -55.64,-63.82 -26.56,-15.76 -57.92,-23.77 -93.64,-23.77 -57.17,0 -106.41,17.8 -148.03,53.56 -41.54,35.52 -62.24,103.35 -62.24,202.92l0 425.14 -134.7 0zm826.74 64.56l130.11 18c5.38,39.53 20.67,68.33 45.7,86.61 33.4,24.25 79.1,36.51 137.02,36.51 62.24,0 110.5,-12.26 144.41,-36.51 33.95,-24.28 56.94,-58.55 68.88,-102.36 6.92,-26.76 10.26,-83.07 9.71,-168.89 -58.94,68.06 -132.15,102.09 -219.94,102.09 -109.2,0 -193.92,-38.55 -253.61,-115.84 -60,-77.06 -89.87,-169.68 -89.87,-277.5 0,-74.31 13.79,-142.88 41.1,-205.67 27.31,-62.79 67.12,-111.09 119.14,-145.39 52.07,-34.27 113.29,-51.28 183.75,-51.28 93.64,0 170.94,37.53 231.69,112.58l0 -96.08 123.98 0 0 672.86c0,121.34 -12.5,207.17 -37.72,257.7 -24.99,50.57 -65.07,90.62 -119.42,119.89 -54.62,29.28 -121.7,44.01 -201.31,44.01 -94.7,0 -171.01,-20.75 -229.13,-62.56 -58.47,-41.54 -86.53,-104.33 -84.49,-188.15zm110.22 -467.42c0,101.85 20.67,176.16 62.01,222.96 41.57,46.76 93.41,70.3 155.65,70.3 62.01,0 113.8,-23.26 155.92,-69.83 41.81,-46.53 62.75,-119.58 62.75,-219.19 0,-95.06 -21.69,-166.89 -64.8,-215.18 -43.15,-48.29 -95.17,-72.3 -155.92,-72.3 -59.96,0 -110.73,23.77 -152.86,71.32 -41.81,47.51 -62.75,118.08 -62.75,211.92zm1285 305.29c-49.98,41.77 -98.2,71.05 -144.41,88.3 -46.17,17.29 -95.68,25.78 -148.73,25.78 -87.28,0 -154.39,-20.75 -201.35,-62.56 -46.96,-41.54 -70.42,-94.82 -70.42,-159.62 0,-38.04 8.92,-72.81 26.56,-104.37 17.8,-31.51 41.06,-56.55 69.63,-75.57 28.84,-19.02 60.99,-33.52 96.98,-43.26 26.52,-6.76 66.61,-13.28 119.93,-19.77 108.69,-12.54 189.05,-27.78 240.37,-45.31 0.51,-18 0.75,-29.51 0.75,-34.27 0,-53.56 -12.73,-91.32 -38.27,-113.37 -34.46,-29.75 -85.74,-44.52 -153.61,-44.52 -63.54,0 -110.5,11 -140.6,32.77 -30.38,21.77 -52.58,60.32 -67.12,115.84l-131.64 -18c11.99,-55.29 31.59,-100.09 59.18,-134.12 27.59,-34.03 67.35,-60.08 119.42,-78.59 51.83,-18.27 112.27,-27.51 180.64,-27.51 67.9,0 123.27,7.74 165.87,23.5 42.36,15.8 73.72,35.29 93.64,59.06 19.92,23.77 33.95,53.8 42.12,90.1 4.32,22.52 6.6,63.03 6.6,121.34l0 175.14c0,122.37 2.83,199.7 8.41,232.47 5.38,32.77 16.62,64.05 32.97,94.07l-140.87 0c-13.56,-27.78 -22.2,-60.32 -26.05,-97.57zm-10.69 -292.79c-49,19.53 -122.44,36.03 -220.49,49.55 -55.6,7.78 -94.9,16.54 -117.89,26.29 -22.95,9.75 -40.55,24.01 -53.05,42.52 -12.5,18.78 -18.86,39.53 -18.86,62.56 0,34.78 13.48,64.05 40.83,87.35 27.27,23.26 67.08,35.01 119.42,35.01 51.75,0 97.96,-11 138.52,-33.28 40.32,-22.01 70.18,-52.3 89.08,-90.58 14.54,-29.79 21.69,-73.56 21.69,-131.36l0.75 -48.06zm-3759.47 1952.43l109.75 15.01c-12.14,74.07 -42.75,131.84 -92.3,173.76 -49.55,41.93 -110.62,62.75 -182.68,62.75 -90.42,0 -163.15,-28.96 -218.05,-86.96 -55.05,-58 -82.52,-140.99 -82.52,-249.05 0,-70.06 11.91,-131.17 35.52,-183.75 23.58,-52.34 59.53,-91.75 108.06,-117.85 48.29,-26.29 100.83,-39.41 157.81,-39.41 71.67,0 130.58,17.72 176.12,53.4 45.7,35.68 75.09,86.33 87.83,151.84l-108.46 16.27c-10.41,-43.58 -28.69,-76.35 -55.33,-98.44 -26.37,-21.93 -58.24,-32.97 -95.68,-32.97 -56.59,0 -102.52,19.8 -138.04,59.45 -35.29,39.85 -52.97,102.4 -52.97,188.34 0,87.16 17.01,150.38 51.04,189.8 34.27,39.41 78.71,59.22 133.37,59.22 44.25,0 81.03,-13.12 110.38,-39.61 29.59,-26.29 48.29,-66.96 56.15,-121.82zm205.52 237.78l0 -649.51 100.79 0 0 91.79c20.63,-31.71 48.29,-57.37 82.76,-76.55 34.42,-19.41 73.56,-29 117.61,-29 48.92,0 89.12,10.02 120.4,29.83 31.24,20.04 53.36,47.78 66.13,83.66 52.73,-75.72 121.03,-113.49 205.24,-113.49 65.94,0 116.79,17.72 152.07,53.4 35.52,35.68 53.4,90.5 53.4,164.57l0 445.3 -112.31 0 0 -408.79c0,-43.81 -3.81,-75.53 -11.04,-94.9 -7.27,-19.41 -20.43,-34.86 -39.81,-46.72 -19.14,-11.91 -41.65,-17.76 -67.43,-17.76 -46.76,0 -85.47,15.25 -116.31,45.5 -30.89,30.45 -46.17,79.02 -46.17,145.79l0 376.88 -112.31 0 0 -421.52c0,-48.8 -9.12,-85.51 -27.43,-109.91 -18.27,-24.4 -48.29,-36.74 -89.75,-36.74 -31.48,0 -60.63,8.13 -87.43,24.4 -26.8,16.27 -46.13,40.08 -58.28,71.56 -11.91,31.28 -17.88,76.55 -17.88,135.57l0 336.64 -112.27 0zm-12871.54 -1799.85l420.5 -1074.93 159.46 0 446.28 1074.93 -165.04 0 -126.85 -325.8 -461.56 0 -118.95 325.8 -153.84 0zm315.39 -441.41l373.54 0 -114.31 -297.98c-34.46,-90.62 -60.44,-165.39 -78.59,-224.46 -15.05,70.06 -35.21,138.87 -60.48,206.93l-120.17 315.5zm806.03 441.41l0 -1074.93 134.74 0 0 1074.93 -134.74 0zm635.64 -117.85l18.35 116.59c-37.76,7.78 -71.67,11.75 -101.3,11.75 -48.73,0 -86.49,-7.51 -113.52,-22.75 -26.8,-15.25 -45.7,-35.01 -56.66,-59.81 -10.96,-24.76 -16.31,-76.82 -16.31,-156.12l0 -448.91 -99.54 0 0 -102.09 99.54 0 0 -192.67 134.7 -79.34 0 272 134.74 0 0 102.09 -134.74 0 0 456.42c0,37.76 2.32,62.05 7.15,72.81 4.6,10.77 12.26,19.25 22.95,25.78 10.77,6.25 26.05,9.51 45.94,9.51 14.81,0 34.46,-1.77 58.71,-5.27zm651.95 117.85l0 -115.84c-61.77,88.34 -145.43,132.35 -251.33,132.35 -46.68,0 -90.34,-8.76 -130.89,-26.25 -40.59,-17.76 -70.69,-39.81 -90.34,-66.33 -19.65,-26.76 -33.44,-59.3 -41.34,-97.85 -5.38,-26.01 -8.17,-67.04 -8.17,-123.07l0 -482.19 134.7 0 0 431.15c0,68.81 2.83,115.33 8.17,139.11 8.45,34.78 26.29,61.81 53.87,81.58 27.31,19.77 60.99,29.79 101.3,29.79 40.32,0 78.08,-10.02 113.29,-30.3 35.21,-20.28 60.24,-48.02 75.01,-82.83 14.54,-34.78 21.97,-85.55 21.97,-151.88l0 -416.61 134.7 0 0 779.19 -120.95 0zm330.95 0l0 -779.19 120.99 0 0 119.34c30.85,-55.29 59.41,-91.79 85.7,-109.32 26.29,-17.76 55.13,-26.52 86.53,-26.52 45.39,0 91.6,13.99 138.52,41.77l-47.98 121.86c-32.65,-18 -65.31,-27 -97.96,-27 -29.35,0 -55.64,8.72 -78.83,26.01 -23.22,17.25 -39.85,41.26 -49.79,72.07 -15.05,46.76 -22.44,98.08 -22.44,153.88l0 407.1 -134.74 0zm1030.37 -97.57c-49.98,41.77 -98.2,71.05 -144.41,88.3 -46.17,17.29 -95.68,25.78 -148.73,25.78 -87.28,0 -154.39,-20.75 -201.35,-62.56 -46.96,-41.54 -70.42,-94.82 -70.42,-159.62 0,-38.04 8.92,-72.81 26.56,-104.37 17.8,-31.51 41.06,-56.55 69.63,-75.57 28.84,-19.02 60.99,-33.52 96.98,-43.26 26.52,-6.76 66.61,-13.28 119.93,-19.77 108.69,-12.54 189.05,-27.78 240.37,-45.31 0.51,-18 0.75,-29.51 0.75,-34.27 0,-53.56 -12.73,-91.32 -38.27,-113.37 -34.46,-29.75 -85.74,-44.52 -153.61,-44.52 -63.54,0 -110.5,11 -140.6,32.77 -30.38,21.77 -52.58,60.32 -67.12,115.84l-131.64 -18c11.99,-55.29 31.59,-100.09 59.18,-134.12 27.59,-34.03 67.35,-60.08 119.42,-78.59 51.83,-18.27 112.27,-27.51 180.64,-27.51 67.9,0 123.27,7.74 165.87,23.5 42.36,15.8 73.72,35.29 93.64,59.06 19.92,23.77 33.95,53.8 42.12,90.1 4.32,22.52 6.6,63.03 6.6,121.34l0 175.14c0,122.37 2.83,199.7 8.41,232.47 5.38,32.77 16.62,64.05 32.97,94.07l-140.87 0c-13.56,-27.78 -22.2,-60.32 -26.05,-97.57zm-10.69 -292.79c-49,19.53 -122.44,36.03 -220.49,49.55 -55.6,7.78 -94.9,16.54 -117.89,26.29 -22.95,9.75 -40.55,24.01 -53.05,42.52 -12.5,18.78 -18.86,39.53 -18.86,62.56 0,34.78 13.48,64.05 40.83,87.35 27.27,23.26 67.08,35.01 119.42,35.01 51.75,0 97.96,-11 138.52,-33.28 40.32,-22.01 70.18,-52.3 89.08,-90.58 14.54,-29.79 21.69,-73.56 21.69,-131.36l0.75 -48.06zm-3125.44 1952.43l109.75 15.01c-12.14,74.07 -42.75,131.84 -92.34,173.76 -49.51,41.93 -110.58,62.75 -182.68,62.75 -90.38,0 -163.12,-28.96 -218.01,-86.96 -55.09,-58 -82.52,-140.99 -82.52,-249.05 0,-70.06 11.91,-131.17 35.48,-183.75 23.62,-52.34 59.57,-91.75 108.1,-117.85 48.29,-26.29 100.79,-39.41 157.81,-39.41 71.67,0 130.58,17.72 176.08,53.4 45.74,35.68 75.13,86.33 87.86,151.84l-108.49 16.27c-10.41,-43.58 -28.69,-76.35 -55.29,-98.44 -26.37,-21.93 -58.28,-32.97 -95.68,-32.97 -56.59,0 -102.56,19.8 -138.04,59.45 -35.33,39.85 -52.97,102.4 -52.97,188.34 0,87.16 17.01,150.38 51.04,189.8 34.27,39.41 78.71,59.22 133.37,59.22 44.21,0 81.03,-13.12 110.38,-39.61 29.59,-26.29 48.29,-66.96 56.15,-121.82zm205.48 237.78l0 -649.51 100.83 0 0 91.79c20.63,-31.71 48.29,-57.37 82.76,-76.55 34.42,-19.41 73.56,-29 117.61,-29 48.92,0 89.12,10.02 120.36,29.83 31.28,20.04 53.36,47.78 66.17,83.66 52.73,-75.72 120.99,-113.49 205.24,-113.49 65.94,0 116.79,17.72 152.07,53.4 35.52,35.68 53.36,90.5 53.36,164.57l0 445.3 -112.27 0 0 -408.79c0,-43.81 -3.85,-75.53 -11.04,-94.9 -7.27,-19.41 -20.47,-34.86 -39.81,-46.72 -19.18,-11.91 -41.69,-17.76 -67.43,-17.76 -46.76,0 -85.51,15.25 -116.35,45.5 -30.85,30.45 -46.17,79.02 -46.17,145.79l0 376.88 -112.27 0 0 -421.52c0,-48.8 -9.12,-85.51 -27.43,-109.91 -18.31,-24.4 -48.29,-36.74 -89.79,-36.74 -31.44,0 -60.63,8.13 -87.39,24.4 -26.8,16.27 -46.17,40.08 -58.31,71.56 -11.91,31.28 -17.84,76.55 -17.84,135.57l0 336.64 -112.31 0zm1060.66 4060.4l-111.05 8.76c-10.02,-43.19 -24.25,-74.7 -42.75,-94.27 -30.41,-31.51 -68.06,-47.15 -112.74,-47.15 -35.96,0 -67.82,9.78 -95.29,29.39 -35.29,25.27 -62.95,61.97 -83.58,110.34 -20.43,48.61 -31.08,117.65 -31.91,207.13 27,-40.24 60.2,-70.3 99.34,-89.67 39.1,-19.61 79.97,-29.43 122.96,-29.43 74.86,0 138.63,27.11 191.41,81.15 52.54,54.03 78.91,123.66 78.91,209.41 0,56.31 -12.34,108.46 -37.02,156.83 -24.87,48.41 -58.71,85.31 -102.13,110.97 -43.15,25.66 -92.27,38.59 -147.16,38.59 -93.37,0 -169.72,-33.79 -228.86,-101.15 -58.9,-67.39 -88.49,-178.56 -88.49,-333.3 0,-173.14 32.77,-299.08 98.08,-377.75 57.02,-68.41 133.8,-102.6 230.55,-102.6 71.91,0 131.01,19.8 176.99,59.22 45.9,39.45 73.56,93.88 82.76,163.55zm-459.44 386.67c0,38 8.29,74.27 24.64,108.89 16.39,34.62 39.33,60.91 68.53,79.06 29.31,18.15 60.4,27.31 93.37,27.31 47.86,0 88.69,-18.78 122.48,-56.31 33.83,-37.53 50.85,-88.41 50.85,-152.9 0,-61.93 -16.82,-110.73 -50.18,-146.41 -33.4,-35.64 -75.96,-53.6 -127.63,-53.6 -50.61,0 -93.84,17.96 -129.12,53.6 -35.29,35.68 -52.93,82.4 -52.93,140.36zm1169.2 -386.67l-111.05 8.76c-10.02,-43.19 -24.25,-74.7 -42.75,-94.27 -30.41,-31.51 -68.06,-47.15 -112.74,-47.15 -35.92,0 -67.82,9.78 -95.29,29.39 -35.29,25.27 -62.95,61.97 -83.58,110.34 -20.43,48.61 -31.04,117.65 -31.91,207.13 27.04,-40.24 60.2,-70.3 99.34,-89.67 39.14,-19.61 79.97,-29.43 122.96,-29.43 74.86,0 138.63,27.11 191.41,81.15 52.54,54.03 78.91,123.66 78.91,209.41 0,56.31 -12.34,108.46 -37.02,156.83 -24.87,48.41 -58.71,85.31 -102.09,110.97 -43.19,25.66 -92.3,38.59 -147.2,38.59 -93.37,0 -169.72,-33.79 -228.86,-101.15 -58.9,-67.39 -88.45,-178.56 -88.45,-333.3 0,-173.14 32.77,-299.08 98.04,-377.75 57.02,-68.41 133.8,-102.6 230.59,-102.6 71.87,0 130.97,19.8 176.95,59.22 45.94,39.45 73.56,93.88 82.76,163.55zm-459.44 386.67c0,38 8.29,74.27 24.64,108.89 16.39,34.62 39.37,60.91 68.53,79.06 29.35,18.15 60.4,27.31 93.37,27.31 47.86,0 88.69,-18.78 122.52,-56.31 33.79,-37.53 50.85,-88.41 50.85,-152.9 0,-61.93 -16.86,-110.73 -50.22,-146.41 -33.4,-35.64 -75.96,-53.6 -127.63,-53.6 -50.61,0 -93.8,17.96 -129.12,53.6 -35.29,35.68 -52.93,82.4 -52.93,140.36zm-250.98 4562.04l-111.05 8.76c-10.02,-43.19 -24.25,-74.7 -42.75,-94.27 -30.41,-31.51 -68.02,-47.15 -112.7,-47.15 -35.96,0 -67.86,9.78 -95.29,29.39 -35.33,25.27 -62.99,61.97 -83.62,110.34 -20.43,48.61 -31.04,117.65 -31.87,207.13 27,-40.24 60.16,-70.3 99.34,-89.67 39.1,-19.61 79.93,-29.43 122.92,-29.43 74.86,0 138.67,27.11 191.45,81.15 52.54,54.03 78.91,123.66 78.91,209.41 0,56.31 -12.34,108.46 -37.06,156.83 -24.87,48.41 -58.71,85.31 -102.09,110.97 -43.15,25.66 -92.3,38.59 -147.2,38.59 -93.37,0 -169.68,-33.79 -228.86,-101.15 -58.9,-67.39 -88.45,-178.56 -88.45,-333.3 0,-173.14 32.77,-299.08 98.04,-377.75 57.02,-68.41 133.8,-102.6 230.59,-102.6 71.87,0 131.01,19.8 176.95,59.22 45.94,39.45 73.6,93.88 82.76,163.55zm-459.44 386.67c0,38 8.29,74.27 24.68,108.89 16.39,34.62 39.33,60.91 68.49,79.06 29.35,18.15 60.4,27.31 93.37,27.31 47.86,0 88.69,-18.78 122.52,-56.31 33.83,-37.53 50.85,-88.41 50.85,-152.9 0,-61.93 -16.82,-110.73 -50.22,-146.41 -33.36,-35.64 -75.92,-53.6 -127.63,-53.6 -50.61,0 -93.8,17.96 -129.12,53.6 -35.29,35.68 -52.93,82.4 -52.93,140.36zm602.6 82.6l107.2 -8.76c9.12,49.67 26.56,85.55 52.26,107.87 25.78,22.32 58.71,33.56 99.14,33.56 34.46,0 64.64,-7.7 90.81,-23.34 26.17,-15.44 47.43,-36.11 63.86,-62.17 16.35,-25.86 30.14,-60.91 41.46,-104.92 11.28,-44.01 16.78,-88.85 16.78,-134.51 0,-4.83 -0.2,-12.34 -0.63,-22.12 -22.32,35.05 -52.97,63.62 -91.68,85.31 -38.71,21.89 -80.83,32.73 -125.9,32.73 -75.53,0 -139.3,-26.92 -191.64,-80.71 -52.15,-53.6 -78.28,-124.53 -78.28,-212.55 0,-90.93 27.23,-163.94 81.89,-219.39 54.46,-55.29 122.72,-83.03 205.04,-83.03 59.1,0 113.37,15.64 162.68,47.15 49.16,31.28 86.37,75.92 111.91,134.12 25.5,57.96 38.27,142.01 38.27,251.92 0,114.51 -12.54,205.67 -37.84,273.46 -25.35,67.98 -63.19,119.5 -113.17,154.98 -49.98,35.44 -108.49,53.17 -175.69,53.17 -71.48,0 -129.75,-19.37 -175.06,-58.39 -45.07,-39.02 -72.3,-93.88 -81.42,-164.37zm458.15 -395.23c0,-62.99 -17.05,-113.05 -51.04,-149.95 -33.83,-36.94 -75.13,-55.49 -123.58,-55.49 -50.22,0 -93.64,19.8 -130.19,59.65 -36.82,39.85 -55.09,91.56 -55.09,154.98 0,56.94 17.45,103.23 52.11,138.67 34.89,35.68 78.28,53.4 129.95,53.4 51.91,0 94.47,-17.72 127.83,-53.4 33.44,-35.44 50.02,-84.88 50.02,-147.87zm-1094.54 4779.5l0 -105.12 590.85 0 0 85.11c-58.04,60.67 -115.92,141.38 -172.9,242.14 -57.21,100.75 -101.26,204.41 -132.5,310.98 -22.32,74.9 -36.82,157.26 -42.99,246.54l-114.82 0c1.22,-70.5 15.29,-155.81 42.32,-255.7 27,-100.12 65.51,-196.48 115.92,-289.29 50.38,-92.82 103.98,-171.05 160.76,-234.67l-446.63 0zm1124.52 779.66l-112.31 0 0 -701.23c-27.04,25.46 -62.56,50.69 -106.33,75.92 -43.85,25.23 -83.38,44.21 -118.32,56.74l0 -106.37c62.75,-28.8 117.65,-63.82 164.69,-105.12 47,-41.1 80.36,-80.95 99.93,-119.73l72.34 0 0 899.79zm-1216.43 4154.04l0 -105.12 590.85 0 0 85.11c-58.04,60.67 -115.92,141.38 -172.9,242.14 -57.21,100.75 -101.26,204.41 -132.5,310.98 -22.32,74.9 -36.78,157.26 -42.95,246.54l-114.86 0c1.22,-70.5 15.29,-155.81 42.32,-255.7 27,-100.12 65.51,-196.48 115.92,-289.29 50.38,-92.82 103.98,-171.05 160.76,-234.67l-446.63 0zm703.39 544.4l117.38 -8.76c8.72,56.11 28.92,98.24 60.44,126.61 31.44,28.14 69.95,42.32 115.29,42.32 54.66,0 100.36,-20 137.57,-59.85 37.02,-40.04 55.52,-93.01 55.52,-158.95 0,-62.75 -17.64,-112.19 -53.17,-148.5 -35.52,-36.27 -82.52,-54.42 -141.03,-54.42 -36.35,0 -68.92,8.13 -97.81,24.4 -28.72,16.27 -51.32,37.33 -67.9,63.19l-105.9 -15.01 88.06 -460.54 453.04 0 0 105.12 -363.48 0 -48.69 241.75c54.66,-37.76 112.07,-56.51 172.07,-56.51 79.53,0 146.73,27.11 201.39,81.34 54.66,54.23 82.09,123.9 82.09,208.97 0,81.15 -24.01,151.21 -72.07,210.23 -58.51,72.62 -138.48,108.89 -239.7,108.89 -82.95,0 -150.62,-22.95 -203.16,-68.61 -52.54,-45.7 -82.52,-106.18 -89.95,-181.66zm-524.71 4705.63c-46.6,-16.7 -81.03,-40.67 -103.58,-71.56 -22.32,-31.04 -33.64,-68.18 -33.64,-111.36 0,-65.27 23.85,-119.93 71.52,-164.33 47.82,-44.44 111.25,-66.76 190.58,-66.76 79.53,0 143.78,22.75 192.27,68.22 48.45,45.46 72.7,100.71 72.7,166.02 0,41.5 -11.04,77.8 -33.17,108.46 -22.12,30.85 -55.72,54.62 -101.03,71.32 55.96,17.96 98.28,46.72 127.4,86.76 29.12,39.85 43.85,87.39 43.85,142.88 0,76.55 -27.66,140.8 -82.76,192.94 -55.29,52.15 -127.83,78.2 -217.81,78.2 -89.99,0 -162.49,-26.05 -217.81,-78.43 -55.05,-52.34 -82.72,-117.61 -82.72,-195.85 0,-58.2 15.13,-107 45.27,-146.18 30.22,-39.45 73.21,-66.13 128.93,-80.32zm-22.32 -186.89c0,42.56 13.83,77.18 41.22,104.09 27.66,26.92 63.86,40.47 108.73,40.47 43.62,0 78.91,-13.36 106.33,-40.08 27.43,-26.68 41.06,-59.41 41.06,-98.24 0,-40.44 -14.03,-74.43 -42.32,-101.97 -28.1,-27.55 -63.58,-41.3 -106.37,-41.3 -43.19,0 -78.67,13.56 -106.77,40.47 -27.86,26.88 -41.89,59.02 -41.89,96.55zm-37.02 414.25c0,31.48 7.43,61.73 22.32,91.13 14.89,29.2 37.41,51.95 67.63,67.98 30.02,16.07 62.32,24.21 96.59,24.21 53.99,0 98.24,-16.9 132.9,-50.69 34.7,-33.75 51.91,-76.74 51.91,-128.89 0,-52.97 -17.84,-96.78 -53.36,-131.4 -35.76,-34.62 -80.83,-51.91 -135.06,-51.91 -53.17,0 -96.78,17.09 -131.25,51.28 -34.46,34.23 -51.67,76.98 -51.67,128.3zm1184.48 153.29l0 105.12 -604.87 0c-0.9,-26.49 3.62,-51.95 13.16,-76.55 15.52,-40.24 40.4,-80.08 74.66,-119.1 34.23,-38.98 83.15,-84.05 146.77,-135.14 98.87,-79.89 166.14,-143.07 201.19,-189.8 35.29,-46.72 52.97,-90.97 52.97,-132.66 0,-43.58 -15.95,-80.32 -47.86,-110.34 -31.87,-29.83 -73.6,-44.84 -124.84,-44.84 -54.23,0 -97.61,15.84 -130.15,47.55 -32.58,31.51 -48.96,75.29 -49.39,131.4l-114.86 -11.28c7.86,-84.25 37.65,-148.5 89.12,-192.7 51.71,-44.21 120.83,-66.33 207.83,-66.33 87.63,0 157.18,23.77 208.23,71.56 51.24,47.74 76.78,107 76.78,177.5 0,35.88 -7.47,71.12 -22.52,105.74 -14.93,34.82 -39.81,71.32 -74.46,109.71 -34.89,38.16 -92.54,90.93 -172.94,157.65 -67.43,55.49 -110.81,93.05 -129.99,112.86 -19.1,19.8 -34.86,39.61 -47.39,59.65l448.56 0zm11458.67 -19689.61l-112.27 0 0 -701.23c-27.04,25.46 -62.56,50.69 -106.37,75.92 -43.81,25.23 -83.38,44.21 -118.28,56.74l0 -106.37c62.75,-28.8 117.65,-63.82 164.65,-105.12 47.04,-41.1 80.4,-80.95 99.97,-119.73l72.3 0 0 899.79zm871.89 -677.02l-111.05 8.76c-10.02,-43.19 -24.25,-74.7 -42.75,-94.27 -30.41,-31.51 -68.06,-47.15 -112.74,-47.15 -35.96,0 -67.82,9.78 -95.29,29.39 -35.29,25.27 -62.95,61.97 -83.58,110.34 -20.43,48.61 -31.08,117.65 -31.91,207.13 27,-40.24 60.2,-70.3 99.34,-89.67 39.1,-19.61 79.97,-29.43 122.96,-29.43 74.86,0 138.63,27.11 191.41,81.15 52.54,54.03 78.91,123.66 78.91,209.41 0,56.31 -12.34,108.46 -37.02,156.83 -24.87,48.41 -58.71,85.31 -102.13,110.97 -43.15,25.66 -92.27,38.59 -147.16,38.59 -93.37,0 -169.72,-33.79 -228.86,-101.15 -58.9,-67.39 -88.49,-178.56 -88.49,-333.3 0,-173.14 32.77,-299.08 98.08,-377.75 57.02,-68.41 133.8,-102.6 230.55,-102.6 71.91,0 131.01,19.8 176.99,59.22 45.9,39.45 73.56,93.88 82.76,163.55zm-459.44 386.67c0,38 8.29,74.27 24.64,108.89 16.39,34.62 39.33,60.91 68.53,79.06 29.31,18.15 60.4,27.31 93.37,27.31 47.86,0 88.69,-18.78 122.48,-56.31 33.83,-37.53 50.85,-88.41 50.85,-152.9 0,-61.93 -16.82,-110.73 -50.18,-146.41 -33.4,-35.64 -75.96,-53.6 -127.63,-53.6 -50.61,0 -93.84,17.96 -129.12,53.6 -35.29,35.68 -52.93,82.4 -52.93,140.36zm-413.07 5239.06l-112.31 0 0 -701.23c-27.04,25.46 -62.52,50.69 -106.33,75.92 -43.85,25.23 -83.38,44.21 -118.28,56.74l0 -106.37c62.75,-28.8 117.65,-63.82 164.65,-105.12 47,-41.1 80.36,-80.95 99.93,-119.73l72.34 0 0 899.79zm461.56 -485.77c-46.6,-16.7 -81.03,-40.67 -103.62,-71.56 -22.32,-31.04 -33.6,-68.18 -33.6,-111.36 0,-65.27 23.85,-119.93 71.48,-164.33 47.86,-44.44 111.25,-66.76 190.58,-66.76 79.53,0 143.78,22.75 192.27,68.22 48.49,45.46 72.74,100.71 72.74,166.02 0,41.5 -11.08,77.8 -33.17,108.46 -22.12,30.85 -55.76,54.62 -101.03,71.32 55.92,17.96 98.24,46.72 127.4,86.76 29.12,39.85 43.81,87.39 43.81,142.88 0,76.55 -27.62,140.8 -82.76,192.94 -55.29,52.15 -127.83,78.2 -217.78,78.2 -90.03,0 -162.49,-26.05 -217.85,-78.43 -55.05,-52.34 -82.68,-117.61 -82.68,-195.85 0,-58.2 15.09,-107 45.27,-146.18 30.22,-39.45 73.17,-66.13 128.93,-80.32zm-22.32 -186.89c0,42.56 13.79,77.18 41.22,104.09 27.66,26.92 63.82,40.47 108.73,40.47 43.58,0 78.87,-13.36 106.29,-40.08 27.47,-26.68 41.06,-59.41 41.06,-98.24 0,-40.44 -14.03,-74.43 -42.32,-101.97 -28.06,-27.55 -63.58,-41.3 -106.33,-41.3 -43.19,0 -78.71,13.56 -106.81,40.47 -27.86,26.88 -41.85,59.02 -41.85,96.55zm-37.06 414.25c0,31.48 7.47,61.73 22.32,91.13 14.93,29.2 37.45,51.95 67.67,67.98 29.98,16.07 62.28,24.21 96.55,24.21 54.03,0 98.28,-16.9 132.94,-50.69 34.66,-33.75 51.87,-76.74 51.87,-128.89 0,-52.97 -17.8,-96.78 -53.36,-131.4 -35.72,-34.62 -80.83,-51.91 -135.02,-51.91 -53.21,0 -96.78,17.09 -131.25,51.28 -34.46,34.23 -51.71,76.98 -51.71,128.3zm-402.19 5207.08l-112.31 0 0 -701.23c-27.04,25.46 -62.52,50.69 -106.33,75.92 -43.85,25.23 -83.38,44.21 -118.28,56.74l0 -106.37c62.75,-28.8 117.65,-63.82 164.65,-105.12 47,-41.1 80.36,-80.95 99.93,-119.73l72.34 0 0 899.79zm305.21 -207.75l107.2 -8.76c9.16,49.67 26.56,85.55 52.3,107.87 25.78,22.32 58.71,33.56 99.14,33.56 34.46,0 64.64,-7.7 90.81,-23.34 26.17,-15.44 47.43,-36.11 63.82,-62.17 16.35,-25.86 30.18,-60.91 41.5,-104.92 11.24,-44.01 16.78,-88.85 16.78,-134.51 0,-4.83 -0.2,-12.34 -0.63,-22.12 -22.32,35.05 -52.97,63.62 -91.68,85.31 -38.75,21.89 -80.83,32.73 -125.94,32.73 -75.49,0 -139.26,-26.92 -191.6,-80.71 -52.15,-53.6 -78.28,-124.53 -78.28,-212.55 0,-90.93 27.23,-163.94 81.89,-219.39 54.42,-55.29 122.72,-83.03 205.04,-83.03 59.1,0 113.37,15.64 162.68,47.15 49.12,31.28 86.37,75.92 111.87,134.12 25.54,57.96 38.31,142.01 38.31,251.92 0,114.51 -12.54,205.67 -37.88,273.46 -25.31,67.98 -63.19,119.5 -113.13,154.98 -49.98,35.44 -108.49,53.17 -175.69,53.17 -71.48,0 -129.75,-19.37 -175.06,-58.39 -45.11,-39.02 -72.3,-93.88 -81.46,-164.37zm458.15 -395.23c0,-62.99 -17.01,-113.05 -51.04,-149.95 -33.79,-36.94 -75.09,-55.49 -123.58,-55.49 -50.18,0 -93.6,19.8 -130.15,59.65 -36.82,39.85 -55.09,91.56 -55.09,154.98 0,56.94 17.41,103.23 52.11,138.67 34.89,35.68 78.28,53.4 129.95,53.4 51.87,0 94.43,-17.72 127.83,-53.4 33.4,-35.44 49.98,-84.88 49.98,-147.87zm-542.79 5446.54l0 105.12 -604.91 0c-0.86,-26.49 3.62,-51.95 13.2,-76.55 15.48,-40.24 40.4,-80.08 74.66,-119.1 34.23,-38.98 83.15,-84.05 146.73,-135.14 98.91,-79.89 166.14,-143.07 201.19,-189.8 35.33,-46.72 52.97,-90.97 52.97,-132.66 0,-43.58 -15.91,-80.32 -47.82,-110.34 -31.91,-29.83 -73.6,-44.84 -124.88,-44.84 -54.23,0 -97.61,15.84 -130.15,47.55 -32.54,31.51 -48.92,75.29 -49.36,131.4l-114.86 -11.28c7.86,-84.25 37.65,-148.5 89.12,-192.7 51.67,-44.21 120.83,-66.33 207.79,-66.33 87.67,0 157.18,23.77 208.23,71.56 51.28,47.74 76.78,107 76.78,177.5 0,35.88 -7.47,71.12 -22.52,105.74 -14.89,34.82 -39.81,71.32 -74.46,109.71 -34.89,38.16 -92.5,90.93 -172.9,157.65 -67.43,55.49 -110.85,93.05 -129.99,112.86 -19.14,19.8 -34.86,39.61 -47.43,59.65l448.6 0zm121.46 -337.08c0,-105.74 11.04,-191.25 33.17,-255.89 22.32,-64.88 55.29,-114.74 99.1,-149.56 43.58,-34.82 98.71,-52.15 165.04,-52.15 48.96,0 91.91,9.59 129.12,29 36.98,19.37 67.63,47.35 91.44,83.86 23.85,36.27 42.56,80.71 56.15,133.05 13.83,52.34 20.63,123.07 20.63,211.68 0,105.15 -11.04,190.23 -32.93,254.91 -21.93,64.84 -54.9,114.7 -98.71,149.75 -43.58,35.01 -98.91,52.54 -165.71,52.54 -87.83,0 -156.95,-30.65 -207.17,-92.19 -60.2,-75.09 -90.14,-196.67 -90.14,-365.02zm114.82 0.43c0,147.48 17.45,245.48 52.54,293.89 35.13,48.57 78.47,72.78 129.95,72.78 51.48,0 94.86,-24.4 129.99,-73.01 35.09,-48.8 52.5,-146.61 52.5,-293.65 0,-147.48 -17.41,-245.48 -52.5,-293.89 -34.89,-48.57 -78.71,-72.78 -131.25,-72.78 -51.48,0 -92.74,21.49 -123.58,64.25 -38.47,54.42 -57.65,155.37 -57.65,302.42zm-233.06 5292.86l0 105.12 -604.91 0c-0.86,-26.49 3.62,-51.95 13.2,-76.55 15.48,-40.24 40.4,-80.08 74.62,-119.1 34.23,-38.98 83.19,-84.05 146.77,-135.14 98.91,-79.89 166.14,-143.07 201.19,-189.8 35.33,-46.72 52.97,-90.97 52.97,-132.66 0,-43.58 -15.95,-80.32 -47.82,-110.34 -31.91,-29.83 -73.64,-44.84 -124.88,-44.84 -54.23,0 -97.61,15.84 -130.15,47.55 -32.54,31.51 -48.92,75.29 -49.36,131.4l-114.86 -11.28c7.86,-84.25 37.61,-148.5 89.12,-192.7 51.67,-44.21 120.79,-66.33 207.79,-66.33 87.67,0 157.18,23.77 208.23,71.56 51.24,47.74 76.78,107 76.78,177.5 0,35.88 -7.47,71.12 -22.52,105.74 -14.89,34.82 -39.81,71.32 -74.46,109.71 -34.89,38.16 -92.54,90.93 -172.9,157.65 -67.43,55.49 -110.85,93.05 -129.99,112.86 -19.14,19.8 -34.89,39.61 -47.43,59.65l448.6 0zm709.75 0l0 105.12 -604.91 0c-0.86,-26.49 3.62,-51.95 13.2,-76.55 15.52,-40.24 40.4,-80.08 74.66,-119.1 34.23,-38.98 83.15,-84.05 146.73,-135.14 98.91,-79.89 166.14,-143.07 201.19,-189.8 35.33,-46.72 53.01,-90.97 53.01,-132.66 0,-43.58 -15.95,-80.32 -47.86,-110.34 -31.91,-29.83 -73.6,-44.84 -124.88,-44.84 -54.19,0 -97.61,15.84 -130.15,47.55 -32.54,31.51 -48.92,75.29 -49.36,131.4l-114.86 -11.28c7.86,-84.25 37.65,-148.5 89.12,-192.7 51.71,-44.21 120.83,-66.33 207.83,-66.33 87.63,0 157.14,23.77 208.19,71.56 51.28,47.74 76.78,107 76.78,177.5 0,35.88 -7.43,71.12 -22.52,105.74 -14.89,34.82 -39.81,71.32 -74.46,109.71 -34.89,38.16 -92.5,90.93 -172.9,157.65 -67.43,55.49 -110.85,93.05 -129.99,112.86 -19.14,19.8 -34.86,39.61 -47.43,59.65l448.6 0zm11524.53 -19691.49l0 -214 -396.92 0 0 -101.34 417.32 -580.67 91.87 0 0 580.67 123.78 0 0 101.34 -123.78 0 0 214 -112.27 0zm0 -315.35l0 -403.17 -286.5 403.17 286.5 0zm357.51 -464.31l0 -105.12 590.89 0 0 85.11c-58.08,60.67 -115.92,141.38 -172.9,242.14 -57.25,100.75 -101.26,204.41 -132.54,310.98 -22.32,74.9 -36.78,157.26 -42.95,246.54l-114.86 0c1.26,-70.5 15.33,-155.81 42.32,-255.7 27.04,-100.12 65.54,-196.48 115.92,-289.29 50.38,-92.82 104.02,-171.05 160.8,-234.67l-446.67 0zm-735.85 5487.45l117.38 -8.76c8.72,56.11 28.92,98.24 60.44,126.61 31.44,28.14 69.95,42.32 115.25,42.32 54.66,0 100.4,-20 137.61,-59.85 37.02,-40.04 55.52,-93.01 55.52,-158.95 0,-62.75 -17.64,-112.19 -53.17,-148.5 -35.52,-36.27 -82.52,-54.42 -141.03,-54.42 -36.35,0 -68.92,8.13 -97.81,24.4 -28.72,16.27 -51.32,37.33 -67.9,63.19l-105.9 -15.01 88.06 -460.54 453.04 0 0 105.12 -363.48 0 -48.69 241.75c54.66,-37.76 112.07,-56.51 172.04,-56.51 79.57,0 146.77,27.11 201.43,81.34 54.66,54.23 82.09,123.9 82.09,208.97 0,81.15 -24.05,151.21 -72.07,210.23 -58.51,72.62 -138.52,108.89 -239.74,108.89 -82.91,0 -150.58,-22.95 -203.12,-68.61 -52.54,-45.7 -82.52,-106.18 -89.95,-181.66zm709.75 -2.51l112.27 -15.01c13.01,62.56 34.7,107.63 65.54,135.14 30.85,27.55 68.69,41.3 113.56,41.3 53.17,0 98.04,-17.92 134.23,-53.8 36.15,-35.88 54.23,-80.32 54.23,-133.29 0,-50.46 -16.78,-92.19 -50.61,-125.12 -33.64,-32.77 -76.39,-49.24 -128.5,-49.24 -21.26,0 -47.63,4.17 -79.34,12.3l12.57 -96.35c7.43,0.83 13.6,1.26 18.04,1.26 48.1,0 91.05,-12.34 129.56,-36.74 38.27,-24.4 57.45,-61.93 57.45,-112.62 0,-40.24 -14.03,-73.6 -41.93,-100.12 -27.86,-26.49 -63.78,-39.61 -107.83,-39.61 -43.81,0 -80.2,13.56 -109.32,40.67 -29.16,27.11 -47.86,67.78 -56.15,122.01l-112.31 -20c13.83,-73.84 44.88,-131.21 93.6,-171.88 48.49,-40.67 109.12,-60.91 181.39,-60.91 49.79,0 95.76,10.41 137.61,31.48 42.12,20.87 74.27,49.43 96.39,85.55 22.32,36.27 33.36,74.66 33.36,115.33 0,38.59 -10.61,73.64 -31.67,105.31 -21.26,31.71 -52.73,56.94 -94.23,75.72 54.03,12.1 95.96,37.57 125.9,76.12 29.79,38.39 44.68,86.8 44.68,144.57 0,78.2 -29.12,144.73 -87.2,199.19 -58.28,54.42 -131.88,81.54 -220.8,81.54 -80.16,0 -146.73,-23.58 -199.7,-70.5 -53.17,-46.92 -83.38,-107.63 -90.81,-182.29zm-709.75 4951.19l117.38 -8.76c8.72,56.11 28.92,98.24 60.44,126.61 31.44,28.14 69.95,42.32 115.25,42.32 54.66,0 100.4,-20 137.61,-59.85 37.02,-40.04 55.52,-93.01 55.52,-158.95 0,-62.75 -17.64,-112.19 -53.17,-148.5 -35.52,-36.27 -82.52,-54.42 -141.03,-54.42 -36.35,0 -68.92,8.13 -97.81,24.4 -28.72,16.27 -51.32,37.33 -67.9,63.19l-105.9 -15.01 88.06 -460.54 453.04 0 0 105.12 -363.48 0 -48.69 241.75c54.66,-37.76 112.07,-56.51 172.04,-56.51 79.57,0 146.77,27.11 201.43,81.34 54.66,54.23 82.09,123.9 82.09,208.97 0,81.15 -24.05,151.21 -72.07,210.23 -58.51,72.62 -138.52,108.89 -239.74,108.89 -82.91,0 -150.58,-22.95 -203.12,-68.61 -52.54,-45.7 -82.52,-106.18 -89.95,-181.66zm709.75 -2.51l112.27 -15.01c13.01,62.56 34.7,107.63 65.54,135.14 30.85,27.55 68.69,41.3 113.56,41.3 53.17,0 98.04,-17.92 134.23,-53.8 36.15,-35.88 54.23,-80.32 54.23,-133.29 0,-50.46 -16.78,-92.19 -50.61,-125.12 -33.64,-32.77 -76.39,-49.24 -128.5,-49.24 -21.26,0 -47.63,4.17 -79.34,12.3l12.57 -96.35c7.43,0.83 13.6,1.26 18.04,1.26 48.1,0 91.05,-12.34 129.56,-36.74 38.27,-24.4 57.45,-61.93 57.45,-112.62 0,-40.24 -14.03,-73.6 -41.93,-100.12 -27.86,-26.49 -63.78,-39.61 -107.83,-39.61 -43.81,0 -80.2,13.56 -109.32,40.67 -29.16,27.11 -47.86,67.78 -56.15,122.01l-112.31 -20c13.83,-73.84 44.88,-131.21 93.6,-171.88 48.49,-40.67 109.12,-60.91 181.39,-60.91 49.79,0 95.76,10.41 137.61,31.48 42.12,20.87 74.27,49.43 96.39,85.55 22.32,36.27 33.36,74.66 33.36,115.33 0,38.59 -10.61,73.64 -31.67,105.31 -21.26,31.71 -52.73,56.94 -94.23,75.72 54.03,12.1 95.96,37.57 125.9,76.12 29.79,38.39 44.68,86.8 44.68,144.57 0,78.2 -29.12,144.73 -87.2,199.19 -58.28,54.42 -131.88,81.54 -220.8,81.54 -80.16,0 -146.73,-23.58 -199.7,-70.5 -53.17,-46.92 -83.38,-107.63 -90.81,-182.29zm-710.42 4951.19l117.38 -8.76c8.76,56.11 28.96,98.24 60.44,126.61 31.48,28.14 69.99,42.32 115.29,42.32 54.66,0 100.36,-20 137.61,-59.85 36.98,-40.04 55.49,-93.01 55.49,-158.95 0,-62.75 -17.6,-112.19 -53.17,-148.5 -35.52,-36.27 -82.52,-54.42 -141.03,-54.42 -36.35,0 -68.92,8.13 -97.81,24.4 -28.72,16.27 -51.28,37.33 -67.86,63.19l-105.94 -15.01 88.1 -460.54 453 0 0 105.12 -363.48 0 -48.69 241.75c54.66,-37.76 112.07,-56.51 172.07,-56.51 79.53,0 146.73,27.11 201.39,81.34 54.66,54.23 82.13,123.9 82.13,208.97 0,81.15 -24.05,151.21 -72.11,210.23 -58.51,72.62 -138.48,108.89 -239.7,108.89 -82.95,0 -150.58,-22.95 -203.12,-68.61 -52.54,-45.7 -82.56,-106.18 -89.99,-181.66zm882.69 -250.51c-46.6,-16.7 -81.03,-40.67 -103.58,-71.56 -22.32,-31.04 -33.64,-68.18 -33.64,-111.36 0,-65.27 23.85,-119.93 71.48,-164.33 47.86,-44.44 111.25,-66.76 190.58,-66.76 79.57,0 143.78,22.75 192.27,68.22 48.49,45.46 72.74,100.71 72.74,166.02 0,41.5 -11.04,77.8 -33.17,108.46 -22.12,30.85 -55.76,54.62 -101.03,71.32 55.96,17.96 98.24,46.72 127.4,86.76 29.12,39.85 43.81,87.39 43.81,142.88 0,76.55 -27.62,140.8 -82.72,192.94 -55.33,52.15 -127.83,78.2 -217.81,78.2 -89.99,0 -162.49,-26.05 -217.81,-78.43 -55.05,-52.34 -82.72,-117.61 -82.72,-195.85 0,-58.2 15.09,-107 45.27,-146.18 30.22,-39.45 73.17,-66.13 128.93,-80.32zm-22.32 -186.89c0,42.56 13.83,77.18 41.22,104.09 27.66,26.92 63.86,40.47 108.73,40.47 43.58,0 78.91,-13.36 106.29,-40.08 27.47,-26.68 41.1,-59.41 41.1,-98.24 0,-40.44 -14.03,-74.43 -42.32,-101.97 -28.1,-27.55 -63.62,-41.3 -106.37,-41.3 -43.19,0 -78.71,13.56 -106.81,40.47 -27.82,26.88 -41.85,59.02 -41.85,96.55zm-37.02 414.25c0,31.48 7.43,61.73 22.32,91.13 14.89,29.2 37.41,51.95 67.63,67.98 30.02,16.07 62.32,24.21 96.59,24.21 53.99,0 98.24,-16.9 132.9,-50.69 34.66,-33.75 51.91,-76.74 51.91,-128.89 0,-52.97 -17.84,-96.78 -53.4,-131.4 -35.72,-34.62 -80.79,-51.91 -135.02,-51.91 -53.17,0 -96.78,17.09 -131.25,51.28 -34.46,34.23 -51.67,76.98 -51.67,128.3zm-235.07 4530.06l-111.05 8.76c-10.02,-43.19 -24.25,-74.7 -42.75,-94.27 -30.41,-31.51 -68.06,-47.15 -112.74,-47.15 -35.92,0 -67.82,9.78 -95.29,29.39 -35.29,25.27 -62.95,61.97 -83.58,110.34 -20.43,48.61 -31.04,117.65 -31.91,207.13 27.04,-40.24 60.2,-70.3 99.34,-89.67 39.14,-19.61 79.97,-29.43 122.96,-29.43 74.86,0 138.63,27.11 191.41,81.15 52.54,54.03 78.91,123.66 78.91,209.41 0,56.31 -12.34,108.46 -37.02,156.83 -24.87,48.41 -58.71,85.31 -102.09,110.97 -43.19,25.66 -92.3,38.59 -147.2,38.59 -93.37,0 -169.72,-33.79 -228.86,-101.15 -58.9,-67.39 -88.45,-178.56 -88.45,-333.3 0,-173.14 32.77,-299.08 98.04,-377.75 57.02,-68.41 133.8,-102.6 230.59,-102.6 71.87,0 130.97,19.8 176.95,59.22 45.94,39.45 73.56,93.88 82.76,163.55zm-459.44 386.67c0,38 8.29,74.27 24.64,108.89 16.39,34.62 39.37,60.91 68.53,79.06 29.35,18.15 60.4,27.31 93.37,27.31 47.86,0 88.69,-18.78 122.52,-56.31 33.79,-37.53 50.85,-88.41 50.85,-152.9 0,-61.93 -16.86,-110.73 -50.22,-146.41 -33.4,-35.64 -75.96,-53.6 -127.63,-53.6 -50.61,0 -93.8,17.96 -129.12,53.6 -35.29,35.68 -52.93,82.4 -52.93,140.36zm585.97 -151.84c0,-105.74 11.08,-191.25 33.2,-255.89 22.32,-64.88 55.29,-114.74 99.1,-149.56 43.58,-34.82 98.67,-52.15 165.04,-52.15 48.92,0 91.87,9.59 129.12,29 36.98,19.37 67.63,47.35 91.44,83.86 23.85,36.27 42.56,80.71 56.15,133.05 13.79,52.34 20.63,123.07 20.63,211.68 0,105.15 -11.08,190.23 -32.97,254.91 -21.89,64.84 -54.9,114.7 -98.67,149.75 -43.62,35.01 -98.91,52.54 -165.71,52.54 -87.83,0 -156.95,-30.65 -207.17,-92.19 -60.2,-75.09 -90.18,-196.67 -90.18,-365.02zm114.86 0.43c0,147.48 17.45,245.48 52.54,293.89 35.09,48.57 78.47,72.78 129.95,72.78 51.44,0 94.86,-24.4 129.95,-73.01 35.09,-48.8 52.54,-146.61 52.54,-293.65 0,-147.48 -17.45,-245.48 -52.54,-293.89 -34.86,-48.57 -78.71,-72.78 -131.25,-72.78 -51.44,0 -92.7,21.49 -123.58,64.25 -38.47,54.42 -57.61,155.37 -57.61,302.42zm-38919.5 -24991.7l0 -948.83 -361.28 0 0 -126.1 868.08 0 0 126.1 -361.32 0 0 948.83 -145.47 0zm989.03 -97.57c-49.98,41.77 -98.2,71.05 -144.41,88.3 -46.17,17.29 -95.68,25.78 -148.73,25.78 -87.28,0 -154.35,-20.75 -201.35,-62.56 -46.96,-41.54 -70.42,-94.82 -70.42,-159.62 0,-38.04 8.92,-72.81 26.56,-104.37 17.84,-31.51 41.06,-56.55 69.63,-75.57 28.84,-19.02 60.99,-33.52 96.98,-43.26 26.52,-6.76 66.61,-13.28 119.93,-19.77 108.69,-12.54 189.05,-27.78 240.37,-45.31 0.51,-18 0.75,-29.51 0.75,-34.27 0,-53.56 -12.73,-91.32 -38.27,-113.37 -34.46,-29.75 -85.74,-44.52 -153.61,-44.52 -63.54,0 -110.5,11 -140.6,32.77 -30.38,21.77 -52.58,60.32 -67.12,115.84l-131.64 -18c11.99,-55.29 31.63,-100.09 59.18,-134.12 27.59,-34.03 67.35,-60.08 119.42,-78.59 51.83,-18.27 112.31,-27.51 180.64,-27.51 67.9,0 123.27,7.74 165.87,23.5 42.36,15.8 73.72,35.29 93.64,59.06 19.92,23.77 33.95,53.8 42.12,90.1 4.32,22.52 6.6,63.03 6.6,121.34l0 175.14c0,122.37 2.83,199.7 8.45,232.47 5.34,32.77 16.58,64.05 32.93,94.07l-140.87 0c-13.52,-27.78 -22.2,-60.32 -26.05,-97.57zm-10.69 -292.79c-49,19.53 -122.44,36.03 -220.49,49.55 -55.6,7.78 -94.86,16.54 -117.89,26.29 -22.95,9.75 -40.55,24.01 -53.05,42.52 -12.5,18.78 -18.86,39.53 -18.86,62.56 0,34.78 13.48,64.05 40.83,87.35 27.27,23.26 67.08,35.01 119.42,35.01 51.75,0 97.96,-11 138.52,-33.28 40.32,-22.01 70.18,-52.3 89.08,-90.58 14.54,-29.79 21.69,-73.56 21.69,-131.36l0.75 -48.06zm343.21 390.36l0 -779.19 120.95 0 0 110.11c24.76,-38.04 57.92,-68.81 99.26,-91.83 41.34,-23.26 88.3,-34.78 141.11,-34.78 58.71,0 106.92,11.99 144.41,35.76 37.53,24.05 64.09,57.33 79.38,100.36 63.27,-90.85 145.2,-136.12 246.23,-136.12 79.1,0 140.09,21.26 182.45,64.05 42.64,42.79 64.05,108.61 64.05,197.42l0 534.22 -134.74 0 0 -490.45c0,-52.54 -4.56,-90.58 -13.28,-113.84 -8.64,-23.26 -24.48,-41.77 -47.67,-56.04 -22.99,-14.26 -50.02,-21.3 -80.91,-21.3 -56.15,0 -102.6,18.27 -139.58,54.58 -36.98,36.51 -55.37,94.82 -55.37,174.9l0 452.13 -134.74 0 0 -505.69c0,-58.55 -10.96,-102.6 -32.89,-131.88 -21.97,-29.28 -57.96,-44.05 -107.71,-44.05 -37.76,0 -72.7,9.78 -104.88,29.28 -32.14,19.53 -55.33,48.06 -69.87,85.86 -14.34,37.53 -21.46,91.83 -21.46,162.64l0 403.84 -134.74 0zm1794.35 -97.57c-50.02,41.77 -98.24,71.05 -144.41,88.3 -46.17,17.29 -95.72,25.78 -148.77,25.78 -87.28,0 -154.35,-20.75 -201.31,-62.56 -46.96,-41.54 -70.46,-94.82 -70.46,-159.62 0,-38.04 8.96,-72.81 26.56,-104.37 17.84,-31.51 41.06,-56.55 69.67,-75.57 28.84,-19.02 60.99,-33.52 96.94,-43.26 26.56,-6.76 66.61,-13.28 119.97,-19.77 108.65,-12.54 189.05,-27.78 240.33,-45.31 0.51,-18 0.79,-29.51 0.79,-34.27 0,-53.56 -12.77,-91.32 -38.27,-113.37 -34.46,-29.75 -85.78,-44.52 -153.61,-44.52 -63.54,0 -110.54,11 -140.6,32.77 -30.38,21.77 -52.58,60.32 -67.16,115.84l-131.64 -18c11.99,-55.29 31.63,-100.09 59.22,-134.12 27.55,-34.03 67.35,-60.08 119.42,-78.59 51.79,-18.27 112.27,-27.51 180.64,-27.51 67.86,0 123.27,7.74 165.87,23.5 42.32,15.8 73.72,35.29 93.64,59.06 19.92,23.77 33.95,53.8 42.12,90.1 4.32,22.52 6.6,63.03 6.6,121.34l0 175.14c0,122.37 2.79,199.7 8.41,232.47 5.38,32.77 16.58,64.05 32.93,94.07l-140.83 0c-13.56,-27.78 -22.2,-60.32 -26.05,-97.57zm-10.69 -292.79c-49.04,19.53 -122.48,36.03 -220.49,49.55 -55.64,7.78 -94.9,16.54 -117.89,26.29 -22.99,9.75 -40.55,24.01 -53.09,42.52 -12.5,18.78 -18.86,39.53 -18.86,62.56 0,34.78 13.52,64.05 40.83,87.35 27.31,23.26 67.08,35.01 119.42,35.01 51.79,0 98,-11 138.56,-33.28 40.28,-22.01 70.14,-52.3 89.04,-90.58 14.58,-29.79 21.69,-73.56 21.69,-131.36l0.79 -48.06zm343.21 390.36l0 -779.19 120.95 0 0 110.62c58.16,-84.84 142.37,-127.12 252.32,-127.12 48.02,0 91.87,8.49 131.95,25.27 40.04,16.78 70.18,39.02 90.07,66.29 19.88,27.27 33.91,59.81 41.85,97.33 4.87,24.52 7.39,67.31 7.39,128.38l0 478.42 -134.74 0 0 -473.43c0,-53.8 -5.07,-94.07 -15.52,-120.6 -10.45,-26.52 -29.12,-47.78 -55.64,-63.82 -26.56,-15.76 -57.92,-23.77 -93.64,-23.77 -57.17,0 -106.41,17.8 -148.03,53.56 -41.54,35.52 -62.24,103.35 -62.24,202.92l0 425.14 -134.7 0zm851.49 0l0 -1074.93 134.74 0 0 386.82c62.48,-71.83 141.31,-107.59 236.76,-107.59 58.43,0 109.2,11.24 152.62,34.03 43.11,22.75 73.95,54.03 92.58,94.07 18.67,40.04 27.82,98.36 27.82,174.39l0 493.2 -134.7 0 0 -492.69c0,-65.82 -14.58,-113.84 -43.38,-143.86 -29.08,-30.02 -69.91,-45.07 -122.99,-45.07 -39.57,0 -76.78,10.02 -111.8,30.3 -34.93,20.28 -59.69,47.78 -74.74,82.56 -14.81,34.54 -22.16,82.32 -22.16,143.39l0 425.37 -134.74 0zm800.96 -389.57c0,-143.9 40.83,-250.47 122.76,-319.79 68.1,-57.57 151.56,-86.33 249.8,-86.33 108.97,0 198.25,35.01 267.64,105.08 69.16,69.83 103.86,166.65 103.86,290 0,100.09 -15.29,178.68 -45.9,235.97 -30.61,57.29 -75.29,101.85 -133.96,133.6 -58.43,31.79 -122.52,47.55 -191.64,47.55 -111.28,0 -201.07,-34.78 -269.72,-104.57 -68.65,-69.83 -102.84,-170.42 -102.84,-301.51zm137.77 0.24c0,99.57 22.2,174.16 66.61,223.43 44.68,49.55 100.56,74.31 168.18,74.31 66.84,0 122.48,-24.76 167.12,-74.54 44.36,-49.79 66.57,-125.63 66.57,-227.44 0,-96.12 -22.44,-168.93 -67.08,-218.21 -44.68,-49.55 -100.28,-74.31 -166.61,-74.31 -67.63,0 -123.51,24.52 -168.18,73.8 -44.4,49.32 -66.61,123.62 -66.61,222.96zm-2845.81 6033.74l0 -896.01 345.01 0c60.59,0 106.96,2.91 139.11,8.53 44.88,7.31 82.52,21.3 112.94,41.73 30.41,20.63 54.9,49.43 73.4,86.33 18.47,36.94 27.66,77.61 27.66,122.01 0,75.92 -24.72,140.36 -74.27,192.94 -49.32,52.77 -138.87,79.06 -268.19,79.06l-234.4 0 0 365.41 -121.27 0zm121.27 -470.52l236.09 0c78.28,0 133.57,-14.19 166.53,-42.79 32.77,-28.57 49.16,-68.61 49.16,-120.56 0,-37.33 -9.59,-69.44 -28.92,-96.12 -19.37,-26.72 -44.88,-44.44 -76.39,-53.01 -20.39,-5.19 -58.08,-7.9 -112.74,-7.9l-233.73 0 0 320.38zm-208.03 5419.19l0 -896.01 181.19 0 216.12 634.27c19.96,59.02 34.42,103.23 43.62,132.62 10.41,-32.54 26.76,-80.48 48.88,-143.7l219.94 -623.19 161.86 0 0 896.01 -116.12 0 0 -749.6 -266.74 749.6 -108.93 0 -263.71 -763.39 0 763.39 -116.12 0zm471.55 4597.02l0 -105.12 386.71 0 0 332.05c-59.34,46.29 -120.64,81.34 -183.78,104.68 -63.19,23.38 -128.06,35.05 -194.43,35.05 -89.75,0 -171.21,-18.78 -244.57,-56.51 -73.17,-37.57 -128.69,-92.19 -165.91,-163.31 -37.45,-71.36 -56.15,-151.01 -56.15,-238.84 0,-87.16 18.51,-168.5 55.76,-244.22 37.17,-75.53 90.58,-131.6 160.36,-168.11 69.75,-36.74 150.15,-55.09 241.2,-55.09 65.9,0 125.71,10.45 179.07,31.51 53.36,21.06 95.29,50.26 125.51,87.59 30.41,37.57 53.36,86.57 69.12,146.85l-109.12 29.2c-13.83,-45.46 -30.85,-81.34 -51.04,-107.63 -20.43,-26.05 -49.36,-46.92 -87.2,-62.56 -37.68,-15.64 -79.57,-23.58 -125.71,-23.58 -55.09,0 -102.76,8.33 -143.19,24.83 -40.16,16.46 -72.46,38.16 -97.41,65.27 -24.64,26.92 -43.78,56.51 -57.41,88.65 -23.15,55.68 -34.86,115.76 -34.86,180.6 0,80.12 14.03,147.04 41.89,201.07 28.06,53.83 68.88,93.88 122.33,119.93 53.56,26.09 110.34,39.22 170.54,39.22 52.34,0 103.39,-10.02 153.17,-29.83 49.75,-20.04 87.43,-41.1 113.13,-63.82l0 -167.91 -267.99 0zm-496.38 4948.71l0 -105.12 386.67 0 0 332.05c-59.34,46.29 -120.6,81.34 -183.75,104.68 -63.23,23.38 -128.1,35.05 -194.43,35.05 -89.79,0 -171.25,-18.78 -244.61,-56.51 -73.17,-37.57 -128.65,-92.19 -165.91,-163.31 -37.41,-71.36 -56.15,-151.01 -56.15,-238.84 0,-87.16 18.55,-168.5 55.76,-244.22 37.17,-75.53 90.62,-131.6 160.36,-168.11 69.79,-36.74 150.15,-55.09 241.2,-55.09 65.94,0 125.71,10.45 179.07,31.51 53.4,21.06 95.29,50.26 125.51,87.59 30.41,37.57 53.4,86.57 69.12,146.85l-109.08 29.2c-13.83,-45.46 -30.89,-81.34 -51.08,-107.63 -20.43,-26.05 -49.36,-46.92 -87.2,-62.56 -37.65,-15.64 -79.57,-23.58 -125.71,-23.58 -55.09,0 -102.72,8.33 -143.15,24.83 -40.2,16.46 -72.5,38.16 -97.41,65.27 -24.64,26.92 -43.81,56.51 -57.45,88.65 -23.15,55.68 -34.86,115.76 -34.86,180.6 0,80.12 14.03,147.04 41.93,201.07 28.06,53.83 68.88,93.88 122.29,119.93 53.6,26.09 110.38,39.22 170.54,39.22 52.34,0 103.39,-10.02 153.17,-29.83 49.75,-20.04 87.43,-41.1 113.17,-63.82l0 -167.91 -267.99 0zm992.64 0l0 -105.12 386.71 0 0 332.05c-59.34,46.29 -120.6,81.34 -183.78,104.68 -63.19,23.38 -128.06,35.05 -194.39,35.05 -89.79,0 -171.25,-18.78 -244.61,-56.51 -73.17,-37.57 -128.69,-92.19 -165.91,-163.31 -37.45,-71.36 -56.15,-151.01 -56.15,-238.84 0,-87.16 18.51,-168.5 55.76,-244.22 37.17,-75.53 90.58,-131.6 160.36,-168.11 69.75,-36.74 150.15,-55.09 241.2,-55.09 65.9,0 125.71,10.45 179.07,31.51 53.4,21.06 95.29,50.26 125.51,87.59 30.41,37.57 53.4,86.57 69.12,146.85l-109.12 29.2c-13.79,-45.46 -30.85,-81.34 -51.04,-107.63 -20.43,-26.05 -49.36,-46.92 -87.2,-62.56 -37.65,-15.64 -79.57,-23.58 -125.71,-23.58 -55.09,0 -102.72,8.33 -143.15,24.83 -40.2,16.46 -72.5,38.16 -97.45,65.27 -24.64,26.92 -43.78,56.51 -57.41,88.65 -23.15,55.68 -34.86,115.76 -34.86,180.6 0,80.12 14.03,147.04 41.93,201.07 28.02,53.83 68.88,93.88 122.29,119.93 53.56,26.09 110.34,39.22 170.54,39.22 52.34,0 103.39,-10.02 153.17,-29.83 49.75,-20.04 87.43,-41.1 113.17,-63.82l0 -167.91 -268.03 0zm-1789.16 5300.33l0 -896.01 659.77 0 0 105.12 -538.54 0 0 275.3 504.08 0 0 105.12 -504.08 0 0 305.36 560.24 0 0 105.12 -681.46 0zm755.93 0l353.07 -464.9 -310.94 -431.11 143.98 0 166.53 229.21c34.7,47.55 58.71,83.86 72.54,109.08 20.63,-31.28 44.88,-64.68 72.78,-99.93l182.49 -238.37 132.5 0 -317.39 425.88 341.63 470.13 -148.46 0 -230.59 -319.55c-13.2,-18.12 -25.74,-36.27 -37.45,-54.23 -20.43,30.06 -34.89,51.12 -43.81,62.99l-231.61 310.79 -145.28 0zm1371.49 -351.65l0 -105.12 386.67 0 0 332.05c-59.34,46.29 -120.6,81.34 -183.75,104.68 -63.19,23.38 -128.06,35.05 -194.43,35.05 -89.75,0 -171.25,-18.78 -244.61,-56.51 -73.17,-37.57 -128.65,-92.19 -165.91,-163.31 -37.41,-71.36 -56.11,-151.01 -56.11,-238.84 0,-87.16 18.51,-168.5 55.72,-244.22 37.17,-75.53 90.62,-131.6 160.36,-168.11 69.79,-36.74 150.15,-55.09 241.2,-55.09 65.94,0 125.71,10.45 179.11,31.51 53.36,21.06 95.29,50.26 125.47,87.59 30.41,37.57 53.4,86.57 69.16,146.85l-109.12 29.2c-13.83,-45.46 -30.85,-81.34 -51.04,-107.63 -20.47,-26.05 -49.39,-46.92 -87.2,-62.56 -37.68,-15.64 -79.61,-23.58 -125.71,-23.58 -55.13,0 -102.76,8.33 -143.19,24.83 -40.2,16.46 -72.5,38.16 -97.41,65.27 -24.64,26.92 -43.81,56.51 -57.45,88.65 -23.15,55.68 -34.86,115.76 -34.86,180.6 0,80.12 14.03,147.04 41.93,201.07 28.06,53.83 68.88,93.88 122.29,119.93 53.6,26.09 110.38,39.22 170.54,39.22 52.34,0 103.39,-10.02 153.17,-29.83 49.79,-20.04 87.43,-41.1 113.17,-63.82l0 -167.91 -267.99 0z"/>
 </g>
</svg>
