<?xml version="1.0" encoding="UTF-8" standalone="no"?>
<svg
   xmlns:dc="http://purl.org/dc/elements/1.1/"
   xmlns:cc="http://creativecommons.org/ns#"
   xmlns:rdf="http://www.w3.org/1999/02/22-rdf-syntax-ns#"
   xmlns:svg="http://www.w3.org/2000/svg"
   xmlns="http://www.w3.org/2000/svg"
   xml:space="preserve"
   width="512"
   height="512"
   version="1.1"
   style="clip-rule:evenodd;fill-rule:evenodd;image-rendering:optimizeQuality;shape-rendering:geometricPrecision;text-rendering:geometricPrecision"
   viewBox="0 0 901.77541 901.77977"
   id="svg159"><metadata
   id="metadata163"><rdf:RDF><cc:Work
       rdf:about=""><dc:format>image/svg+xml</dc:format><dc:type
         rdf:resource="http://purl.org/dc/dcmitype/StillImage" /><dc:title></dc:title></cc:Work></rdf:RDF></metadata>
 <defs
   id="defs119">
  <style
   type="text/css"
   id="style107">
   <![CDATA[
    .fil1 {fill:none}
    .fil6 {fill:#002047}
    .fil5 {fill:#024D6C}
    .fil3 {fill:#2C4B22}
    .fil7 {fill:#ED1B24}
    .fil4 {fill:#F47621}
    .fil8 {fill:#002047;fill-rule:nonzero}
    .fil2 {fill:url(#id0)}
    .fil0 {fill:url(#id1)}
   ]]>
  </style>
  <linearGradient
   id="id0"
   gradientUnits="userSpaceOnUse"
   x1="0"
   y1="25.879999"
   x2="30.98"
   y2="25.879999">
   <stop
   offset="0"
   style="stop-opacity:1; stop-color:#547737"
   id="stop109" />
   <stop
   offset="1"
   style="stop-opacity:1; stop-color:#415F2D"
   id="stop111" />
  </linearGradient>
  <linearGradient
   id="id1"
   gradientUnits="userSpaceOnUse"
   x1="6.1599998"
   y1="52.490002"
   x2="24.809999"
   y2="38.549999">
   <stop
   offset="0"
   style="stop-opacity:1; stop-color:#F7811E"
   id="stop114" />
   <stop
   offset="1"
   style="stop-opacity:1; stop-color:#D85E2A"
   id="stop116" />
  </linearGradient>
 
  
  
  
  
  
  
  
  
  
  
  
  
  
  
  
  
  
  
  
  
  
  
  
  
 </defs>
 <g
   id="g196"
   transform="matrix(8.0739146,0,0,8.0739146,200.79344,4.2836029)"><polygon
     class="fil0"
     points="0,19.64 30.98,39.23 30.98,71.4 0,51.81 "
     id="polygon122"
     style="fill:url(#id1)" /><rect
     class="fil1"
     transform="matrix(-0.84517142,-0.53449534,0,1,0,0)"
     width="36.650089"
     height="32.174728"
     id="rect124"
     x="-36.650082"
     y="19.638103"
     style="fill:none;stroke-width:0.05417337" /><polygon
     class="fil2"
     points="30.98,0 0,19.59 0,51.76 30.98,32.18 "
     id="polygon126"
     style="fill:url(#id0)" /><rect
     class="fil3"
     transform="matrix(0.84517142,-0.53449534,0,1,0,0)"
     width="36.650089"
     height="32.174728"
     id="rect128"
     x="-0.00026589163"
     y="58.849457"
     style="fill:#2c4b22;stroke-width:0.05417337" /><rect
     class="fil4"
     transform="matrix(-0.84517142,-0.53449534,0,1,0,0)"
     width="36.650089"
     height="32.174728"
     id="rect130"
     x="-36.650082"
     y="58.865402"
     style="fill:#f47621;stroke-width:0.05417337" /><rect
     class="fil5"
     transform="matrix(0.84517142,-0.53449534,0,1,0,0)"
     width="36.650089"
     height="32.174728"
     id="rect132"
     x="36.650082"
     y="58.816696"
     style="fill:#024d6c;stroke-width:0.05417337" /><rect
     class="fil6"
     transform="matrix(-0.84517142,-0.53449534,0,1,0,0)"
     width="36.650089"
     height="32.174728"
     id="rect134"
     x="-73.3004"
     y="19.670879"
     style="fill:#002047;stroke-width:0.05417337" /><rect
     class="fil7"
     transform="matrix(0.84517142,-0.53449534,0,1,0,0)"
     width="36.650089"
     height="32.174728"
     id="rect136"
     x="36.650082"
     y="98.043999"
     style="fill:#ed1b24;stroke-width:0.05417337" /></g>
</svg>