<?xml version="1.0" encoding="UTF-8" standalone="no"?>
<!-- Created with Inkscape (http://www.inkscape.org/) -->

<svg
   width="512"
   height="512"
   viewBox="0 0 135.46666 135.46667"
   version="1.1"
   id="svg1"
   inkscape:version="1.3.2 (1:1.3.2+202404261509+091e20ef0f)"
   sodipodi:docname="icone.svg"
   xmlns:inkscape="http://www.inkscape.org/namespaces/inkscape"
   xmlns:sodipodi="http://sodipodi.sourceforge.net/DTD/sodipodi-0.dtd"
   xmlns="http://www.w3.org/2000/svg"
   xmlns:svg="http://www.w3.org/2000/svg">
  <sodipodi:namedview
     id="namedview1"
     pagecolor="#ffffff"
     bordercolor="#000000"
     borderopacity="0.25"
     inkscape:showpageshadow="2"
     inkscape:pageopacity="0.0"
     inkscape:pagecheckerboard="0"
     inkscape:deskcolor="#d1d1d1"
     inkscape:document-units="mm"
     inkscape:zoom="0.7198092"
     inkscape:cx="397.32751"
     inkscape:cy="338.97872"
     inkscape:window-width="1920"
     inkscape:window-height="1011"
     inkscape:window-x="0"
     inkscape:window-y="32"
     inkscape:window-maximized="1"
     inkscape:current-layer="layer1" />
  <defs
     id="defs1" />
  <g
     inkscape:label="Camada 1"
     inkscape:groupmode="layer"
     id="layer1">
    <path
       class="fil0"
       d="m 67.733474,3.6833333e-4 c 4.832272,0 9.544993,0.51012999667 14.090404,1.47188996667 -4.511495,0.0966 -9.251065,1.0166 -14.246975,2.76065 -5.255074,1.84665 -10.417448,4.25318 -15.519056,7.2198697 -5.068543,2.96726 -9.909293,6.36294 -14.555033,10.18682 -4.612674,3.82416 -8.598775,7.64832 -11.991089,11.47246 -3.35981,3.82472 -5.931952,7.48356 -7.718124,10.97816 -1.785039,3.49492 -2.39635,6.49439 -1.832803,8.99982 0.208016,0.92334 0.830908,2.37375 1.869262,4.35182 1.03807,1.97805 2.215757,3.98921 3.532494,6.03284 1.317017,2.04391 2.673037,3.82445 4.069474,5.34098 1.39587,1.51628 2.489616,2.27454 3.280957,2.27454 0.132269,0 0.569484,-0.69243 1.313064,-2.07697 0.743859,-1.38457 1.523048,-2.90113 2.339262,-4.54937 0.81621,-1.64855 1.522766,-3.19817 2.119664,-4.64858 0.596333,-1.45069 0.945935,-2.24202 1.047962,-2.37372 -0.263409,0 -0.771841,0.23094 -1.525028,0.6924 -0.753469,0.46154 -1.591162,0.98861 -2.512792,1.58214 -0.92163,0.5935 -1.791542,1.12114 -2.610863,1.58268 -0.819322,0.46152 -1.361108,0.69184 -1.62451,0.69184 l -0.0441,-0.19763 c -0.296751,-1.31871 0.06076,-3.09896 1.073117,-5.34098 1.01207,-2.24148 2.423767,-4.61495 4.266745,-7.12066 1.810192,-2.50574 3.909227,-5.04338 6.298231,-7.61467 2.388437,-2.57186 4.781117,-4.97839 7.211383,-7.21987 2.396633,-2.24205 4.670045,-4.15398 6.819385,-5.73694 2.14906,-1.58211 3.956426,-2.63685 5.419844,-3.16479 -0.286864,2.24204 -1.027897,5.83529 -2.223672,10.78059 -1.195773,4.94505 -2.539356,10.54943 -4.031318,16.81319 -1.492812,6.26375 -3.093581,12.92315 -4.738159,19.97798 -1.643448,7.05536 -3.065317,13.77978 -4.263919,20.1758 -1.23195,6.39515 -2.102426,12.197672 -2.645905,17.406122 -0.542353,5.20899 -0.517483,9.13205 0.07575,11.76978 0.17778,0.79104 0.931806,1.94498 2.262388,3.46154 1.329738,1.51628 2.824808,3.03281 4.484646,4.54909 1.071987,0.97955 2.125601,1.87604 3.16028,2.69083 C 21.3829,125.55673 2.3333333e-6,99.143738 2.3333333e-6,67.733158 2.3333333e-6,30.325318 30.325343,-1.6666667e-6 67.733191,-1.6666667e-6 Z M 106.11439,11.922488 c 17.72888,12.21378 29.35227,32.65412 29.35227,55.81104 0,37.408102 -30.32534,67.733142 -67.733186,67.733142 -4.067212,0 -8.050487,-0.35892 -11.919864,-1.04599 l -0.40754,-1.81415 c -0.919654,-4.08783 -1.421872,-8.37379 -1.507507,-12.85729 -0.08506,-4.48353 0.133681,-8.93397 0.689879,-13.35136 0.522853,-4.41766 1.192385,-8.769462 2.008878,-13.054852 0.815931,-4.28596 1.713538,-8.20905 2.626972,-11.76981 1.11777,1.45101 2.256736,2.70356 3.416899,3.75833 1.028462,1.05501 2.184952,1.94527 3.468903,2.67047 1.283386,0.72521 2.650995,1.08782 4.101692,1.08782 3.033102,0 6.462719,-1.02139 10.222439,-3.06587 3.760286,-2.04394 7.536965,-4.74693 11.362819,-8.11012 3.79307,-3.36236 7.41685,-7.18678 10.903556,-11.47218 3.45364,-4.28596 6.4158,-8.70334 8.88733,-13.25271 2.50431,-4.54937 4.32355,-9.06568 5.49078,-13.54918 1.16779,-4.4835 1.33595,-8.57164 0.50561,-12.26409 -0.57683,-1.97808 -1.92409,-4.45016 -4.04178,-7.41742 -1.99616,-2.79596 -4.4626,-5.47437 -7.42815,-8.03578 z m -45.253998,60.94798 c 0.352993,0.39565 1.068594,1.08808 2.148492,2.07669 1.079616,0.9889 2.674451,1.48347 4.784226,1.48347 1.97807,0 4.382334,-0.89025 7.212512,-2.67019 2.830176,-1.77997 5.75814,-4.15369 8.783328,-7.12094 2.991552,-2.96726 5.934778,-6.29682 8.796894,-9.98899 2.82876,-3.69246 5.32036,-7.4177 7.442276,-11.17571 2.12221,-3.75802 3.69811,-7.45048 4.79468,-11.0771 1.09601,-3.62631 1.34811,-6.75832 0.75517,-9.39602 -0.0893,-0.3954 -0.2928,-1.15338 -0.61103,-2.27426 -0.31795,-1.12088 -0.82299,-2.34041 -1.51542,-3.65912 -0.69157,-1.31899 -1.61066,-2.47236 -2.75641,-3.46154 -1.145746,-0.98918 -2.575246,-1.48347 -4.256566,-1.48347 -2.37374,0 -4.8091,0.16459 -7.306627,0.49429 -2.496965,0.33009 -4.939385,0.75798 -7.391695,1.28593 -2.452877,0.5271 -4.792139,1.1206 -6.984437,1.78022 -2.225366,0.65908 -4.187045,1.31873 -5.885038,1.97807 0.939719,0.65909 1.677643,1.15395 2.21293,1.48322 0.535569,0.32981 0.84815,0.69215 0.937175,1.0878 0.08902,0.39595 0.08196,0.65936 -0.02061,0.79107 -1.20623,3.42877 -2.371763,7.48381 -3.494337,12.16489 -1.123142,4.68107 -2.172798,9.39605 -3.148694,14.14268 -0.976175,4.74747 -1.879717,9.23097 -2.711192,13.4511 -0.831191,4.21955 -1.426675,7.58217 -1.785887,10.08763 z m -12.615683,12.06596 c 1.041463,-4.74747 2.131254,-9.72558 3.267394,-14.93372 1.135858,-5.20902 2.192583,-10.18712 3.168193,-14.9346 0.976176,-4.74691 1.950375,-9.06565 2.921462,-12.95568 0.971091,-3.89 1.91533,-7.0223 2.83159,-9.39546 0.464915,-1.45097 0.900719,-3.03312 1.305998,-4.7475 0.405561,-1.7141 0.24277,-2.43931 -0.488937,-2.17562 -0.785124,2.37319 -1.696297,5.50521 -2.733237,9.39549 -1.037222,3.89 -2.065966,8.11012 -3.087079,12.65949 -1.020548,4.54962 -2.008313,9.09899 -2.962727,13.64836 -0.954981,4.54937 -1.790694,8.60442 -2.506293,12.16489 -0.715598,3.56047 -1.224601,6.42852 -1.52616,8.60413 -0.301838,2.17621 -0.365429,3.0659 -0.190201,2.67051 z m 4.174329,-12.65921 c 0.959219,-2.76968 1.939917,-6.03284 2.94068,-9.79113 1.001048,-3.7583 2.008877,-7.48354 3.025188,-11.17628 1.015743,-3.69189 1.933415,-7.0876 2.753019,-10.18627 0.819039,-3.09893 1.512312,-5.44019 2.07925,-7.0223 0.145284,-0.52764 0.278653,-1.54931 0.399062,-3.06587 0.120665,-1.51685 0.07857,-2.14312 -0.125775,-1.87943 -0.568071,1.58268 -1.191815,3.79107 -1.872936,6.62634 -0.681118,2.83498 -1.449286,5.86807 -2.305064,9.09902 -0.855781,3.23063 -1.663513,6.52741 -2.424332,9.88978 -0.759406,3.3629 -1.502419,6.36293 -2.228192,9.00009 -0.725774,2.63741 -1.265016,4.78025 -1.619705,6.4288 -0.354692,1.64824 -0.561571,2.3401 -0.621204,2.07697 z m 50.685712,-22.94548 c -1.22658,1.58268 -3.03791,3.79136 -5.432846,6.62634 -2.39522,2.83527 -5.01428,5.70359 -7.856324,8.60442 -2.842048,2.90141 -5.629547,5.60469 -8.362784,8.11012 -2.733239,2.50574 -5.116871,4.21956 -7.150903,5.14315 -0.07264,0.26341 0.106831,0.32981 0.538959,0.19763 0.431567,-0.13213 0.947915,-0.32956 1.547639,-0.59353 0.600571,-0.26369 1.192947,-0.56044 1.777411,-0.89025 0.585592,-0.32953 1.045983,-0.62628 1.382587,-0.89026 1.886219,-1.58211 4.020014,-3.52713 6.401669,-5.83501 2.381941,-2.3076 4.683046,-4.68107 6.904456,-7.12066 2.22028,-2.43959 4.28286,-4.84612 6.18942,-7.21985 1.905436,-2.37375 3.258916,-4.4171 4.060426,-6.13204 z m -69.831093,1.58268 c 0.04269,-0.39596 0.812538,-1.51628 2.309305,-3.36265 1.496767,-1.84606 3.421421,-3.9889 5.774249,-6.42823 2.352262,-2.44016 5.052715,-4.94502 8.100794,-7.5166 3.047797,-2.57129 6.144204,-4.78028 9.289504,-6.62634 0.659639,0 0.850976,0.26341 0.573722,0.79104 -0.277525,0.52739 -0.53246,0.85748 -0.767035,0.98862 -1.536052,0.79164 -2.991555,1.64854 -4.36651,2.57129 -1.374673,0.9236 -2.979401,2.14341 -4.814465,3.65968 -1.834218,1.51625 -4.019735,3.52739 -6.555135,6.03284 -2.535404,2.50571 -5.716878,5.80165 -9.544429,9.89007 z M 75.78255,19.463978 c 4.740703,-1.05473 8.683278,-1.84637 11.762728,-2.37347 3.111956,-0.52792 5.668266,-0.89025 7.733386,-1.08779 2.06568,-0.1982 3.81568,-0.33041 5.251396,-0.39596 1.40322,-0.0663 2.84544,-0.0991 4.29642,-0.0991 0.39934,-0.13241 0.80123,-0.39537 1.23958,-0.79104 0.43835,-0.39596 0.29845,-0.72549 -0.41998,-0.98918 -3.79137,0 -7.449906,0.29675 -10.942836,0.89025 -3.49292,0.5935 -6.549763,1.21953 -9.236368,1.87943 -2.68717,0.65909 -4.9196,1.28537 -6.698423,1.87887 -1.778258,0.5935 -2.751893,0.95612 -2.985903,1.0881 z m 1.079899,50.24195 c 0.366561,-0.13241 1.923243,-1.4182 4.671177,-3.8575 2.747934,-2.43959 5.839254,-5.40682 9.272828,-8.90117 3.43386,-3.49433 6.76795,-7.28599 10.001986,-11.37354 3.23518,-4.08813 5.52131,-7.84615 6.86037,-11.27491 0.0432,-0.3954 -0.27611,-0.49433 -0.95696,-0.29675 -0.68055,0.19819 -1.18984,0.42845 -1.52559,0.69239 -0.66925,1.71411 -1.92748,3.89003 -3.77357,6.52745 -1.846936,2.63744 -4.062126,5.53855 -6.647266,8.70306 -2.58458,3.16479 -5.436518,6.46186 -8.555251,9.89034 -3.119018,3.42877 -6.235208,6.72555 -9.347442,9.89035 z M 24.956656,39.441678 c -0.336601,0.26397 0.179474,-0.23066 1.545942,-1.48294 1.36676,-1.25312 3.387227,-2.96722 6.063092,-5.14343 2.675298,-2.17562 5.910473,-4.64855 9.704955,-7.41742 3.795049,-2.76912 7.966832,-5.4724 12.517047,-8.10981 4.549931,-2.63716 9.341505,-5.07703 14.37585,-7.3190497 5.034063,-2.24148 10.135675,-3.88947 15.305112,-4.94448 0.174956,-0.39596 -0.697228,-0.46152 -2.615948,-0.19819 -1.91872,0.26397 -4.788181,0.98915 -8.609232,2.17618 -5.782727,1.84609 -11.030171,4.0216997 -15.741198,6.5274097 -4.711025,2.50574 -9.022425,5.17624 -12.934478,8.01092 -3.91177,2.83498 -7.464046,5.80224 -10.657392,8.90148 -3.193064,3.09836 -6.177552,6.09867 -8.95375,8.99952 z"
       id="path1"
       style="clip-rule:evenodd;fill:#edba00;fill-rule:evenodd;stroke-width:0.028262;image-rendering:optimizeQuality;shape-rendering:geometricPrecision;text-rendering:geometricPrecision" />
  </g>
</svg>
