<?xml version="1.0" encoding="UTF-8" standalone="no"?>
<!-- Creator: CorelDRAW -->

<svg
   xml:space="preserve"
   width="189.983mm"
   height="49.168999mm"
   version="1.1"
   style="clip-rule:evenodd;fill-rule:evenodd;image-rendering:optimizeQuality;shape-rendering:geometricPrecision;text-rendering:geometricPrecision"
   viewBox="0 0 18978.284 4911.7039"
   id="svg10"
   sodipodi:docname="logo svg.svg"
   inkscape:version="1.3.2 (1:1.3.2+202404261509+091e20ef0f)"
   xmlns:inkscape="http://www.inkscape.org/namespaces/inkscape"
   xmlns:sodipodi="http://sodipodi.sourceforge.net/DTD/sodipodi-0.dtd"
   xmlns="http://www.w3.org/2000/svg"
   xmlns:svg="http://www.w3.org/2000/svg"><sodipodi:namedview
   id="namedview10"
   pagecolor="#ffffff"
   bordercolor="#000000"
   borderopacity="0.25"
   inkscape:showpageshadow="2"
   inkscape:pageopacity="0.0"
   inkscape:pagecheckerboard="0"
   inkscape:deskcolor="#d1d1d1"
   inkscape:document-units="mm"
   inkscape:zoom="1.0767858"
   inkscape:cx="68.723047"
   inkscape:cy="60.364839"
   inkscape:window-width="1920"
   inkscape:window-height="1011"
   inkscape:window-x="0"
   inkscape:window-y="32"
   inkscape:window-maximized="1"
   inkscape:current-layer="Camada_x0020_1" />
 <defs
   id="defs1">
  <style
   type="text/css"
   id="style1">
   <![CDATA[
    .fil0 {fill:#EDBA00}
    .fil1 {fill:#373435;fill-rule:nonzero}
   ]]>
  </style>
 
   
   
   
   
   
   
   
   
   
   
  </defs>
 <g
   id="Camada_x0020_1"
   inkscape:label="Camada 1"
   inkscape:groupmode="layer">
  <metadata
   id="CorelCorpID_0Corel-Layer" />
  <g
   id="g11"
   transform="translate(5476.8618,-5011.2581)"><path
     class="fil0"
     d="m -3080.2521,5070.515 c 170.98,0 337.73,18.05 498.56,52.08 -159.63,3.42 -327.33,35.97 -504.1,97.68 -185.94,65.34 -368.6,150.49 -549.11,255.46 -179.34,104.99 -350.62,225.14 -515,360.44 -163.21,135.31 -304.25,270.62 -424.28,405.93 -118.88,135.33 -209.89,264.79 -273.09,388.44 -63.16,123.66 -84.79,229.79 -64.85,318.44 7.36,32.67 29.4,83.99 66.14,153.98 36.73,69.99 78.4,141.15 124.99,213.46 46.6,72.32 94.58,135.32 143.99,188.98 49.39,53.65 88.09,80.48 116.09,80.48 4.68,0 20.15,-24.5 46.46,-73.49 26.32,-48.99 53.89,-102.65 82.77,-160.97 28.88,-58.33 53.88,-113.16 75,-164.48 21.1,-51.33 33.47,-79.33 37.08,-83.99 -9.32,0 -27.31,8.17 -53.96,24.5 -26.66,16.33 -56.3,34.98 -88.91,55.98 -32.61,21 -63.39,39.67 -92.38,56 -28.99,16.33 -48.16,24.48 -57.48,24.48 l -1.56,-6.99 c -10.5,-46.66 2.15,-109.65 37.97,-188.98 35.81,-79.31 85.76,-163.29 150.97,-251.95 64.05,-88.66 138.32,-178.45 222.85,-269.43 84.51,-91 169.17,-176.15 255.16,-255.46 84.8,-79.33 165.24,-146.98 241.29,-202.99 76.04,-55.98 139.99,-93.3 191.77,-111.98 -10.15,79.33 -36.37,206.47 -78.68,381.45 -42.31,174.97 -89.85,373.27 -142.64,594.9 -52.82,221.63 -109.46,457.26 -167.65,706.88 -58.15,249.64 -108.46,487.57 -150.87,713.88 -43.59,226.28 -74.39,431.59 -93.62,615.88 -19.19,184.31 -18.31,323.12 2.68,416.45 6.29,27.99 32.97,68.82 80.05,122.48 47.05,53.65 99.95,107.31 158.68,160.96 37.93,34.66 75.21,66.38 111.82,95.21 -1026.16,-271.15 -1782.75,-1205.72 -1782.75,-2317.12 0,-1323.6 1073,-2396.6 2396.6,-2396.6 z m 1358.03,421.84 c 627.3,432.16 1038.57001,1155.4 1038.57001,1974.76 0,1323.61 -1073.00001,2396.6 -2396.60001,2396.6 -143.91,0 -284.85,-12.7 -421.76,-37.01 l -14.42,-64.19 c -32.54,-144.64 -50.31,-296.29 -53.34,-454.93 -3.01,-158.64 4.73,-316.11 24.41,-472.41 18.5,-156.31 42.19,-310.29 71.08,-461.92 28.87,-151.65 60.63,-290.46 92.95,-416.45 39.55,51.34 79.85,95.66 120.9,132.98 36.39,37.33 77.31,68.83 122.74,94.49 45.41,25.66 93.8,38.49 145.13,38.49 107.32,0 228.67,-36.14 361.7,-108.48 133.05,-72.32 266.68,-167.96 402.05,-286.96 134.21,-118.97 262.43,-254.29 385.8,-405.92 122.2,-151.65 227.01,-307.95 314.46,-468.92 88.61,-160.97 152.98,-320.77 194.28,-479.41 41.32,-158.64 47.27,-303.29 17.89,-433.94 -20.41,-69.99 -68.08,-157.46 -143.01,-262.45 -70.63,-98.93 -157.9,-193.7 -262.83,-284.33 z m -1601.22,2156.52 c 12.49,14 37.81,38.5 76.02,73.48 38.2,34.99 94.63,52.49 169.28,52.49 69.99,0 155.06,-31.5 255.2,-94.48 100.14,-62.98 203.74,-146.97 310.78,-251.96 105.85,-104.99 209.99,-222.8 311.26,-353.44 100.09,-130.65 188.25,-262.46 263.33,-395.43 75.09,-132.97 130.85,-263.62 169.65,-391.94 38.78,-128.31 47.7,-239.13 26.72,-332.46 -3.16,-13.99 -10.36,-40.81 -21.62,-80.47 -11.25,-39.66 -29.12,-82.81 -53.62,-129.47 -24.47,-46.67 -56.99,-87.48 -97.53,-122.48 -40.54,-35 -91.12,-52.49 -150.61,-52.49 -83.99,0 -170.16,5.82 -258.53,17.49 -88.35,11.68 -174.77,26.82 -261.54,45.5 -86.79,18.65 -169.56,39.65 -247.13,62.99 -78.74,23.32 -148.15,46.66 -208.23,69.99 33.25,23.32 59.36,40.83 78.3,52.48 18.95,11.67 30.01,24.49 33.16,38.49 3.15,14.01 2.9,23.33 -0.73,27.99 -42.68,121.32 -83.92,264.8 -123.64,430.43 -39.74,165.63 -76.88,332.46 -111.41,500.41 -34.54,167.98 -66.51,326.62 -95.93,475.94 -29.41,149.3 -50.48,268.28 -63.19,356.93 z m -446.38,426.93 c 36.85,-167.98 75.41,-344.12 115.61,-528.4 40.19,-184.31 77.58,-360.45 112.1,-528.43 34.54,-167.96 69.01,-320.77 103.37,-458.41 34.36,-137.64 67.77,-248.47 100.19,-332.44 16.45,-51.34 31.87,-107.32 46.21,-167.98 14.35,-60.65 8.59,-86.31 -17.3,-76.98 -27.78,83.97 -60.02,194.79 -96.71,332.44 -36.7,137.64 -73.1,286.96 -109.23,447.93 -36.11,160.98 -71.06,321.95 -104.83,482.92 -33.79,160.97 -63.36,304.45 -88.68,430.43 -25.32,125.98 -43.33,227.46 -54,304.44 -10.68,77 -12.93,108.48 -6.73,94.49 z m 147.7,-447.92 c 33.94,-98 68.64,-213.46 104.05,-346.44 35.42,-132.98 71.08,-264.79 107.04,-395.45 35.94,-130.63 68.41,-250.78 97.41,-360.42 28.98,-109.65 53.51,-192.49 73.57,-248.47 5.14,-18.67 9.86,-54.82 14.12,-108.48 4.27,-53.67 2.78,-75.83 -4.45,-66.5 -20.1,56 -42.17,134.14 -66.27,234.46 -24.1,100.31 -51.28,207.63 -81.56,321.95 -30.28,114.31 -58.86,230.96 -85.78,349.93 -26.87,118.99 -53.16,225.14 -78.84,318.45 -25.68,93.32 -44.76,169.14 -57.31,227.47 -12.55,58.32 -19.87,82.8 -21.98,73.49 z m 1793.41,-811.88 c -43.4,56 -107.49,134.15 -192.23,234.46 -84.75,100.32 -177.42,201.81 -277.98,304.45 -100.56,102.66 -199.19,198.31 -295.9,286.96 -96.71,88.66 -181.05,149.3 -253.02,181.98 -2.57,9.32 3.78,11.67 19.07,6.99 15.27,-4.67 33.54,-11.66 54.76,-21 21.25,-9.33 42.21,-19.83 62.89,-31.5 20.72,-11.66 37.01,-22.16 48.92,-31.5 66.74,-55.98 142.24,-124.8 226.51,-206.46 84.28,-81.65 165.7,-165.63 244.3,-251.95 78.56,-86.32 151.54,-171.47 219,-255.46 67.42,-83.99 115.31,-156.29 143.67,-216.97 z m -2470.83,56 c 1.51,-14.01 28.75,-53.65 81.71,-118.98 52.96,-65.32 121.06,-141.14 204.31,-227.45 83.23,-86.34 178.78,-174.97 286.63,-265.96 107.84,-90.98 217.4,-169.14 328.69,-234.46 23.34,0 30.11,9.32 20.3,27.99 -9.82,18.66 -18.84,30.34 -27.14,34.98 -54.35,28.01 -105.85,58.33 -154.5,90.98 -48.64,32.68 -105.42,75.84 -170.35,129.49 -64.9,53.65 -142.23,124.81 -231.94,213.46 -89.71,88.66 -202.28,205.28 -337.71,349.94 z m 1504.09,-1112.81 c 167.74,-37.32 307.24,-65.33 416.2,-83.98 110.11,-18.68 200.56,-31.5 273.63,-38.49 73.09,-7.01 135.01,-11.69 185.81,-14.01 49.65,-2.35 100.68,-3.51 152.02,-3.51 14.13,-4.68 28.35,-13.99 43.86,-27.99 15.51,-14.01 10.56,-25.67 -14.86,-35 -134.15,0 -263.6,10.5 -387.19,31.5 -123.59,21 -231.75,43.15 -326.81,66.5 -95.08,23.32 -174.07,45.48 -237.01,66.48 -62.92,21 -97.37,33.83 -105.65,38.5 z m 38.21,1777.71 c 12.97,-4.68 68.05,-50.18 165.28,-136.49 97.23,-86.32 206.61,-191.31 328.1,-314.95 121.5,-123.64 239.47,-257.8 353.9,-402.43 114.47,-144.65 195.36,-277.62 242.74,-398.94 1.53,-13.99 -9.77,-17.49 -33.86,-10.5 -24.08,7.01 -42.1,15.16 -53.98,24.5 -23.68,60.65 -68.2,137.64 -133.52,230.96 -65.35,93.32 -143.73,195.97 -235.2,307.94 -91.45,111.98 -192.36,228.64 -302.71,349.95 -110.36,121.32 -220.62,237.97 -330.74,349.95 z m -1836.58,-1070.84 c -11.91,9.34 6.35,-8.16 54.7,-52.47 48.36,-44.34 119.85,-104.99 214.53,-181.99 94.66,-76.98 209.13,-164.48 343.39,-262.45 134.28,-97.98 281.89,-193.63 442.89,-286.95 160.99,-93.31 330.53,-179.64 508.66,-258.97 178.12,-79.31 358.63,-137.62 541.54,-174.95 6.19,-14.01 -24.67,-16.33 -92.56,-7.01 -67.89,9.34 -169.42,35 -304.62,77 -204.61,65.32 -390.28,142.3 -556.97,230.96 -166.69,88.66 -319.24,183.15 -457.66,283.45 -138.41,100.31 -264.1,205.3 -377.09,314.96 -112.98,109.63 -218.58,215.79 -316.81,318.43 z"
     id="path1" /><g
     id="g10"
     transform="translate(0,6.535)"><path
       class="fil1"
       d="m 2644.3,9910.29 c -76.33,0 -134.48,-18.28 -174.5,-54.8 -40.03,-36.52 -60.07,-88.87 -60.07,-157.14 v -642.97 h 157.35 v 652.61 c 0,28.91 6.9,49.77 20.76,62.63 13.75,12.82 33.61,19.27 59.3,19.27 25.73,0 45.55,-6.45 59.41,-19.27 13.86,-12.87 20.75,-33.72 20.75,-62.63 v -652.61 h 151.61 v 642.97 c 0,68.28 -20.04,120.62 -60.12,157.14 -40.03,36.52 -98.23,54.8 -174.5,54.8 z m 1084.38,-854.92 h 197.38 l 153.04,504.5 h 2.85 v -504.5 h 140.17 v 842.88 H 4060.48 L 3871.7,9282.93 h -2.85 v 615.32 h -140.17 z m 1348.95,0 h 157.36 v 842.88 h -157.36 z m 1012.77,0 h 416.18 v 120.4 h -258.83 v 234.78 h 203.09 v 120.4 h -203.09 v 367.29 H 6090.4 v -842.88 z m 1457.58,854.92 c -77.2,0 -136.34,-18.45 -177.34,-55.4 -41.02,-36.91 -61.48,-89.09 -61.48,-156.54 v -443.12 c 0,-67.4 20.47,-119.57 61.48,-156.53 41.01,-36.9 100.14,-55.35 177.34,-55.35 77.26,0 136.4,18.45 177.4,55.35 41.01,36.96 61.48,89.14 61.48,156.53 v 443.12 c 0,67.46 -20.48,119.63 -61.48,156.54 -41.01,36.95 -100.14,55.4 -177.4,55.4 z m 0,-120.4 c 54.37,0 81.58,-27.7 81.58,-83.11 V 9246.8 c 0,-55.35 -27.21,-83.05 -81.58,-83.05 -54.31,0 -81.47,27.7 -81.47,83.05 v 459.98 c 0,55.41 27.16,83.11 81.47,83.11 z m 1082.96,-734.51 h 233.08 c 81.14,0 140.22,15.83 177.4,47.53 37.17,31.71 55.79,80.48 55.79,146.31 v 51.8 c 0,87.49 -34.33,142.9 -102.94,166.17 v 2.41 c 38.11,9.64 64.99,29.29 80.76,58.97 15.71,29.73 23.6,69.49 23.6,119.25 v 148.1 c 0,24.09 0.99,43.53 2.85,58.37 1.92,14.89 6.74,29.52 14.34,43.97 h -160.2 c -5.75,-13.64 -9.59,-26.5 -11.45,-38.55 -1.92,-12.05 -2.85,-33.73 -2.85,-64.99 v -154.14 c 0,-38.54 -7.44,-65.42 -22.23,-80.7 -14.73,-15.21 -40.25,-22.89 -76.55,-22.89 h -54.31 v 361.27 h -157.3 v -842.88 z m 214.52,361.21 c 31.48,0 55.08,-6.78 70.8,-20.48 15.76,-13.63 23.6,-36.52 23.6,-68.6 v -65.05 c 0,-30.5 -6.4,-52.56 -19.27,-66.2 -12.93,-13.69 -33.12,-20.48 -60.84,-20.48 h -71.5 v 240.81 h 57.22 z m 1100.1,-361.21 h 224.54 l 100.14,603.27 h 2.85 l 100.08,-603.27 h 224.6 v 842.88 h -148.71 v -638.2 h -2.9 l -114.38,638.2 h -131.68 l -114.38,-638.2 h -2.85 v 638.2 h -137.32 v -842.88 z m 1507.73,0 h 429.1 v 120.4 h -271.73 v 222.74 h 216 v 120.45 h -216 v 258.88 h 271.73 v 120.4 h -429.1 v -842.88 z m 1464.81,854.92 c -76.27,0 -133.98,-18.28 -173.13,-54.8 -39.1,-36.52 -58.65,-88.87 -58.65,-157.14 v -48.13 h 148.77 V 9708 c 0,54.58 27.21,81.9 81.57,81.9 26.67,0 46.98,-6.62 60.73,-19.87 13.86,-13.26 20.75,-34.71 20.75,-64.44 0,-35.32 -9.52,-66.42 -28.58,-93.3 -19.05,-26.88 -54.31,-59.19 -105.84,-96.92 -64.82,-48.18 -110.16,-91.76 -135.9,-130.69 -25.73,-38.93 -38.6,-82.84 -38.6,-131.85 0,-66.63 20.04,-118.2 60.01,-154.73 40.08,-36.52 98.29,-54.75 174.5,-54.75 75.4,0 132.4,18.23 171,54.75 38.6,36.52 57.93,88.92 57.93,157.13 v 34.93 h -148.76 v -43.36 c 0,-28.85 -6.73,-49.93 -20.04,-63.18 -13.37,-13.25 -32.91,-19.87 -58.7,-19.87 -52.39,0 -78.63,26.88 -78.63,80.64 0,30.5 9.75,59.03 29.35,85.53 19.49,26.5 55.02,58.58 106.55,96.31 65.81,48.18 111.09,91.93 135.85,131.24 24.85,39.37 37.23,85.53 37.23,138.47 0,69.05 -20.26,122.04 -60.78,158.95 -40.58,36.95 -99.43,55.4 -176.63,55.4 z"
       id="path2" /><path
       class="fil1"
       d="m 1985.51,8199.86 c -52.89,0 -102.71,-13.25 -149.58,-39.7 -46.76,-26.44 -88.98,-58.86 -126.49,-97.35 -42.32,-38.49 -83.77,-84.15 -124.56,-137.05 -33.29,129.82 -66.03,272.89 -95.82,429.16 -29.79,156.26 -54.15,314.94 -73.2,476.02 -20.32,161.09 -28.25,323.38 -25.18,486.81 3.12,163.49 21.46,319.76 54.97,468.85 l 19.49,86.51 c 6.46,28.85 0.05,43.3 -19.17,43.3 -24.03,0 -64.71,-20.48 -121.93,-61.33 -57.27,-40.9 -116.19,-88.97 -176.68,-144.27 -60.57,-55.3 -115.04,-110.55 -163.56,-165.85 -48.45,-55.29 -75.99,-97.4 -82.51,-126.26 -21.63,-96.15 -22.5,-239.16 -2.74,-429.1 19.77,-189.94 51.53,-401.51 96.48,-634.7 43.69,-233.19 95.55,-478.43 155.5,-735.66 59.96,-257.23 118.32,-500.06 172.75,-728.44 54.43,-228.43 103.38,-432.76 147.01,-613.07 43.58,-180.3 70.64,-311.32 81.09,-393.07 -53.39,19.22 -119.25,57.72 -197.66,115.37 -78.41,57.71 -161.25,127.47 -248.69,209.16 -88.6,81.74 -175.81,169.51 -262.93,263.25 -87.06,93.79 -163.66,186.32 -229.63,277.71 -67.19,91.33 -118.65,177.89 -155.56,259.65 -36.9,81.74 -49.99,146.62 -39.15,194.75 l 1.59,7.17 c 9.58,0 29.4,-8.38 59.24,-25.24 29.9,-16.81 61.65,-36.02 95.22,-57.71 33.61,-21.63 64.17,-40.85 91.6,-57.66 27.48,-16.86 45.99,-25.23 55.63,-25.23 -3.73,4.75 -16.48,33.61 -38.28,86.51 -21.74,52.89 -47.47,109.39 -77.2,169.51 -29.79,60.13 -58.2,115.42 -85.36,165.9 -27.05,50.49 -43.03,75.72 -47.85,75.72 -28.86,0 -68.72,-27.65 -119.58,-82.95 C 301.79,7405.28 252.35,7340.34 204.34,7265.82 156.32,7191.3 113.39,7117.99 75.56,7045.88 37.67,6973.72 14.94,6920.82 7.39,6887.2 c -20.53,-91.38 1.75,-200.78 66.8,-328.18 65.15,-127.42 158.95,-260.84 281.43,-400.31 123.69,-139.4 269.06,-278.85 437.26,-418.31 169.35,-139.4 345.87,-263.25 530.72,-371.45 185.99,-108.2 374.23,-195.9 565.82,-263.25 192.84,-67.29 375.22,-100.96 548.3,-100.96 153.85,0 303.82,36.08 447.44,108.19 143.62,72.11 273.44,157.47 389.41,256.03 117.12,98.61 213.64,201.99 290.9,310.17 77.2,108.15 126.37,198.32 147.39,270.43 30.28,134.64 24.09,283.67 -18.45,447.17 -42.59,163.49 -108.9,328.18 -200.24,494.09 -90.11,165.84 -198.09,326.93 -324.03,483.2 -127.14,156.26 -259.26,295.72 -397.61,418.31 -139.46,122.65 -277.17,221.21 -414.26,295.73 -137.1,74.52 -262.16,111.8 -372.77,111.8 z m -340.95,-591.44 c 12.82,14.45 38.99,39.7 78.3,75.73 39.37,36.08 97.52,54.09 174.45,54.09 72.11,0 159.82,-32.42 262.98,-97.35 103.21,-64.94 209.98,-151.45 320.3,-259.65 109.07,-108.19 216.44,-229.58 320.8,-364.21 103.15,-134.64 193.99,-270.48 271.35,-407.53 77.37,-137.05 134.81,-271.62 174.84,-403.85 39.91,-132.23 49.11,-246.45 27.48,-342.6 -3.23,-14.45 -10.68,-42.11 -22.23,-82.94 -11.61,-40.91 -30.06,-85.36 -55.25,-133.44 -25.29,-48.07 -58.8,-90.17 -100.52,-126.21 -41.78,-36.08 -93.9,-54.09 -155.23,-54.09 -86.57,0 -175.37,5.96 -266.43,18.01 -91.05,12 -180.14,27.65 -269.54,46.87 -89.42,19.22 -174.73,40.9 -254.66,64.94 -81.09,24.03 -152.65,48.07 -214.57,72.1 34.27,24.03 61.16,42.06 80.7,54.09 19.54,12 30.88,25.24 34.1,39.65 3.29,14.45 3.07,24.03 -0.65,28.85 -44.02,125.06 -86.51,272.89 -127.47,443.56 -40.96,170.72 -79.23,342.59 -114.82,515.71 -35.59,173.08 -68.5,336.57 -98.84,490.42 -30.28,153.86 -52.01,276.51 -65.1,367.83 z m -460.03,440 c 38,-173.14 77.7,-354.64 119.14,-544.57 41.45,-189.94 79.94,-371.45 115.59,-544.52 35.53,-173.13 71.06,-330.6 106.49,-472.41 35.37,-141.86 69.82,-256.03 103.27,-342.59 16.91,-52.89 32.8,-110.6 47.58,-173.13 14.78,-62.47 8.81,-88.93 -17.85,-79.35 -28.64,86.57 -61.81,200.79 -99.65,342.6 -37.78,141.86 -75.28,295.72 -112.57,461.62 -37.17,165.9 -73.2,331.75 -108.03,497.65 -34.76,165.89 -65.26,313.73 -91.38,443.55 -26.06,129.82 -44.62,234.4 -55.63,313.74 -11,79.34 -13.36,111.8 -6.95,97.41 z m 152.22,-461.63 c 34.98,-100.96 70.74,-220 107.26,-356.98 36.52,-137.05 73.26,-272.89 110.27,-407.53 37.07,-134.64 70.53,-258.44 100.36,-371.45 29.9,-112.95 55.19,-198.31 75.83,-256.03 5.31,-19.21 10.13,-56.5 14.56,-111.8 4.39,-55.3 2.85,-78.14 -4.66,-68.5 -20.59,57.71 -43.41,138.25 -68.22,241.62 -24.8,103.38 -52.83,213.92 -84.05,331.75 -31.21,117.84 -60.72,238.02 -88.37,360.61 -27.71,122.64 -54.81,232.04 -81.31,328.18 -26.44,96.15 -46.1,174.29 -59.02,234.4 -12.93,60.12 -20.48,85.36 -22.67,75.72 z m 1848.13,-836.62 c -44.73,57.71 -110.77,138.25 -198.1,241.62 -87.28,103.38 -182.82,207.96 -286.42,313.74 -103.64,105.78 -205.26,204.33 -304.97,295.72 -99.59,91.33 -186.54,153.86 -260.73,187.48 -2.63,9.63 3.94,12.05 19.65,7.22 15.72,-4.81 34.6,-11.99 56.45,-21.63 21.91,-9.63 43.47,-20.42 64.83,-32.47 21.36,-11.99 38.11,-22.84 50.43,-32.47 68.77,-57.66 146.52,-128.61 233.41,-212.77 86.84,-84.1 170.78,-170.67 251.7,-259.64 80.97,-88.93 156.2,-176.69 225.69,-263.25 69.48,-86.52 118.81,-161.09 148.05,-223.56 z m -2546.24,57.71 c 1.59,-14.45 29.62,-55.3 84.26,-122.64 54.53,-67.3 124.73,-145.43 210.53,-234.4 85.8,-88.92 184.19,-180.3 295.34,-274.04 111.15,-93.79 224.05,-174.34 338.75,-241.62 24.04,0 31,9.58 20.92,28.86 -10.13,19.21 -19.38,31.26 -27.98,36.02 -55.95,28.86 -109.06,60.12 -159.22,93.79 -50.1,33.67 -108.63,78.14 -175.53,133.44 -66.85,55.3 -146.57,128.61 -239,219.94 -92.48,91.38 -208.45,211.57 -348.06,360.66 z m 1550,-1146.8 c 172.91,-38.44 316.63,-67.3 428.89,-86.51 113.5,-19.28 206.69,-32.48 281.97,-39.7 75.34,-7.23 139.18,-12.05 191.53,-14.4 51.14,-2.41 103.76,-3.62 156.65,-3.62 14.5,-4.81 29.23,-14.45 45.22,-28.85 15.93,-14.45 10.84,-26.44 -15.33,-36.08 -138.25,0 -271.63,10.84 -398.99,32.47 -127.36,21.63 -238.83,44.46 -336.83,68.5 -97.96,24.03 -179.37,46.92 -244.2,68.55 -64.83,21.63 -100.36,34.82 -108.9,39.65 z m 39.42,1831.98 c 13.31,-4.82 70.09,-51.69 170.29,-140.66 100.19,-88.98 212.87,-197.17 338.09,-324.58 125.23,-127.42 246.83,-265.66 364.71,-414.7 117.94,-149.04 201.33,-286.09 250.17,-411.09 1.54,-14.45 -10.07,-18.07 -34.93,-10.84 -24.8,7.22 -43.36,15.6 -55.63,25.23 -24.36,62.53 -70.25,141.87 -137.53,238.02 -67.35,96.15 -148.16,201.93 -242.39,317.34 -94.28,115.42 -198.26,235.6 -311.98,360.61 -113.72,125.06 -227.34,245.24 -340.79,360.66 z M 335.41,6389.57 c -12.26,9.58 6.52,-8.43 56.34,-54.1 49.83,-45.71 123.53,-108.19 221.1,-187.52 97.57,-79.35 215.51,-169.52 353.93,-270.48 138.36,-100.96 290.46,-199.52 456.37,-295.72 165.9,-96.15 340.56,-185.12 524.21,-266.87 183.54,-81.75 369.53,-141.81 558.04,-180.31 6.41,-14.39 -25.4,-16.8 -95.38,-7.17 -69.98,9.59 -174.67,36.03 -313.95,79.29 -210.81,67.35 -402.11,146.68 -573.92,238.01 -171.82,91.38 -329.01,188.74 -471.65,292.11 -142.63,103.37 -272.17,211.57 -388.58,324.58 -116.46,113.01 -225.25,222.4 -326.49,328.19 z"
       id="path3" /><path
       class="fil1"
       d="m 5540.47,7453.52 c -21.03,47.53 -55.19,124.79 -102.45,231.77 -47.25,106.99 -100.14,219.94 -158.56,338.81 -58.42,118.86 -117.23,231.76 -176.41,338.76 -59.14,106.99 -109.12,184.24 -149.97,231.82 -12.26,15.82 -40.46,13.85 -84.53,-5.97 -44.08,-19.82 -94.78,-51.47 -152.16,-95.11 -57.33,-43.58 -116.19,-98.06 -176.42,-163.44 -60.28,-65.37 -110.7,-135.68 -151.44,-210.96 -7.12,-31.71 -9.37,-72.33 -6.57,-121.88 2.69,-49.5 7.39,-99.06 14.08,-148.6 6.73,-49.5 13.58,-98.07 20.75,-145.59 7.17,-47.53 11.99,-83.23 14.61,-106.99 l -1.37,-5.97 h -5.96 c -12.32,15.88 -34.16,59.47 -65.7,130.81 -31.49,71.28 -66.36,149.58 -104.69,234.72 -38.28,85.2 -76.93,164.48 -115.92,237.79 -38.98,73.26 -72.1,119.86 -99.31,139.68 -17.14,11.88 -47.15,1.97 -89.9,-29.73 -42.82,-31.71 -89.04,-74.3 -138.69,-127.79 -49.72,-53.49 -100.36,-115.92 -152.11,-187.26 -51.69,-71.28 -93.46,-142.63 -125.38,-213.91 -9.8,-43.58 -3.13,-123.86 20.15,-240.76 23.27,-116.9 61.48,-237.74 114.6,-362.58 53.16,-124.78 118.37,-235.71 195.57,-332.84 77.26,-97.08 167.38,-145.59 270.42,-145.59 31.71,0 69.87,6.95 114.6,20.8 44.73,13.86 88.93,29.74 132.51,47.53 43.68,17.85 82.56,36.68 116.73,56.5 34.22,19.77 56.56,35.65 67.19,47.53 15.43,15.82 27.26,37.62 35.47,65.37 8.22,27.76 13.48,55.47 15.77,83.23 2.25,27.7 1.7,51.52 -1.81,71.28 -3.51,19.82 -4.76,31.71 -3.84,35.7 0.88,3.94 16.92,13.86 48.3,29.73 31.26,15.82 66.19,34.66 104.8,56.45 38.6,21.8 75.44,44.57 110.43,68.33 35.09,23.76 54.37,43.58 57.98,59.47 0.88,3.95 0.33,5.91 -1.64,5.91 -1.97,0 -2.52,1.97 -1.64,5.96 -32.81,83.17 -56.24,168.37 -70.31,255.59 -14.08,87.17 -21.3,169.35 -21.8,246.61 -0.44,77.31 1.81,144.66 6.79,202.1 5.09,57.49 10.18,98.06 15.55,121.88 1.75,7.88 4.65,11.88 8.65,11.88 14.02,-7.94 44.67,-43.58 91.76,-106.99 47.2,-63.4 99.86,-137.7 157.96,-222.9 58.09,-85.19 118.26,-174.33 180.52,-267.47 62.25,-93.13 117.56,-173.35 165.79,-240.7 6.13,-7.93 21.46,2.96 45.99,32.7 24.53,29.73 34.98,54.47 31.6,74.29 z m -1497.56,344.73 c 91.76,-103.04 165.46,-198.15 221.15,-285.32 55.68,-87.16 98.18,-162.45 127.47,-225.85 29.35,-63.4 48.68,-113.89 58.1,-151.56 9.3,-37.61 13.58,-58.42 12.65,-62.41 0,0 -0.77,-7.89 -2.3,-23.76 -1.59,-15.82 -3.24,-31.71 -4.82,-47.53 -1.59,-15.87 -3.94,-30.72 -7.06,-44.56 -3.12,-13.91 -8.59,-20.81 -16.53,-20.81 -51.47,0 -104.36,33.67 -158.56,101.02 -54.21,67.34 -102.94,145.64 -146.31,234.78 -43.36,89.14 -76.82,178.27 -100.3,267.47 -23.55,89.14 -29.95,157.46 -19.28,205.04 8.05,35.65 19.99,53.49 35.81,53.49 z M 5359.12,7572.4 c 6.13,-7.94 -7.88,17.79 -42.05,77.26 -34.22,59.41 -77.81,129.76 -130.86,211.02 -53,81.19 -109.28,161.47 -168.75,240.7 -59.46,79.23 -113.34,134.75 -161.69,166.39 -2.13,7.94 15.55,3.01 53.11,-14.84 37.62,-17.84 61.06,-32.69 70.25,-44.56 68.5,-83.22 136.67,-185.23 204.56,-306.13 67.95,-120.84 126.43,-230.79 175.42,-329.83 z m -897.4,-237.74 c 5.25,-11.88 -2.74,0.99 -24.03,38.6 -21.25,37.67 -52.4,84.21 -93.41,139.67 -41.01,55.47 -86.29,113.95 -135.9,175.37 -49.61,61.39 -99.65,111.92 -150.13,151.56 0.87,3.95 6.56,2.96 17.08,-3.01 10.57,-5.91 23.92,-12.87 39.92,-20.81 16.09,-7.88 31.7,-17.8 46.81,-29.68 15.16,-11.88 25.84,-21.79 31.98,-29.73 32.85,-47.58 57.98,-81.25 75.34,-101.02 17.35,-19.82 33.23,-41.61 47.69,-65.43 14.5,-23.76 31.54,-53.49 51.31,-89.14 19.71,-35.64 50.81,-91.11 93.35,-166.39 z m -808.11,106.99 c 17.58,-27.76 41.46,-71.34 71.67,-130.8 30.23,-59.41 64.66,-121.83 103.48,-187.2 38.77,-65.38 83.01,-128.78 132.56,-190.22 49.61,-61.38 104.53,-107.97 164.76,-139.67 -73.92,23.81 -137.1,64.39 -189.56,121.88 -52.45,57.44 -98.06,118.87 -136.89,184.25 -38.76,65.37 -69.86,129.76 -93.24,193.17 -23.38,63.4 -41.01,112.9 -52.78,148.6 z m 89.2,0 c 14.83,-39.64 35.86,-87.22 63.02,-142.69 27.1,-55.46 58.2,-110.92 93.3,-166.39 35.09,-55.46 74.02,-106.99 116.79,-154.57 42.81,-47.53 86.4,-87.17 130.75,-118.86 -42.17,23.81 -84.38,56.5 -126.49,98.12 -42.16,41.56 -81.03,89.14 -116.51,142.63 -35.54,53.49 -67.41,109.94 -95.66,169.41 -28.25,59.41 -49.99,116.84 -65.21,172.36 z M 4596.8,7221.7 c 3.4,-19.82 -1.26,-9.91 -14.13,29.74 -12.93,39.64 -28.26,99.05 -46.1,178.27 -17.85,79.29 -36.08,174.39 -54.7,285.32 -18.62,110.93 -32.42,225.86 -41.34,344.73 1.81,7.94 4.81,3.95 9.2,-11.88 4.33,-15.82 9.8,-35.64 16.36,-59.47 6.52,-23.76 13.86,-48.51 21.91,-74.24 8.05,-25.79 14.72,-44.62 19.98,-56.51 0.44,-15.82 3.02,-70.3 7.83,-163.44 4.82,-93.13 31.82,-250.6 80.98,-472.52 z"
       id="path4" /><path
       class="fil1"
       d="m 6468.09,7453.52 c -21.02,47.53 -55.95,125.78 -104.74,234.78 -48.79,108.96 -102.22,223.83 -160.21,344.73 -58.04,120.84 -117.39,235.77 -178.05,344.73 -60.67,108.96 -111.42,187.2 -152.27,234.78 -12.32,15.82 -40.47,13.86 -84.54,-5.96 -44.13,-19.82 -94.83,-51.53 -152.16,-95.11 -57.33,-43.58 -116.19,-98.06 -176.41,-163.44 -60.29,-65.37 -110.76,-135.73 -151.5,-211.02 -12.93,-75.29 -11.23,-173.35 5.19,-294.19 16.37,-120.84 37.13,-244.69 62.04,-371.5 24.96,-126.76 51.96,-244.64 80.92,-353.66 28.96,-108.95 50.04,-187.2 63.12,-234.72 11.78,-35.7 29.24,-90.17 52.34,-163.5 23.17,-73.25 49.45,-154.51 78.96,-243.65 29.51,-89.19 58.75,-179.31 87.77,-270.42 29.02,-91.16 56.89,-174.39 83.55,-249.68 26.67,-75.28 48.24,-137.64 64.88,-187.19 16.54,-49.56 26.89,-74.3 30.83,-74.3 30.83,-3.95 64.5,4.92 101.13,26.77 36.57,21.79 68.77,50.49 96.64,86.18 27.81,35.64 47.96,72.27 60.34,109.94 12.49,37.62 13.86,70.31 4.28,98.07 -41.13,99.05 -89.31,232.81 -144.55,401.18 -55.25,168.42 -104.91,352.67 -149.04,552.79 -44.18,200.07 -77.86,407.15 -101.07,621.06 -23.17,213.97 -25.73,414.1 -7.61,600.31 1.75,7.94 4.66,11.88 8.6,11.88 14.07,-7.88 44.51,-44.56 91.16,-109.94 46.7,-65.37 99.86,-141.64 159.55,-228.81 59.63,-87.17 121.38,-178.33 185.17,-273.44 63.78,-95.05 119.85,-176.3 168.09,-243.65 6.07,-7.93 21.41,2.96 45.93,32.7 24.53,29.73 35.04,54.47 31.65,74.29 z M 5912.46,5908.18 c 5.25,-11.89 -1.64,5.91 -20.7,53.49 -19,47.52 -43.47,114.93 -73.36,202.1 -29.96,87.17 -63.19,186.21 -99.59,297.15 -36.47,110.98 -71.51,223.88 -105.08,338.81 -33.61,114.92 -62.91,226.84 -87.93,335.79 -25.02,108.96 -42.98,201.11 -53.71,276.4 1.75,7.94 5.8,3.94 12.15,-11.89 6.35,-15.87 13.75,-35.69 22.29,-59.46 8.54,-23.76 17.03,-47.53 25.57,-71.28 8.54,-23.82 15,-43.58 19.27,-59.47 10.85,-75.28 30.34,-160.48 58.48,-255.59 28.14,-95.1 59.47,-198.09 93.9,-309.02 34.49,-110.98 70.64,-227.88 108.42,-350.69 37.72,-122.87 71.17,-251.65 100.3,-386.34 z m -17.13,267.47 c 2.19,-7.94 -2.8,4.92 -15.06,38.6 -12.26,33.73 -27.48,80.28 -45.82,139.67 -18.35,59.47 -39.87,126.82 -64.56,202.1 -24.69,75.29 -47.91,152.55 -69.7,231.82 -21.8,79.23 -42.49,154.52 -62.14,225.86 -19.6,71.28 -31.54,132.72 -35.81,184.25 0.88,3.94 3.24,0.98 6.9,-8.93 3.73,-9.91 8.7,-22.78 15.05,-38.6 6.35,-15.87 11.5,-32.75 15.44,-50.54 3.94,-17.85 6.95,-30.72 9.09,-38.66 21.35,-99.05 57.98,-226.84 109.94,-383.32 51.96,-156.53 97.57,-323.98 136.67,-502.25 z"
       id="path5" /><path
       class="fil1"
       d="m 9041.86,7453.52 c -21.02,47.53 -55.95,125.78 -104.74,234.78 -48.79,108.96 -102.22,223.83 -160.21,344.73 -58.04,120.84 -117.34,235.77 -178.05,344.73 -60.67,108.96 -111.42,187.2 -152.27,234.78 -12.32,15.82 -40.47,13.86 -84.54,-5.96 -44.02,-19.82 -94.83,-51.53 -152.16,-95.11 -57.33,-43.58 -116.19,-98.06 -176.41,-163.44 -60.29,-65.37 -110.76,-135.73 -151.5,-211.02 -10.19,-27.7 -9.75,-74.3 1.26,-139.67 11.12,-65.38 27.54,-137.7 49.33,-216.93 21.8,-79.24 46.87,-161.47 75.29,-246.67 28.36,-85.19 52.83,-161.47 73.31,-228.81 -65.26,114.93 -124.02,214.96 -176.14,300.15 -52.17,85.2 -99.48,165.41 -142.03,240.7 -42.49,75.29 -79.5,148.6 -111.03,219.95 -31.49,71.28 -59.69,148.54 -84.54,231.76 -10.51,23.76 -23.06,29.73 -37.56,17.85 -16.81,-3.95 -41.95,-18.84 -75.4,-44.57 -33.56,-25.78 -68.88,-59.46 -106,-101.07 -37.12,-41.61 -71.78,-90.12 -104.09,-145.59 -32.19,-55.46 -57.54,-114.93 -75.72,-178.33 -10.18,-27.7 -9.75,-74.3 1.26,-139.67 11.12,-65.38 27.27,-138.69 48.62,-219.89 21.36,-81.25 46.21,-164.49 74.63,-249.63 28.42,-85.19 52.83,-161.46 73.31,-228.87 -65.26,114.93 -128.44,234.78 -189.5,359.62 -61.11,124.79 -116.24,249.63 -165.4,374.45 -49.28,124.79 -94.01,242.67 -134.48,353.6 -40.41,110.99 -71.06,208.07 -91.98,291.29 -3.51,19.76 -28.25,19.76 -74.3,0 -46.1,-19.82 -98.01,-52.51 -155.78,-98.12 -57.82,-45.56 -117.06,-102.01 -177.78,-169.35 -60.72,-67.41 -107.48,-138.69 -140.27,-213.98 16.47,-103.04 35.04,-201.11 55.68,-294.24 20.64,-93.08 46.32,-186.21 76.87,-279.35 30.56,-93.07 63.4,-189.17 98.62,-288.22 35.15,-99.11 73.47,-206.09 115.04,-320.96 5.25,-11.89 23.33,-10.9 54.14,2.96 30.89,13.85 63.24,34.65 97.25,62.41 33.94,27.71 63.07,60.4 87.44,98.07 24.25,37.61 33.67,70.31 27.98,98.07 -11.28,55.46 -23.22,116.9 -35.81,184.24 -12.59,67.35 -24.96,135.74 -37.06,205.05 -12.16,69.38 -22.78,136.72 -31.87,202.1 -9.04,65.37 -16.21,121.82 -21.3,169.4 1.8,7.94 4.65,11.89 8.59,11.89 87.99,-190.22 192.02,-388.31 312.09,-594.35 120.07,-206.08 241.51,-388.36 364.38,-546.81 5.25,-11.89 27.43,-5.97 66.42,17.79 39.04,23.81 80.81,55.52 125.44,95.11 44.56,39.64 86.18,79.28 124.78,118.86 38.66,39.65 59.74,67.4 63.29,83.22 0.88,3.95 0.39,5.97 -1.59,5.97 -1.97,0 -2.57,1.97 -1.69,5.91 -71.34,158.51 -128.34,310.06 -171.16,454.67 -42.71,144.66 -72.99,274.42 -90.73,389.35 l 17.14,-29.73 c 51.69,-87.17 99.22,-166.45 142.63,-237.74 43.36,-71.34 87.67,-138.69 132.83,-202.1 45.23,-63.4 92.37,-126.81 141.54,-190.21 49.06,-63.4 104.36,-134.7 165.79,-213.97 5.25,-11.89 27.37,-5.91 66.41,17.84 39.04,23.76 80.87,55.47 125.45,95.11 44.56,39.64 86.12,79.23 124.78,118.87 38.66,39.64 59.74,67.34 63.29,83.22 0.88,3.95 0.33,5.91 -1.64,5.91 -1.98,0 -2.52,1.97 -1.59,5.96 -97.14,237.74 -151.67,435.84 -163.55,594.35 -11.89,158.5 -6.95,277.38 14.83,356.6 1.81,7.94 4.66,11.88 8.65,11.88 14.02,-7.88 44.46,-44.56 91.11,-109.94 46.76,-65.37 99.92,-141.64 159.55,-228.81 59.63,-87.17 121.38,-178.33 185.17,-273.44 63.84,-95.05 119.85,-176.3 168.09,-243.65 6.13,-7.93 21.46,2.96 45.93,32.7 24.58,29.73 35.04,54.47 31.65,74.29 z M 7282.43,6924.5 c 5.25,-11.88 -12.54,14.89 -53.33,80.27 -40.74,65.38 -90.28,144.61 -148.54,237.74 -58.37,93.14 -117.5,191.2 -177.56,294.19 -60.02,103.05 -106.72,186.27 -139.95,249.68 -2.25,7.88 9.97,-4 36.52,-35.7 26.55,-31.7 43.52,-57.43 50.98,-77.25 48.62,-83.23 110.27,-192.19 185,-326.88 74.74,-134.75 157.03,-275.41 246.89,-422.03 z m 875.28,350.69 c 4.38,-15.82 -1.1,-4.92 -16.43,32.7 -15.27,37.67 -34.05,95.1 -56.34,172.36 -22.23,77.26 -45.11,169.41 -68.55,276.4 -23.55,106.99 -42.17,217.92 -55.9,332.84 1.81,7.94 5.03,4.93 9.85,-8.92 4.82,-13.86 10.68,-31.71 17.74,-53.49 6.95,-21.8 14.67,-44.57 23.22,-68.33 8.49,-23.76 15.38,-41.62 20.65,-53.5 4.38,-15.87 12.15,-69.37 23.38,-160.48 11.17,-91.16 45.33,-247.65 102.39,-469.56 z m -1541.3,-457.63 c 5.25,-11.93 3.67,-5.96 -4.93,17.8 -8.48,23.76 -19.98,56.45 -34.38,98.06 -14.39,41.62 -30.44,89.2 -48.13,142.69 -17.68,53.49 -34.32,102.99 -49.82,148.54 -15.44,45.61 -27.6,84.21 -36.3,115.92 -8.71,31.7 -13.53,45.55 -14.4,41.62 17.52,-27.76 32.53,-53.49 45.01,-77.26 12.48,-23.76 25.34,-54.48 38.71,-92.15 13.31,-37.61 27.97,-87.17 43.8,-148.6 15.93,-61.38 36.08,-143.62 60.45,-246.61 z m 4.49,178.28 c 2.14,-7.94 -0.99,0 -9.53,23.76 -8.54,23.81 -20.04,56.5 -34.43,98.06 -14.4,41.62 -29.46,89.2 -45.17,142.69 -15.66,53.49 -30.56,102 -44.51,145.59 -13.97,43.58 -25.3,81.25 -34.05,112.96 -8.71,31.7 -13.53,45.55 -14.4,41.61 25.84,-43.57 53.22,-106.99 82.07,-190.21 28.8,-83.22 62.14,-208.01 100.03,-374.45 z m 873.97,-130.75 c 4.39,-15.87 -1.09,-4.92 -16.36,32.69 -15.28,37.67 -35.32,94.12 -59.96,169.41 -24.69,75.28 -49.99,165.4 -75.95,270.42 -25.89,105.02 -45.77,214.96 -59.51,329.89 1.75,7.88 5.08,4.92 9.91,-8.93 4.75,-13.91 10.89,-30.72 18.28,-50.54 7.45,-19.82 15.44,-41.62 23.98,-65.37 8.49,-23.76 15.38,-41.62 20.64,-53.49 4.39,-15.82 13.15,-69.32 26.34,-160.48 13.2,-91.11 50.76,-245.68 112.62,-463.6 z m 602.83,196.12 c 5.26,-11.88 -14.94,12.87 -60.56,74.3 -45.61,61.44 -99.97,136.73 -163.16,225.86 -63.19,89.14 -127.2,183.26 -192.08,282.3 -64.88,99.11 -114,180.31 -147.28,243.71 -2.2,7.93 10.02,-3.95 36.52,-35.65 26.6,-31.7 43.58,-57.49 51.03,-77.25 58.37,-75.29 127.25,-178.33 206.86,-309.08 79.56,-130.75 169.13,-265.5 268.67,-404.19 z m 768.14,534.94 c 6.18,-7.94 -7.83,17.85 -42,77.26 -34.22,59.46 -77.81,129.76 -130.86,211.02 -53.11,81.19 -109.28,161.46 -168.8,240.7 -59.41,79.28 -113.29,134.75 -161.64,166.44 -2.24,7.88 15.5,2.96 53.11,-14.89 37.62,-17.79 61,-32.69 70.25,-44.56 68.45,-83.23 136.62,-185.23 204.56,-306.08 67.89,-120.89 126.37,-230.84 175.37,-329.88 z"
       id="path6" /><path
       class="fil1"
       d="m 9898.26,7453.52 c -21.02,47.53 -55.95,125.78 -104.74,234.78 -48.73,108.96 -102.22,223.83 -160.21,344.73 -58.04,120.84 -117.39,235.77 -178.05,344.73 -60.62,108.96 -111.42,187.2 -152.27,234.78 -12.27,15.82 -40.47,13.86 -84.49,-5.96 -44.07,-19.82 -94.83,-51.53 -152.21,-95.11 -57.33,-43.58 -116.13,-98.06 -176.41,-163.44 -60.29,-65.37 -110.76,-135.73 -151.45,-211.02 -6.29,-63.4 1.65,-155.5 24.03,-276.34 22.29,-120.89 50.6,-250.66 84.82,-389.35 34.16,-138.69 72.21,-273.38 114.16,-404.13 41.89,-130.75 79.67,-235.77 113.34,-315.05 5.3,-11.89 23.43,-14.84 54.47,-8.87 31.05,5.91 65.43,17.79 103.1,35.64 37.73,17.85 72.88,37.61 105.51,59.41 32.64,21.85 50.76,40.63 54.37,56.5 0.88,3.95 0.33,5.91 -1.7,5.91 -1.97,0 -2.52,1.98 -1.64,5.97 -32.81,83.22 -62.47,189.17 -88.98,317.94 -26.5,128.78 -48.84,258.55 -66.91,389.36 -18.18,130.74 -29.08,249.62 -32.75,356.6 -3.67,106.99 -1.09,180.3 7.83,219.89 1.75,7.94 4.71,11.88 8.65,11.88 14.02,-7.88 44.46,-44.56 91.16,-109.94 46.65,-65.37 99.87,-141.64 159.5,-228.81 59.68,-87.17 121.38,-178.33 185.17,-273.44 63.78,-95.05 119.85,-176.3 168.09,-243.65 6.12,-7.93 21.46,2.96 45.99,32.7 24.47,29.73 35.04,54.47 31.59,74.29 z M 9555.12,5848.71 c -15.32,19.83 -36.19,50.54 -62.47,92.15 -26.28,41.62 -56.01,81.25 -89.19,118.87 -33.12,37.67 -66.42,70.36 -99.76,98.06 -33.39,27.76 -62.41,39.65 -87.11,35.64 20.97,-83.16 41.5,-163.44 61.81,-240.7 20.2,-77.25 41.07,-156.48 62.41,-237.73 21.3,-81.25 42.54,-167.44 63.68,-258.55 21.13,-91.16 42.54,-194.15 64.22,-309.08 1.32,-11.88 23.55,-9.91 66.69,5.96 43.2,15.82 88.76,37.62 136.61,65.38 47.8,27.7 90.67,55.46 128.62,83.22 37.94,27.71 52.33,47.53 43.14,59.41 -69.27,114.93 -121.01,202.1 -155.18,261.5 -34.22,59.46 -59.08,103.04 -74.63,130.8 -15.54,27.71 -26.17,46.54 -31.87,56.45 -5.69,9.91 -14.72,22.78 -26.99,38.6 z M 9143,6817.56 c 4.38,-15.87 -4.38,6.9 -26.22,68.34 -21.85,61.44 -46.21,133.71 -73.04,216.93 -26.83,83.22 -52.07,160.48 -75.67,231.82 -23.6,71.28 -35.86,104.96 -36.74,101.02 17.58,-27.76 33.89,-56.45 49.01,-86.19 15.1,-29.73 31.43,-67.34 48.89,-112.9 17.47,-45.6 34.71,-101.07 51.75,-166.44 16.97,-65.38 37.67,-149.59 62.03,-252.58 z m 34.77,154.52 c 0.38,-15.87 -9.37,6.95 -29.19,68.34 -19.88,61.43 -41.94,130.74 -66.2,208.06 -24.14,77.26 -46.54,149.58 -67.07,216.93 -20.53,67.35 -31.21,99.05 -32.09,95.1 25.84,-43.57 57.22,-110.98 94.23,-202.09 36.9,-91.16 70.36,-219.95 100.31,-386.34 z m 344.12,-1693.95 c 0.44,-15.82 -7.33,6.95 -23.22,68.39 -15.93,61.38 -34.98,130.75 -57.27,208 -22.23,77.26 -42.87,148.6 -61.81,213.98 -19,65.37 -28.91,96.09 -29.84,92.14 25.89,-43.63 53.6,-109.99 83,-199.13 29.51,-89.15 59.19,-216.94 89.14,-383.38 z m 190.43,2300.18 c 6.19,-7.88 -7.88,17.85 -42,77.31 -34.21,59.41 -77.8,129.76 -130.91,210.97 -53.05,81.25 -109.28,161.47 -168.75,240.75 -59.41,79.23 -113.33,134.7 -161.63,166.39 -2.25,7.94 15.49,2.96 53.11,-14.83 37.56,-17.85 60.94,-32.69 70.14,-44.62 68.56,-83.17 136.72,-185.23 204.61,-306.08 67.95,-120.83 126.37,-230.78 175.42,-329.88 z"
       id="path7" /><path
       class="fil1"
       d="m 10798.78,7043.43 c 20.48,91.11 15.11,177.29 -16.15,258.55 -31.32,81.19 -76.66,152.54 -136.12,213.97 -59.52,61.38 -128.61,110.93 -207.35,148.54 -78.68,37.67 -155.67,56.51 -230.95,56.51 -27.76,0 -55.3,-7.94 -82.62,-23.82 -12.98,83.23 -12.32,174.4 2.03,273.44 8.92,39.64 26.17,72.32 51.8,98.07 25.62,25.73 48.35,38.65 68.11,38.65 83.23,0 161.14,-14.89 233.69,-44.62 72.54,-29.68 146.47,-75.28 221.86,-136.67 75.34,-61.43 152.6,-140.66 231.82,-237.74 79.23,-97.08 163.11,-212.98 251.64,-347.73 9.75,7.94 22.51,20.81 38.44,38.66 15.87,17.79 26.06,36.62 30.5,56.45 0.88,3.94 0.6,6.95 -0.93,8.92 -1.54,1.97 -1.87,4.92 -0.99,8.92 -54.2,146.57 -114.82,282.31 -181.84,407.15 -67.07,124.78 -138.63,233.74 -214.79,326.87 -76.11,93.13 -156.7,166.39 -241.73,219.89 -85.09,53.49 -171.16,80.27 -258.33,80.27 -31.71,0 -80.16,-12.87 -145.37,-38.65 -65.27,-25.73 -134.37,-64.39 -207.35,-115.86 -73.04,-51.53 -142.47,-117.89 -208.23,-199.14 -65.87,-81.25 -113.67,-179.32 -143.45,-294.19 -16.04,-71.34 -5.86,-171.38 30.55,-300.15 36.41,-128.78 89.64,-257.56 159.77,-386.34 70.09,-128.78 149.91,-240.75 239.49,-335.8 89.53,-95.1 179.48,-144.66 269.71,-148.59 4,0 18.95,4.92 44.9,14.83 26,9.91 55.9,23.76 89.63,41.62 33.73,17.85 68.12,38.65 103.21,62.41 35.04,23.76 66.03,51.53 93.03,83.22 24.25,19.77 47.63,44.57 70.19,74.25 22.51,29.73 37.78,62.41 45.83,98.12 z m -274.92,-59.46 c -49.71,7.93 -110.54,63.4 -182.49,166.44 -71.94,102.99 -131.02,227.83 -177.29,374.4 54.04,-23.76 104.96,-57.44 152.6,-101.02 47.63,-43.58 87.72,-90.12 120.12,-139.67 32.48,-49.55 57.55,-101.02 75.23,-154.52 17.69,-53.49 21.63,-102.06 11.83,-145.64 z m 541.3,635.95 c 6.07,-7.93 -5.75,9.92 -35.54,53.5 -29.78,43.57 -74.3,97.08 -133.32,160.48 -59.03,63.4 -131.24,129.76 -216.71,199.13 -85.47,69.32 -183.16,123.8 -293.15,163.44 0.87,3.95 7.5,6.9 19.87,8.93 12.33,1.97 27.43,2.96 45.23,2.96 17.85,0 34.22,-1.97 49.17,-5.97 14.94,-3.94 26,-7.88 33.02,-11.88 40.41,-31.71 80.81,-63.4 121.28,-95.11 40.41,-31.7 82.67,-68.33 126.81,-109.94 44.13,-41.61 89.25,-92.09 135.3,-151.55 46.1,-59.41 95.43,-130.75 148.05,-213.98 z M 9796.03,7447.56 c 66.2,-110.93 136.23,-226.84 210.09,-347.68 73.81,-120.84 165.25,-220.93 274.26,-300.15 3.01,-3.95 -1.92,-3.95 -14.89,0 -12.98,3.94 -27.48,9.91 -43.52,17.84 -16.1,7.89 -32.42,18.78 -49.12,32.7 -16.7,13.85 -29.68,26.71 -38.88,38.6 -94.39,91.16 -163.77,179.31 -208,264.51 -44.19,85.2 -87.56,183.26 -129.93,294.19 z m 58.97,77.26 c 18.89,-39.59 41.84,-87.17 68.94,-142.63 27.16,-55.47 57.33,-110.93 90.39,-166.4 33.12,-55.51 69.6,-109 109.56,-160.48 39.92,-51.52 80.05,-93.13 120.51,-124.84 -38.27,23.76 -78.25,57.44 -119.96,101.02 -41.67,43.64 -80.11,93.13 -115.15,148.6 -35.09,55.46 -66.74,112.95 -95,172.36 -28.25,59.47 -48.02,116.9 -59.3,172.37 z"
       id="path8" /><path
       class="fil1"
       d="m 11071.79,7780.41 c -20.65,31.7 -51.8,51.52 -93.63,59.46 -41.78,7.88 -79.45,7.88 -112.95,0 69.21,-150.57 135.4,-292.27 198.69,-424.99 63.24,-132.72 109.07,-232.81 137.54,-300.16 -23,-31.7 -47.53,-70.3 -73.64,-115.91 -26.12,-45.55 -44.07,-90.12 -53.88,-133.71 16.48,-103.04 41.46,-190.21 74.91,-261.5 33.5,-71.34 63.89,-116.9 91.16,-136.72 21.08,-11.88 53.21,-9.91 96.42,5.91 43.14,15.87 84.54,36.68 123.96,62.41 39.48,25.79 70.25,52.51 92.37,80.28 22.07,27.7 23,49.5 2.85,65.37 -24.58,31.71 -44.13,68.34 -58.54,109.94 -14.39,41.62 -19.82,70.36 -16.25,86.18 1.8,7.94 34.38,20.81 97.84,38.66 63.4,17.79 125.33,28.69 185.67,32.69 11,-4 30.72,8.93 59.19,38.6 28.47,29.74 59.24,65.38 92.42,107 33.12,41.61 63.29,83.22 90.45,124.83 27.21,41.62 42.59,70.31 46.15,86.19 0.88,3.94 0.33,5.91 -1.64,5.91 -2.03,0 -2.52,2.02 -1.65,5.96 -47.69,122.81 -82.01,229.8 -103.15,320.96 -21.08,91.11 -34.77,171.38 -40.96,240.7 -6.18,69.38 -4.71,128.78 4.5,178.33 9.14,49.5 18.17,94.12 27.1,133.71 1.75,7.94 4.66,11.88 8.59,11.88 14.08,-7.88 44.46,-44.56 91.16,-109.94 46.71,-65.37 99.87,-141.64 159.55,-228.81 59.63,-87.17 121.39,-178.33 185.12,-273.44 63.78,-95.05 119.85,-176.3 168.09,-243.65 6.13,-7.93 21.46,2.96 45.99,32.7 24.47,29.73 35.04,54.47 31.54,74.29 -20.97,47.53 -55.9,125.78 -104.63,234.78 -48.85,108.96 -102.28,223.83 -160.27,344.73 -57.98,120.84 -117.34,235.77 -178,344.73 -60.67,108.96 -111.47,187.2 -152.27,234.78 -12.32,15.82 -40.46,13.86 -84.53,-5.96 -44.13,-19.82 -94.84,-51.53 -152.16,-95.11 -57.39,-43.58 -116.19,-98.06 -176.42,-163.44 -60.34,-65.37 -110.81,-135.73 -151.5,-211.02 -10.18,-27.7 -7.83,-83.17 7.17,-166.39 14.95,-83.22 33.78,-171.38 56.4,-264.51 22.67,-93.08 47.58,-180.31 74.9,-261.5 27.32,-81.25 48.18,-133.76 62.63,-157.52 -15.82,0 -47.91,-5.91 -96.09,-17.79 -48.24,-11.94 -100.36,-27.76 -156.37,-47.59 -93.3,166.45 -169.35,295.24 -228.1,386.34 -58.7,91.16 -97.3,148.6 -115.75,172.37 z m 1391.6,-208.01 c 6.08,-7.94 -7.93,17.79 -42.11,77.26 -34.16,59.41 -77.8,129.76 -130.85,211.02 -53.06,81.19 -109.29,161.47 -168.7,240.7 -59.52,79.23 -113.39,134.75 -161.74,166.39 -2.14,7.94 15.55,3.01 53.11,-14.84 37.61,-17.84 61.05,-32.69 70.25,-44.56 68.44,-83.22 136.61,-185.23 204.55,-306.13 67.9,-120.84 126.43,-230.79 175.48,-329.83 z m -702.87,-297.21 c 4.39,-15.82 -1.09,-4.92 -16.42,32.7 -15.27,37.67 -34.05,95.1 -56.34,172.36 -22.18,77.26 -45.06,169.41 -68.55,276.4 -23.5,106.99 -42.11,217.92 -55.9,332.84 1.75,7.94 5.03,4.93 9.85,-8.92 4.81,-13.86 10.73,-31.71 17.69,-53.49 7,-21.8 14.72,-44.57 23.27,-68.33 8.54,-23.76 15.44,-41.62 20.64,-53.5 4.39,-15.87 12.16,-69.37 23.39,-160.48 11.17,-91.16 45.33,-247.65 102.38,-469.56 z m -662.56,172.37 c 60.5,-83.22 102.16,-153.53 124.89,-210.97 22.73,-57.49 36.08,-86.18 40.08,-86.18 l -27.81,-17.85 c -19.22,55.47 -41.56,106.01 -66.91,151.56 -25.4,45.55 -48.84,100.03 -70.25,163.44 z m 176.46,-933.15 c 4.39,-15.82 -0.6,-6.9 -14.78,26.77 -14.23,33.67 -30.61,75.28 -49.22,124.78 -18.56,49.56 -35.81,96.1 -51.8,139.68 -15.93,43.58 -22.35,63.4 -19.33,59.46 17.52,-27.76 30.39,-45.55 38.55,-53.49 8.1,-7.94 15.1,-20.81 21.02,-38.66 5.91,-17.79 13.75,-44.56 23.5,-80.21 9.85,-35.65 27.21,-95.11 52.06,-178.33 z"
       id="path9" /><path
       class="fil1"
       d="m 13500.8,7453.52 c -20.98,47.53 -55.9,125.78 -104.69,234.78 -48.79,108.96 -102.22,223.83 -160.21,344.73 -58.04,120.84 -117.39,235.77 -178.05,344.73 -60.62,108.96 -111.42,187.2 -152.27,234.78 -12.27,15.82 -40.47,13.86 -84.49,-5.96 -44.12,-19.82 -94.83,-51.53 -152.21,-95.11 -57.33,-43.58 -116.13,-98.06 -176.41,-163.44 -60.29,-65.37 -110.76,-135.73 -151.45,-211.02 -6.29,-63.4 1.65,-155.5 24.03,-276.34 22.29,-120.89 50.6,-250.66 84.82,-389.35 34.16,-138.69 72.21,-273.38 114.1,-404.13 41.95,-130.75 79.73,-235.77 113.39,-315.05 5.31,-11.89 23.44,-14.84 54.48,-8.87 31.05,5.91 65.43,17.79 103.1,35.64 37.73,17.85 72.87,37.61 105.51,59.41 32.64,21.85 50.76,40.63 54.31,56.5 0.94,3.95 0.39,5.91 -1.64,5.91 -1.97,0 -2.52,1.98 -1.64,5.97 -32.81,83.22 -62.47,189.17 -88.98,317.94 -26.5,128.78 -48.84,258.55 -66.91,389.36 -18.18,130.74 -29.08,249.62 -32.75,356.6 -3.67,106.99 -1.09,180.3 7.83,219.89 1.75,7.94 4.71,11.88 8.65,11.88 14.02,-7.88 44.4,-44.56 91.16,-109.94 46.65,-65.37 99.87,-141.64 159.49,-228.81 59.69,-87.17 121.39,-178.33 185.18,-273.44 63.78,-95.05 119.85,-176.3 168.09,-243.65 6.12,-7.93 21.46,2.96 45.99,32.7 24.47,29.73 35.04,54.47 31.54,74.29 z m -343.09,-1604.81 c -15.33,19.83 -36.19,50.54 -62.47,92.15 -26.28,41.62 -56.01,81.25 -89.19,118.87 -33.13,37.67 -66.42,70.36 -99.76,98.06 -33.4,27.76 -62.41,39.65 -87.11,35.64 20.97,-83.16 41.5,-163.44 61.81,-240.7 20.2,-77.25 41.07,-156.48 62.41,-237.73 21.3,-81.25 42.54,-167.44 63.68,-258.55 21.13,-91.16 42.53,-194.15 64.17,-309.08 1.37,-11.88 23.6,-9.91 66.74,5.96 43.2,15.82 88.76,37.62 136.61,65.38 47.8,27.7 90.67,55.46 128.61,83.22 37.95,27.71 52.34,47.53 43.09,59.41 -69.21,114.93 -120.95,202.1 -155.12,261.5 -34.22,59.46 -59.08,103.04 -74.63,130.8 -15.54,27.71 -26.17,46.54 -31.87,56.45 -5.69,9.91 -14.72,22.78 -26.99,38.6 z m -412.12,968.85 c 4.38,-15.87 -4.44,6.9 -26.23,68.34 -21.84,61.44 -46.21,133.71 -73.03,216.93 -26.83,83.22 -52.07,160.48 -75.67,231.82 -23.61,71.28 -35.86,104.96 -36.74,101.02 17.57,-27.76 33.89,-56.45 49.01,-86.19 15.1,-29.73 31.37,-67.34 48.89,-112.9 17.47,-45.6 34.71,-101.07 51.75,-166.44 16.97,-65.38 37.67,-149.59 62.03,-252.58 z m 34.76,154.52 c 0.39,-15.87 -9.36,6.95 -29.18,68.34 -19.88,61.43 -41.95,130.74 -66.2,208.06 -24.14,77.26 -46.54,149.58 -67.07,216.93 -20.53,67.35 -31.21,99.05 -32.09,95.1 25.84,-43.57 57.22,-110.98 94.23,-202.09 36.9,-91.16 70.36,-219.95 100.3,-386.34 z m 344.13,-1693.95 c 0.44,-15.82 -7.33,6.95 -23.27,68.39 -15.88,61.38 -34.93,130.75 -57.22,208 -22.23,77.26 -42.87,148.6 -61.81,213.98 -19,65.37 -28.91,96.09 -29.84,92.14 25.89,-43.63 53.6,-109.99 83,-199.13 29.51,-89.15 59.19,-216.94 89.14,-383.38 z m 190.43,2300.18 c 6.19,-7.88 -7.88,17.85 -42,77.31 -34.21,59.41 -77.8,129.76 -130.91,210.97 -53.05,81.25 -109.34,161.47 -168.75,240.75 -59.41,79.23 -113.34,134.7 -161.63,166.39 -2.25,7.94 15.49,2.96 53.11,-14.83 37.56,-17.85 60.94,-32.69 70.14,-44.62 68.55,-83.17 136.67,-185.23 204.61,-306.08 67.95,-120.83 126.37,-230.78 175.42,-329.88 z"
       id="path10" /></g></g>
 </g>
</svg>
