<?xml version="1.0" encoding="UTF-8"?>
<!DOCTYPE svg PUBLIC "-//W3C//DTD SVG 1.1//EN" "http://www.w3.org/Graphics/SVG/1.1/DTD/svg11.dtd">
<!-- Creator: CorelDRAW 2020 (64 Bit) -->
<svg xmlns="http://www.w3.org/2000/svg" xml:space="preserve" width="43.273mm" height="16.619mm" version="1.1" style="shape-rendering:geometricPrecision; text-rendering:geometricPrecision; image-rendering:optimizeQuality; fill-rule:evenodd; clip-rule:evenodd"
viewBox="0 0 288.06 110.63"
 xmlns:xlink="http://www.w3.org/1999/xlink"
 xmlns:xodm="http://www.corel.com/coreldraw/odm/2003">
 <defs>
  <style type="text/css">
   <![CDATA[
    .fil1 {fill:none}
    .fil6 {fill:#002047}
    .fil5 {fill:#024D6C}
    .fil3 {fill:#2C4B22}
    .fil7 {fill:#ED1B24}
    .fil4 {fill:#F47621}
    .fil8 {fill:#002047;fill-rule:nonzero}
    .fil2 {fill:url(#id0)}
    .fil0 {fill:url(#id1)}
   ]]>
  </style>
  <linearGradient id="id0" gradientUnits="userSpaceOnUse" x1="-0" y1="25.88" x2="30.98" y2="25.88">
   <stop offset="0" style="stop-opacity:1; stop-color:#547737"/>
   <stop offset="1" style="stop-opacity:1; stop-color:#415F2D"/>
  </linearGradient>
  <linearGradient id="id1" gradientUnits="userSpaceOnUse" x1="6.16" y1="52.49" x2="24.81" y2="38.55">
   <stop offset="0" style="stop-opacity:1; stop-color:#F7811E"/>
   <stop offset="1" style="stop-opacity:1; stop-color:#D85E2A"/>
  </linearGradient>
 </defs>
 <g id="Camada_x0020_1">
  <metadata id="CorelCorpID_0Corel-Layer"/>
  <polygon class="fil0" points="30.98,71.4 -0,51.81 -0,19.64 30.98,39.23 "/>
  <rect class="fil1" transform="matrix(-0.0500349 -0.0316426 -0 0.0495728 30.9756 39.2274)" width="619.08" height="649.04"/>
  <polygon class="fil2" points="-0,51.76 30.98,32.18 30.98,0 -0,19.59 "/>
  <rect class="fil3" transform="matrix(0.0500349 -0.0316426 -0 0.0495728 -0.000224724 58.8496)" width="619.08" height="649.04"/>
  <rect class="fil4" transform="matrix(-0.0500349 -0.0316426 -0 0.0495728 30.9756 78.4547)" width="619.08" height="649.04"/>
  <rect class="fil5" transform="matrix(0.0500349 -0.0316426 -0 0.0495728 30.9756 39.2274)" width="619.08" height="649.04"/>
  <rect class="fil6" transform="matrix(-0.0500349 -0.0316426 -0 0.0495728 61.9514 58.8496)" width="619.08" height="649.04"/>
  <rect class="fil7" transform="matrix(0.0500349 -0.0316426 -0 0.0495728 30.9756 78.4547)" width="619.08" height="649.04"/>
  <path class="fil8" d="M121.07 41.43c5.75,-2.75 8.88,-7.51 8.88,-14.18l0 -3.91c0,-10.69 -8.13,-17.67 -20.77,-17.67l-21.02 0 0 74.07 22.14 0c12.64,0 20.77,-6.98 20.77,-17.67l0 -6.03c0,-7.09 -3.63,-12.06 -10.01,-14.6l0 0zm-12.51 -25.18c5.13,0 8.13,2.54 8.13,6.88l0 5.29c0,5.4 -3,7.94 -9.38,7.94l-5.88 0 0 -20.1 7.13 0zm9.26 46.03c0,4.34 -3,6.88 -8.13,6.88l-8.26 0 0 -22.22 7.01 0c6.38,0 9.38,2.54 9.38,7.94l0 7.41z"/>
  <path id="1" class="fil8" d="M186.63 79.74l-11.13 -33.12c5.75,-2.96 9.13,-8.25 9.13,-15.13l0 -8.15c0,-10.69 -8.13,-17.67 -20.77,-17.67l-20.77 0 0 74.07 13.26 0 0 -30.58 6.88 0 9.63 30.58 13.76 0zm-30.28 -63.49l6.88 0c5.13,0 8.13,2.54 8.13,6.88l0 8.57c0,4.34 -3,6.88 -8.13,6.88l-6.88 0 0 -22.33z"/>
  <path id="2" class="fil8" d="M226.53 79.74l13.51 0 -14.51 -74.07 -17.77 0 -14.51 74.07 13.26 0 2.88 -16.4 14.26 0 2.88 16.4zm-15.39 -27.19l5.38 -31 5.38 31 -10.76 0z"/>
  <polygon id="3" class="fil8" points="286.84,5.67 247.05,5.67 247.05,16.25 272.07,16.25 247.05,70.22 247.05,79.74 286.84,79.74 286.84,69.16 261.82,69.16 286.84,15.19 "/>
  <path class="fil8" d="M100.36 102.14l-2 -2.05c-0.53,0.55 -1.09,1 -1.68,1.35 -0.59,0.35 -1.28,0.53 -2.07,0.53 -0.64,0 -1.22,-0.13 -1.75,-0.38 -0.53,-0.26 -0.99,-0.6 -1.37,-1.04 -0.38,-0.44 -0.68,-0.95 -0.89,-1.54 -0.21,-0.59 -0.31,-1.22 -0.31,-1.91 0,-0.67 0.11,-1.29 0.31,-1.87 0.21,-0.58 0.5,-1.09 0.86,-1.52 0.36,-0.44 0.8,-0.78 1.31,-1.04 0.51,-0.26 1.07,-0.38 1.67,-0.38 0.84,0 1.55,0.18 2.12,0.53 0.58,0.35 1.12,0.8 1.63,1.35l2.05 -2.31c-0.68,-0.78 -1.47,-1.41 -2.37,-1.88 -0.9,-0.47 -2.04,-0.71 -3.41,-0.71 -1.08,0 -2.08,0.21 -3,0.63 -0.92,0.42 -1.72,0.99 -2.39,1.71 -0.67,0.72 -1.2,1.56 -1.57,2.51 -0.38,0.95 -0.57,1.97 -0.57,3.05 0,1.08 0.19,2.09 0.57,3.03 0.38,0.94 0.9,1.77 1.57,2.48 0.67,0.71 1.47,1.27 2.38,1.68 0.91,0.41 1.91,0.61 2.98,0.61 1.41,0 2.56,-0.26 3.48,-0.78 0.91,-0.52 1.72,-1.2 2.44,-2.04z"/>
  <path id="1" class="fil8" d="M120.09 104.62l0 -8.92c0,-2.01 -0.52,-3.57 -1.56,-4.69 -1.04,-1.11 -2.64,-1.67 -4.79,-1.67 -1.19,0 -2.2,0.11 -3.04,0.34 -0.84,0.23 -1.66,0.53 -2.47,0.91l0.9 2.76c0.66,-0.28 1.31,-0.51 1.94,-0.68 0.64,-0.17 1.37,-0.26 2.19,-0.26 1.15,0 2.03,0.28 2.64,0.83 0.61,0.55 0.92,1.35 0.92,2.39l0 0.37c-0.57,-0.19 -1.15,-0.34 -1.77,-0.46 -0.61,-0.11 -1.36,-0.17 -2.23,-0.17 -0.84,0 -1.62,0.1 -2.34,0.3 -0.72,0.2 -1.34,0.5 -1.86,0.9 -0.52,0.4 -0.93,0.9 -1.22,1.51 -0.29,0.61 -0.44,1.32 -0.44,2.14l0 0.06c0,0.76 0.14,1.43 0.42,2.01 0.28,0.58 0.66,1.06 1.12,1.45 0.47,0.39 1.01,0.68 1.63,0.88 0.62,0.2 1.28,0.3 1.97,0.3 1.1,0 2.03,-0.21 2.79,-0.63 0.77,-0.42 1.4,-0.93 1.89,-1.54l0 1.85 3.29 0zm-3.2 -5.44c0,0.47 -0.1,0.91 -0.29,1.3 -0.19,0.39 -0.46,0.72 -0.81,1 -0.35,0.28 -0.75,0.49 -1.22,0.64 -0.46,0.15 -0.97,0.23 -1.52,0.23 -0.78,0 -1.45,-0.19 -1.99,-0.57 -0.54,-0.38 -0.81,-0.93 -0.81,-1.65l0 -0.06c0,-0.78 0.29,-1.38 0.88,-1.79 0.58,-0.42 1.4,-0.63 2.44,-0.63 0.64,0 1.25,0.06 1.82,0.17 0.58,0.11 1.07,0.26 1.49,0.43l0 0.94z"/>
  <path id="2" class="fil8" d="M140.67 91.94c-0.38,-0.8 -0.94,-1.45 -1.66,-1.94 -0.72,-0.49 -1.6,-0.73 -2.64,-0.73 -0.54,0 -1.04,0.07 -1.49,0.21 -0.45,0.15 -0.85,0.34 -1.2,0.59 -0.36,0.25 -0.67,0.53 -0.94,0.83 -0.27,0.31 -0.53,0.63 -0.77,0.98l0 -2.3 -3.34 0 0 15.04 3.34 0 0 -8.44c0,-1.17 0.28,-2.09 0.84,-2.75 0.57,-0.67 1.31,-1 2.24,-1 0.93,0 1.64,0.31 2.15,0.94 0.51,0.62 0.76,1.52 0.76,2.7l0 8.56 3.34 0 0 -8.47c0,-1.21 0.29,-2.14 0.86,-2.77 0.58,-0.64 1.31,-0.95 2.22,-0.95 0.93,0 1.64,0.31 2.15,0.94 0.51,0.62 0.76,1.53 0.76,2.73l0 8.53 3.34 0 0 -9.6c0,-1.84 -0.45,-3.26 -1.34,-4.26 -0.89,-1 -2.14,-1.5 -3.73,-1.5 -1.1,0 -2.04,0.24 -2.83,0.73 -0.79,0.49 -1.48,1.14 -2.07,1.94z"/>
  <path id="3" class="fil8" d="M162.88 87.27l0 -3.28 -3.59 0 0 3.28 3.59 0zm-0.11 17.35l0 -15.04 -3.34 0 0 15.04 3.34 0z"/>
  <path id="4" class="fil8" d="M181.98 100.18l0 -0.06c0,-0.68 -0.14,-1.26 -0.41,-1.74 -0.27,-0.48 -0.63,-0.88 -1.06,-1.21 -0.43,-0.33 -0.91,-0.61 -1.44,-0.84 -0.53,-0.23 -1.06,-0.43 -1.59,-0.6 -0.42,-0.13 -0.83,-0.27 -1.22,-0.41 -0.39,-0.14 -0.74,-0.29 -1.04,-0.46 -0.3,-0.16 -0.54,-0.34 -0.73,-0.54 -0.18,-0.2 -0.27,-0.43 -0.27,-0.7l0 -0.06c0,-0.44 0.18,-0.8 0.53,-1.08 0.36,-0.28 0.85,-0.43 1.49,-0.43 0.6,0 1.26,0.13 1.97,0.38 0.71,0.26 1.41,0.6 2.11,1.04l1.31 -2.45c-0.77,-0.53 -1.62,-0.95 -2.55,-1.25 -0.93,-0.3 -1.85,-0.46 -2.77,-0.46 -0.71,0 -1.38,0.1 -2.01,0.31 -0.63,0.21 -1.18,0.51 -1.64,0.91 -0.47,0.4 -0.83,0.88 -1.1,1.45 -0.26,0.57 -0.4,1.21 -0.4,1.91l0 0.06c0,0.72 0.14,1.32 0.41,1.81 0.27,0.48 0.63,0.89 1.05,1.22 0.43,0.33 0.91,0.6 1.45,0.81 0.54,0.21 1.07,0.4 1.6,0.57 0.42,0.13 0.83,0.26 1.22,0.38 0.39,0.12 0.74,0.27 1.04,0.43 0.3,0.16 0.54,0.35 0.71,0.56 0.17,0.21 0.26,0.46 0.26,0.74l0 0.06c0,0.49 -0.2,0.89 -0.59,1.18 -0.39,0.29 -0.94,0.44 -1.66,0.44 -0.75,0 -1.53,-0.16 -2.34,-0.47 -0.81,-0.31 -1.61,-0.77 -2.4,-1.38l-1.48 2.34c0.91,0.74 1.9,1.3 2.97,1.68 1.07,0.38 2.12,0.57 3.16,0.57 0.75,0 1.45,-0.1 2.11,-0.3 0.66,-0.2 1.23,-0.49 1.71,-0.88 0.48,-0.39 0.86,-0.88 1.14,-1.47 0.27,-0.59 0.41,-1.28 0.41,-2.08z"/>
  <path id="5" class="fil8" d="M192.46 98.32l10.62 0c0.02,-0.17 0.03,-0.33 0.04,-0.48 0.01,-0.15 0.01,-0.3 0.01,-0.46 0,-1.08 -0.15,-2.12 -0.44,-3.1 -0.29,-0.99 -0.73,-1.85 -1.3,-2.59 -0.58,-0.74 -1.3,-1.33 -2.16,-1.77 -0.87,-0.44 -1.88,-0.66 -3.03,-0.66 -1.04,0 -1.99,0.21 -2.85,0.63 -0.86,0.42 -1.6,0.98 -2.23,1.69 -0.63,0.71 -1.12,1.54 -1.47,2.49 -0.35,0.95 -0.52,1.97 -0.52,3.05 0,1.18 0.19,2.25 0.58,3.2 0.38,0.96 0.91,1.78 1.57,2.46 0.67,0.68 1.45,1.22 2.36,1.6 0.9,0.38 1.88,0.57 2.92,0.57 1.33,0 2.48,-0.26 3.44,-0.77 0.96,-0.51 1.78,-1.2 2.48,-2.05l-1.94 -1.79c-0.58,0.59 -1.18,1.04 -1.78,1.34 -0.6,0.3 -1.31,0.46 -2.14,0.46 -1.08,0 -1.99,-0.33 -2.74,-0.98 -0.75,-0.66 -1.22,-1.6 -1.42,-2.83zm-0.03 -2.28c0.15,-1.18 0.55,-2.13 1.22,-2.86 0.67,-0.73 1.51,-1.1 2.53,-1.1 0.55,0 1.04,0.1 1.46,0.31 0.43,0.21 0.8,0.49 1.11,0.84 0.31,0.35 0.56,0.77 0.74,1.25 0.18,0.48 0.3,1 0.36,1.55l-7.42 0z"/>
  <path id="6" class="fil8" d="M215.09 92.51l3.89 0 0 -2.93 -3.89 0 0 -4.13 -3.34 0 0 4.13 -1.83 0 0 2.93 1.83 0 0 7.94c0,0.84 0.1,1.54 0.31,2.1 0.2,0.56 0.49,1.01 0.87,1.36 0.38,0.34 0.83,0.59 1.34,0.74 0.51,0.15 1.07,0.23 1.67,0.23 0.62,0 1.17,-0.07 1.64,-0.2 0.47,-0.13 0.92,-0.32 1.34,-0.57l0 -2.82c-0.66,0.34 -1.34,0.51 -2.05,0.51 -0.57,0 -1,-0.15 -1.31,-0.44 -0.31,-0.29 -0.47,-0.78 -0.47,-1.44l0 -7.4z"/>
  <path id="7" class="fil8" d="M229 98.32l10.62 0c0.02,-0.17 0.03,-0.33 0.04,-0.48 0.01,-0.15 0.01,-0.3 0.01,-0.46 0,-1.08 -0.15,-2.12 -0.44,-3.1 -0.29,-0.99 -0.73,-1.85 -1.3,-2.59 -0.58,-0.74 -1.3,-1.33 -2.16,-1.77 -0.87,-0.44 -1.88,-0.66 -3.03,-0.66 -1.04,0 -1.99,0.21 -2.85,0.63 -0.86,0.42 -1.6,0.98 -2.23,1.69 -0.63,0.71 -1.12,1.54 -1.47,2.49 -0.35,0.95 -0.52,1.97 -0.52,3.05 0,1.18 0.19,2.25 0.58,3.2 0.38,0.96 0.91,1.78 1.57,2.46 0.67,0.68 1.45,1.22 2.36,1.6 0.9,0.38 1.88,0.57 2.92,0.57 1.33,0 2.48,-0.26 3.44,-0.77 0.96,-0.51 1.79,-1.2 2.48,-2.05l-1.94 -1.79c-0.58,0.59 -1.18,1.04 -1.78,1.34 -0.6,0.3 -1.31,0.46 -2.14,0.46 -1.08,0 -1.99,-0.33 -2.74,-0.98 -0.75,-0.66 -1.22,-1.6 -1.42,-2.83zm-0.03 -2.28c0.15,-1.18 0.55,-2.13 1.22,-2.86 0.67,-0.73 1.51,-1.1 2.53,-1.1 0.55,0 1.04,0.1 1.47,0.31 0.43,0.21 0.8,0.49 1.11,0.84 0.31,0.35 0.56,0.77 0.74,1.25 0.18,0.48 0.3,1 0.36,1.55l-7.42 0z"/>
  <path id="8" class="fil8" d="M250.95 98.89c0,-0.99 0.12,-1.86 0.36,-2.61 0.24,-0.75 0.58,-1.37 1.01,-1.87 0.44,-0.49 0.96,-0.86 1.56,-1.11 0.6,-0.25 1.27,-0.37 2,-0.37l0.19 0 0 -3.65c-1.28,-0.06 -2.34,0.26 -3.18,0.94 -0.84,0.68 -1.49,1.59 -1.94,2.73l0 -3.39 -3.34 0 0 15.04 3.34 0 0 -5.73z"/>
  <path id="9" class="fil8" d="M267.15 87.27l0 -3.28 -3.59 0 0 3.28 3.59 0zm-0.11 17.35l0 -15.04 -3.34 0 0 15.04 3.34 0z"/>
  <path id="10" class="fil8" d="M288.06 104.62l0 -8.92c0,-2.01 -0.52,-3.57 -1.56,-4.69 -1.04,-1.11 -2.64,-1.67 -4.79,-1.67 -1.19,0 -2.2,0.11 -3.04,0.34 -0.84,0.23 -1.66,0.53 -2.46,0.91l0.9 2.76c0.66,-0.28 1.31,-0.51 1.94,-0.68 0.64,-0.17 1.37,-0.26 2.19,-0.26 1.15,0 2.03,0.28 2.64,0.83 0.61,0.55 0.92,1.35 0.92,2.39l0 0.37c-0.57,-0.19 -1.15,-0.34 -1.77,-0.46 -0.61,-0.11 -1.36,-0.17 -2.23,-0.17 -0.84,0 -1.62,0.1 -2.34,0.3 -0.72,0.2 -1.34,0.5 -1.86,0.9 -0.52,0.4 -0.93,0.9 -1.22,1.51 -0.29,0.61 -0.44,1.32 -0.44,2.14l0 0.06c0,0.76 0.14,1.43 0.42,2.01 0.28,0.58 0.66,1.06 1.12,1.45 0.47,0.39 1.01,0.68 1.63,0.88 0.62,0.2 1.28,0.3 1.97,0.3 1.1,0 2.03,-0.21 2.79,-0.63 0.77,-0.42 1.4,-0.93 1.89,-1.54l0 1.85 3.29 0zm-3.2 -5.44c0,0.47 -0.1,0.91 -0.29,1.3 -0.19,0.39 -0.46,0.72 -0.81,1 -0.35,0.28 -0.75,0.49 -1.22,0.64 -0.47,0.15 -0.97,0.23 -1.52,0.23 -0.79,0 -1.45,-0.19 -1.99,-0.57 -0.54,-0.38 -0.81,-0.93 -0.81,-1.65l0 -0.06c0,-0.78 0.29,-1.38 0.88,-1.79 0.58,-0.42 1.4,-0.63 2.44,-0.63 0.64,0 1.25,0.06 1.82,0.17 0.58,0.11 1.07,0.26 1.49,0.43l0 0.94z"/>
 </g>
</svg>
